<?xml version="1.0" encoding="UTF-8" standalone="no"?>
<!-- Generator: Adobe Illustrator 21.0.0, SVG Export Plug-In . SVG Version: 6.00 Build 0)  -->

<svg
   xmlns:dc="http://purl.org/dc/elements/1.1/"
   xmlns:cc="http://creativecommons.org/ns#"
   xmlns:rdf="http://www.w3.org/1999/02/22-rdf-syntax-ns#"
   xmlns:svg="http://www.w3.org/2000/svg"
   xmlns="http://www.w3.org/2000/svg"
   xmlns:sodipodi="http://sodipodi.sourceforge.net/DTD/sodipodi-0.dtd"
   xmlns:inkscape="http://www.inkscape.org/namespaces/inkscape"
   version="1.1"
   id="Layer_1"
   x="0px"
   y="0px"
   viewBox="0 0 238 245"
   style="enable-background:new 0 0 238 245;"
   xml:space="preserve"
   sodipodi:docname="icon-blue.svg"
   inkscape:version="0.92.0 r"><metadata
     id="metadata55"><rdf:RDF><cc:Work
         rdf:about=""><dc:format>image/svg+xml</dc:format><dc:type
           rdf:resource="http://purl.org/dc/dcmitype/StillImage" /></cc:Work></rdf:RDF></metadata><defs
     id="defs53" /><sodipodi:namedview
     pagecolor="#ffffff"
     bordercolor="#666666"
     borderopacity="1"
     objecttolerance="10"
     gridtolerance="10"
     guidetolerance="10"
     inkscape:pageopacity="0"
     inkscape:pageshadow="2"
     inkscape:window-width="1284"
     inkscape:window-height="841"
     id="namedview51"
     showgrid="false"
     inkscape:lockguides="true"
     inkscape:zoom="1.9265306"
     inkscape:cx="183.28136"
     inkscape:cy="107.45727"
     inkscape:window-x="2029"
     inkscape:window-y="110"
     inkscape:window-maximized="0"
     inkscape:current-layer="Layer_1" /><style
     type="text/css"
     id="style2">
	.st0{fill:#5080D0;}
	.st1{opacity:0.12;}
	.st2{fill:#FFFFFF;}
	.st3{opacity:0.45;}
	.st4{opacity:0.8;}
</style><rect
     x="-0.0053495504"
     class="st0"
     width="238.20535"
     height="245"
     id="rect4"
     y="8.9126786e-09"
     style="fill:#5080d0"
     ry="23.560013"
     rx="27.314035" /><g
     class="st1"
     id="g20"><rect
       y="220"
       class="st2"
       width="238"
       height="4"
       id="rect6" /><rect
       y="192"
       class="st2"
       width="238"
       height="4"
       id="rect8" /><rect
       y="164"
       class="st2"
       width="238"
       height="4"
       id="rect10" /><rect
       y="108"
       class="st2"
       width="238"
       height="4"
       id="rect12" /><rect
       y="80"
       class="st2"
       width="238"
       height="4"
       id="rect14" /><rect
       y="52"
       class="st2"
       width="238"
       height="4"
       id="rect16" /><rect
       y="24"
       class="st2"
       width="238"
       height="4"
       id="rect18" /></g><g
     class="st1"
     id="g36"><rect
       x="24"
       y="-1"
       class="st2"
       width="4"
       height="246"
       id="rect22" /><rect
       x="51.5"
       y="-1"
       class="st2"
       width="4"
       height="246"
       id="rect24" /><rect
       x="79"
       y="-1"
       class="st2"
       width="4"
       height="246"
       id="rect26" /><rect
       x="106.5"
       y="-1"
       class="st2"
       width="4"
       height="246"
       id="rect28" /><rect
       x="134"
       y="-1"
       class="st2"
       width="4"
       height="246"
       id="rect30" /><rect
       x="189"
       y="-1"
       class="st2"
       width="4"
       height="246"
       id="rect32" /><rect
       x="216.5"
       y="-1"
       class="st2"
       width="4"
       height="246"
       id="rect34" /></g><g
     class="st3"
     id="g42"><rect
       x="162.5"
       class="st2"
       width="4"
       height="245"
       id="rect38" /><rect
       y="136"
       class="st2"
       width="238"
       height="4"
       id="rect40" /></g><g
     class="st4"
     id="g48"><path
       class="st2"
       d="M178.8,118l0,1c-0.1,25.8-15.4,49.1-39,59.4c-8.2,3.6-16.9,5.4-25.8,5.4c-21.4,0-41.4-10.5-53.5-28.2   c-2.4-3.4-4.4-7.1-6-10.9c-1.8-4-3.1-8.3-4-12.6c-6.3-30,9.6-60.6,37.7-72.8c8.2-3.6,16.9-5.4,25.8-5.4c20.7,0,40.2,9.9,52.4,26.6   l-9.7,4.2c-10.3-12.9-26.2-20.5-42.7-20.5c-7.5,0-14.8,1.5-21.7,4.5C69.3,78.7,56,102.9,60,127.5c0.7,4.5,2,8.9,3.8,13.1   c1.7,3.9,3.9,7.7,6.5,11.1l0.5,0.6l131.2-56.9l-0.2-0.8c-1.2-4.2-2.6-8.2-4.2-12c-1.8-4.1-3.9-8.1-6.3-11.9   c-16.5-26.5-46.1-42.9-77.4-42.9c-12.5,0-24.7,2.5-36.2,7.6C57.5,44,41.2,59.8,31.7,79.6c-9.4,19.6-11.4,41.9-5.8,62.8   c1.2,4.4,2.7,8.6,4.4,12.7c1.7,3.8,3.6,7.6,5.9,11.3C52.6,193.3,82.4,210,114,210c12.5,0,24.7-2.5,36.2-7.5   c33.2-14.4,54.8-47.2,54.8-83.4l0-1L178.8,118z M113.9,68.4c15.5,0,30.4,7.3,39.9,19.5l1.5,2l17.4-7.5l-2.2-3.2   c-12.9-18.4-34-29.3-56.5-29.3c-9.5,0-18.7,1.9-27.4,5.7c-29.9,13-46.8,45.6-40.1,77.5c1,4.6,2.4,9.1,4.3,13.4   c1.8,4,3.9,7.9,6.4,11.6c12.9,18.8,34.2,30,57,30c9.5,0,18.7-1.9,27.4-5.7c24-10.4,40.2-33.9,41.5-60.1l17.9,0   c-1.3,33.3-21.7,63.2-52.3,76.4c-11,4.8-22.6,7.2-34.5,7.2c-30.1,0-58.5-15.9-74.2-41.6c-2.2-3.5-4-7.2-5.6-10.8   c-1.7-3.9-3.1-8-4.2-12.2c-5.4-19.9-3.4-41.2,5.6-59.9c9-18.9,24.6-33.9,43.8-42.3c11-4.8,22.6-7.2,34.5-7.2   c29.8,0,58.1,15.7,73.8,40.9c2.3,3.7,4.3,7.5,6,11.4c1.2,2.8,2.3,5.8,3.3,8.8L72.2,147.2c-1.8-2.6-3.3-5.4-4.6-8.3   c-1.7-3.9-2.9-8-3.5-12.1c-3.7-22.7,8.6-45,29.7-54.2C100.2,69.9,107,68.4,113.9,68.4z"
       id="path44" /><path
       class="st0"
       d="M113.8,27.7c31.3,0,60.9,16.4,77.4,42.9c2.4,3.8,4.5,7.9,6.3,11.9c1.7,3.8,3.1,7.9,4.2,12l0.2,0.8L70.8,152.4   l-0.5-0.6c-2.6-3.5-4.8-7.2-6.5-11.1c-1.8-4.2-3.1-8.6-3.8-13.1c-4-24.6,9.3-48.8,32.2-58.7c6.9-3,14.2-4.5,21.7-4.5   c16.5,0,32.4,7.7,42.7,20.5l9.7-4.2C154.1,63.9,134.6,54,113.9,54c-8.9,0-17.6,1.8-25.8,5.4c-28.1,12.2-44,42.8-37.7,72.8   c0.9,4.3,2.2,8.5,4,12.6c1.6,3.8,3.7,7.4,6,10.9c12.1,17.6,32.1,28.2,53.5,28.2c8.9,0,17.5-1.8,25.8-5.4c23.7-10.3,39-33.6,39-59.4   l0-1l26.2,0l0,1c-0.1,36.3-21.6,69-54.8,83.4c-11.5,5-23.7,7.5-36.2,7.5c-31.6,0-61.3-16.7-77.8-43.6c-2.3-3.7-4.2-7.5-5.9-11.3   c-1.8-4.1-3.3-8.4-4.4-12.7c-5.6-20.9-3.5-43.2,5.8-62.8C41.2,59.8,57.5,44,77.6,35.3C89.2,30.3,101.4,27.7,113.8,27.7 M114,205.8   c11.9,0,23.5-2.4,34.5-7.2c30.6-13.3,51-43.2,52.3-76.4l-17.9,0c-1.3,26.1-17.5,49.6-41.5,60.1c-8.7,3.8-18,5.7-27.4,5.7   c-22.8,0-44.1-11.2-57-30c-2.5-3.7-4.7-7.5-6.4-11.6c-1.9-4.3-3.3-8.8-4.3-13.4c-6.7-31.9,10.2-64.5,40.1-77.5   c8.8-3.8,18-5.7,27.4-5.7c22.5,0,43.6,11,56.5,29.3l2.2,3.2l-17.4,7.5l-1.5-2c-9.5-12.2-24.4-19.5-39.9-19.5   c-6.9,0-13.6,1.4-20,4.2c-21.2,9.2-33.4,31.5-29.7,54.2c0.7,4.2,1.9,8.2,3.5,12.1c1.3,2.9,2.8,5.7,4.6,8.3l124.7-54.1   c-0.9-3-2-6-3.3-8.8c-1.7-3.9-3.7-7.7-6-11.4c-15.7-25.3-44-40.9-73.8-40.9c-11.9,0-23.5,2.4-34.5,7.2   c-19.2,8.3-34.8,23.4-43.8,42.3c-8.9,18.7-10.9,40-5.6,59.9c1.1,4.2,2.5,8.3,4.2,12.2c1.6,3.6,3.5,7.3,5.6,10.8   C55.4,189.9,83.8,205.8,114,205.8 M113.8,26.2c-12.7,0-25.1,2.6-36.8,7.7c-20.5,8.9-37.1,24.9-46.7,45   c-9.5,19.9-11.6,42.6-5.9,63.8c1.2,4.4,2.7,8.8,4.5,12.9c1.7,3.9,3.7,7.7,6,11.5c16.7,27.3,47,44.3,79,44.3   c12.7,0,25.1-2.6,36.8-7.7c33.8-14.7,55.7-48,55.7-84.8l0-1l0-1.5l-1.5,0l-26.2,0l-1.5,0l0,1.5l0,1c-0.1,25.2-15,48-38.1,58   c-8,3.5-16.5,5.3-25.2,5.3c-20.9,0-40.5-10.3-52.3-27.5c-2.3-3.4-4.3-6.9-5.9-10.6c-1.7-3.9-3-8.1-3.9-12.3   c-6.1-29.3,9.3-59.2,36.8-71.1c8-3.5,16.5-5.3,25.2-5.3c19.5,0,38.1,9.1,50,24.4l-6.9,3c-10.6-12.7-26.6-20.2-43.1-20.2   c-7.7,0-15.2,1.6-22.3,4.6c-23.5,10.2-37.1,35-33.1,60.3c0.7,4.6,2.1,9.2,3.9,13.5c1.8,4,4,7.9,6.7,11.4l0.5,0.6l0.7,0.9l1.1-0.5   l131.2-56.9l1.2-0.5l-0.3-1.3l-0.2-0.8c-1.2-4.2-2.6-8.3-4.3-12.2c-1.8-4.1-3.9-8.2-6.4-12.1C175.7,43,145.6,26.2,113.8,26.2   L113.8,26.2z M114,204.3c-29.6,0-57.5-15.6-72.9-40.8c-2.1-3.5-4-7-5.5-10.6c-1.7-3.8-3.1-7.8-4.2-12c-5.3-19.6-3.3-40.5,5.5-58.9   C45.7,63.5,61,48.7,79.9,40.5c10.8-4.7,22.3-7.1,34-7.1c29.3,0,57.1,15.4,72.5,40.2c2.2,3.6,4.2,7.4,5.9,11.2c1,2.4,2,4.9,2.8,7.4   L72.8,145.3c-1.4-2.2-2.7-4.6-3.7-7c-1.6-3.8-2.8-7.7-3.4-11.8C62,104.5,73.9,82.9,94.4,74c6.2-2.7,12.7-4.1,19.4-4.1   c15,0,29.5,7.1,38.7,18.9l1.5,2l0.7,0.9l1.1-0.5l17.4-7.5l1.7-0.7l-1.1-1.5l-2.2-3.2c-13.2-18.8-34.8-30-57.7-30   c-9.7,0-19.1,2-28,5.8c-30.6,13.3-47.8,46.6-41,79.1c1,4.7,2.4,9.3,4.3,13.6c1.8,4.1,4,8.1,6.5,11.8c13.1,19.2,34.9,30.6,58.2,30.6   c9.7,0,19.1-2,28-5.8c24-10.4,40.5-33.8,42.3-59.9l14.9,0c-1.8,32-21.8,60.8-51.3,73.6C137.1,201.9,125.7,204.3,114,204.3   L114,204.3z"
       id="path46" /></g></svg>