<?xml version="1.0" encoding="UTF-8" standalone="no"?>
<svg viewBox="0 0 442 442" xmlns="http://www.w3.org/2000/svg">
<g transform="translate(-258,-116.36218)">
<path d="m588,485.36218a221,221 0 1,1 -442,0 221,221 0 1,1 442,0z" fill-rule="evenodd" transform="translate(112,-148)"/>
<path d="m676.98587,271.99393c-29.65459-3.14053-70.58008,25.02037-78.02113,46.95535 4.25964,9.54135 1.84227,19.09812-2.40845,21.89576-5.41513,3.50488-11.14789,3.63208-10.58451,10.29502 .178,9.5848-1.34897,19.85583-9.76056,32.84364l-4.05634-37.96604c3.83221-12.59852 6.54764-24.92844-2.40845-34.14934 .45898-19.09604 1.74011-38.3622-8.93662-57.25038-11.3631-20.10252-29.15824-46.97209-60.92112-61.8873-59.61838-27.99559-186.74796,12.1261-224.15767,61.24941 38.0492-78.67277 168.22394-100.4885 211.98233-85.598 8.26587-21.09325 34.85276-16.63811 48.75214-11.09767-19.05588-1.49161-31.6836,3.86517-32.53313,15.78219l15.50284,7.30211c6.56484-10.11103 15.59883-7.06207 21.91398-4.90756-6.27155.55559-13.19868,4.2967-11.3324,12.57253 22.16684,12.15675 33.15518,38.23563 42.96205,53.025 8.74645-12.42625 14.23506-25.58862 37.39436-34.75199-4.49645-33.5665-39.73112-53.61442-82.90141-70.15681 50.97032,10.39814 95.22112,29.31804 109.71127,85.62446-35.9525-1.76572-43.48413,20.83732-54.44366,40.52724 13.7449-16.21737 37.71271-21.51171 43.03521-14.76457-16.22653,2.99267-30.90289,17.06514-29.72535,24.80849 18.38028-13.39575 43.10709-23.05217 54.9507-17.12489-21.40247,1.62384-42.45775,22.72474-50.38732,34.14934 39.1309-22.54076 69.07613-25.15669 76.37324-17.37599zm-85.30986,57.35082c.01249-.23794 0-.45879 0-.70308 4e-005-2.99241-.98942-5.593-2.34507-6.62899-.11133-.08202-.26407-.19014-.38028-.2511l-.12676-.05022c-.08882-.03747-.22582-.07572-.31691-.10044l-.19014-.05022c-.0464-.00684-.14327.00346-.19014,0h-.12676-.06338c-.04701.00232-.14359-.00572-.19014,0-.03093.00457-.09605-.00604-.12676,0l-.19014.05022-.12676.05022-.19014.10044c-.02919.01456-.09786.03431-.12676.05022-1.50995.87063-2.59859,3.62371-2.59859,6.82987s1.08864,5.90903 2.59859,6.77965c.08672.04775.22768.11527.3169.15066l.12676.05022 .19014.05022c.03071.00604.09583-.00457.12676,0 .04655.00572.14313.0479.19014.05022h.06338c.0946,0 .22411-.03653.3169-.05022l.19014-.05022c.09109-.02472.22809-.06296.31691-.10044l.12676-.05022c.07263-.0381.18275-.10425.25352-.15066l.12676-.10044c1.24499-.95141 2.20458-3.19896 2.34507-5.87569z" fill="#fff" fill-rule="evenodd"/>
<path d="m564.85899,323.46987c2.00963,5.58987-.40529,13.51695-4.87424,22.52904 12.17271,22.78958 6.22608,34.81147 1.62475,47.63284 9.20689.81502 18.41379-3.17808 27.62068-10.94267-4.63297,8.36641-12.299,20.99029-38.18154,21.88536-10.53764-7.93882-8.66369-15.87762-11.37322-23.81643l10.56086,10.29899c12.901-13.0577 7.86347-29.27398 1.62474-45.70177 5.09876-6.08108 10.02879-12.42951 12.99797-21.88536z" fill="#fff" fill-rule="evenodd"/>
<path d="m533.17646,391.057c-14.62507-13.0342-19.76181-27.94792-17.05985-44.4144 3.18184,6.08816 5.6662,13.00529 12.99797,14.16112-6.80789-13.73199 5.33106-28.75136-8.12373-43.12703 6.10988.77705 11.48631,5.04098 15.4351,16.09217 17.82945-27.45376-7.27038-59.22814-38.18154-53.42601-.45973-5.89801 30.04446-15.28679 51.99187,4.5058-10.44268-11.62928-24.66443-40.04752-63.44364-43.7869-9.92694-.95723-65.41512,5.36961-80.59252,20.16404l-20.33549-13.09967c13.68664-11.51421 75.02923-20.98199 96.91328-21.81717 38.16546-1.42534 50.01084,19.75885 64.20888,32.79222 17.87374,16.40756 13.51052,31.75522 13.81033,47.63284-2.71485,27.84908-24.23948,34.95162-27.62066,84.32299z" fill="#fff" fill-rule="evenodd"/>
<path d="m506.91824,214.31187c-43.43104-36.94676-151.09101,5.09544-173.29946,17.09422-28.91219,15.62067-55.63204,40.21237-71.22255,68.58502-15.55967,89.45132 29.86825,174.117 87.48428,214.44025 80.51058,56.34627 182.101,56.91155 258.42138-.0566 48.60773-36.28247 79.44394-85.78523 89.11949-146.3522 3.2163,55.17815-173.86424,127.03375-230.33674,103.41436 75.11679-12.85235 89.56046-28.79167 100.33674-40.45839-51.60144-4.36842-111.86103-30.88711-95.2956-90.20125 16.0831-57.58711-28.22446-99.73803-82.94339-91.30818 17.63965-25.42115 58.50026-42.33832 117.73585-35.15723z" fill="#fff" fill-rule="evenodd"/>
<path d="m279.90103,405.69265c29.65459,3.14053 70.58008-25.02037 78.02113-46.95535-4.25964-9.54135-1.84227-19.09812 2.40845-21.89576 5.41513-3.50488 11.14789-3.63208 10.58451-10.29502-.178-9.5848 1.34897-19.85583 9.76056-32.84364l4.05634,37.96604c-3.83221,12.59852-6.54764,24.92844 2.40845,34.14934-.45898,19.09604-1.74011,38.3622 8.93662,57.25038 11.3631,20.10252 29.15824,46.97209 60.92112,61.8873 59.61838,27.99559 186.74796-12.1261 224.15767-61.24941-38.0492,78.67277-168.22394,100.4885-211.98233,85.598-8.26587,21.09325-34.85276,16.63811-48.75214,11.09767 18.22175-1.32102 29.74399-4.28566 32.53313-15.78219l-15.50284-7.30211c-6.56484,10.11103-15.50033,6.17561-21.81548,4.0211 10.41643-1.4533 12.65935-4.34998 11.15801-10.65427-21.01395-13.28705-33.07929-39.26743-42.88616-54.0568-8.74645,12.42625-14.23506,25.58862-37.39436,34.75199 4.49645,33.5665 39.73112,53.61442 82.90141,70.15681-50.97032-10.39814-95.22112-29.31804-109.71127-85.62446 35.9525,1.76572 43.48413-20.83732 54.44366-40.52724-13.7449,16.21737-37.71271,21.51171-43.03521,14.76457 16.22653-2.99267 30.90289-17.06514 29.72535-24.80849-18.38028,13.39575-43.10709,23.05217-54.9507,17.12489 21.40247-1.62384 42.45775-22.72474 50.38732-34.14934-39.1309,22.54076-69.07613,25.15669-76.37324,17.37599zm85.30986-57.35082c-.01249.23794 0,.45879 0,.70308-4e-005,2.99241.98942,5.593 2.34507,6.62899 .11133.08202.26407.19014.38028.2511l.12676.05022c.08882.03747.22582.07572.31691.10044l.19014.05022c.0464.00684.14327-.00346.19014,0h.12676 .06338c.04701-.00232.14359.00572.19014,0 .03093-.00457.09605.00604.12676,0l.19014-.05022 .12676-.05022 .19014-.10044c.02919-.01456.09786-.03431.12676-.05022 1.50995-.87063 2.59859-3.62371 2.59859-6.82987s-1.08864-5.90903-2.59859-6.77965c-.08672-.04775-.22768-.11527-.3169-.15066l-.12676-.05022-.19014-.05022c-.03071-.00604-.09583.00457-.12676,0-.04655-.00572-.14313-.0479-.19014-.05022h-.06338c-.0946,0-.22411.03653-.3169.05022l-.19014.05022c-.09109.02472-.22809.06296-.31691.10044l-.12676.05022c-.07263.0381-.18275.10425-.25352.15066l-.12676.10044c-1.24499.95141-2.20458,3.19896-2.34507,5.87569z" fill-rule="evenodd"/>
<path d="m392.02791,354.21671c-2.00963-5.58987.40529-13.51695 4.87424-22.52904-12.17271-22.78958-6.22608-34.81147-1.62475-47.63284-9.20689-.81502-18.41379,3.17808-27.62068,10.94267 4.63297-8.36641 12.299-20.99029 38.18154-21.88536 10.53764,7.93882 8.66369,15.87762 11.37322,23.81643l-10.56086-10.29899c-12.901,13.0577-7.86347,29.27398-1.62474,45.70177-5.09876,6.08108-10.02879,12.42951-12.99797,21.88536z" fill-rule="evenodd"/>
<path d="m423.71044,286.62958c14.62507,13.0342 19.76181,27.94792 17.05985,44.4144-3.18184-6.08816-5.6662-13.00529-12.99797-14.16112 6.80789,13.73199-5.33106,28.75136 8.12373,43.12703-6.10988-.77705-11.48631-5.04098-15.4351-16.09217-17.82945,27.45376 7.27038,59.22814 38.18154,53.42601 .45973,5.89801-30.04446,15.28679-51.99187-4.5058 10.44268,11.62928 24.66443,40.04752 63.44364,43.7869 9.92694.95723 65.41512-5.36961 80.59252-20.16404l20.33549,13.09967c-13.68664,11.51421-75.02923,20.98199-96.91328,21.81717-38.16546,1.42534-50.01084-19.75885-64.20888-32.79222-17.87374-16.40756-13.51052-31.75522-13.81033-47.63284 2.71485-27.84908 24.23948-34.95162 27.62066-84.32299z" fill-rule="evenodd"/>
</g>
</svg>
