<?xml version="1.0" encoding="UTF-8" standalone="no"?>
<svg viewBox="0 0 115.7068 136.76947" xmlns="http://www.w3.org/2000/svg" xmlns:xlink="http://www.w3.org/1999/xlink">
<defs>
<linearGradient id="linearGradient3173-31-2">
<stop offset="0" stop-color="#a5a5a5"/>
<stop offset="1"/>
</linearGradient>
<linearGradient gradientUnits="userSpaceOnUse" id="linearGradient19237" x1="90.68662" x2="94.99912">
<stop offset="0" stop-color="#ffb142"/>
<stop offset="1" stop-color="#c87600"/>
</linearGradient>
<linearGradient gradientUnits="userSpaceOnUse" id="linearGradient19243" x1="76.61352" x2="73.74194" y1="57.83332" y2="65.14462">
<stop offset="0" stop-color="#cdcdcd"/>
<stop offset="1" stop-color="#fff"/>
</linearGradient>
<linearGradient gradientUnits="userSpaceOnUse" id="linearGradient19245" x1="76.61352" x2="67.56145" y1="57.60122" y2="63.28778">
<stop offset="0" stop-color="#f0f0f0"/>
<stop offset="1" stop-color="#fff"/>
</linearGradient>
<linearGradient gradientUnits="userSpaceOnUse" id="linearGradient19247" x1="59.32175" x2="88.5669" y1="67.1175" y2="65.14462">
<stop offset="0" stop-color="#dcdcdc"/>
<stop offset="1" stop-color="#f0f0f0"/>
</linearGradient>
<radialGradient cx="414.68207" cy="-8.88047" gradientTransform="matrix(-1.8232002e-6,.27968,-.60927,0,101.72623,-39.26045)" gradientUnits="userSpaceOnUse" id="radialGradient19233" r="123.54523">
<stop offset="0" stop-color="#ffb142"/>
<stop offset=".8868" stop-color="#ffb141"/>
<stop offset="1" stop-color="#c87600"/>
</radialGradient>
<radialGradient cx="610.45734" cy="483.44724" gradientTransform="matrix(0,-.48219,.40012,-1.2541889e-6,-27.60859,940.80519)" gradientUnits="userSpaceOnUse" id="radialGradient19235" r="167.56416" xlink:href="#linearGradient3173-31-2"/>
<radialGradient cx="371.45444" cy="647.68732" gradientTransform="matrix(0,-.74351,-.66041,0,552.03191,582.13395)" gradientUnits="userSpaceOnUse" id="radialGradient19239" r="59.2546" xlink:href="#linearGradient3173-31-2"/>
<radialGradient cx="380.25662" cy="622.48694" gradientTransform="matrix(0,-.74351,.66041,0,-364.70066,582.13395)" gradientUnits="userSpaceOnUse" id="radialGradient19241" r="59.2546" xlink:href="#linearGradient3173-31-2"/>
</defs>
<g transform="translate(-142.85867,-658.68525)">
<g transform="matrix(.92642,0,0,1,112.44916,389.45884)">
<path d="m81.78118,385.54273c-15.66752,1.61282-33.63754,14.29091-26.49499,17.05577s27.87304,3.91808 31.78992.69241c2.01274-1.65755 5.61385-5.80874 6.03825-9.70397 .42497,3.89491 4.01553,8.04658 6.02807,9.70397 3.91689,3.22567 24.65756,2.07245 31.8001-.69241s-10.82746-15.44295-26.49499-17.05577c-8.06777.77761-10.96962,3.4884-11.33318,6.59829-.36356-3.10989-3.26541-5.82068-11.33318-6.59829z" fill="url(#radialGradient19233)" fill-rule="evenodd" stroke="#000" stroke-width="1.56388"/>
<path d="m81.78374,385.54738c-7.69001.79161-15.92746,4.249-21.48518,7.89147 8.4173,3.89278 18.70904,6.29179 29.86542,6.56775 1.42955-1.88088 2.71021-4.18714 2.95294-6.41501 .24081,2.20701 1.49144,4.49272 2.90203,6.3641 10.97308-.4646 21.05151-2.98006 29.25446-6.9445-5.53778-3.48361-13.43193-6.70294-20.82331-7.46381-8.06777.77762-10.96962,3.4884-11.33318,6.59829-.36356-3.10989-3.26541-5.82068-11.33318-6.59829z" fill-opacity=".3137" fill-rule="evenodd"/>
</g>
<path d="m248.69061,729.68423a49.9783,53.94769 0 0,1 -99.95661,0 49.9783,53.94769 0 1,1 99.95661,0z" fill="url(#radialGradient19235)" stroke="#000" stroke-linecap="round" stroke-width="1.50525"/>
<path d="m223.4164,756.65806a24.22903,26.15335 0 1,1 -48.45805,0 24.22903,26.15335 0 1,1 48.45805,0z" fill="#fff" stroke="#000" stroke-linecap="round" stroke-width="1.56813"/>
<path d="m248.23037,729.76417c0,7.04647-1.29267,14.08968-3.77421,20.59909s-6.15221,12.47982-10.73532,17.46155-10.07532,8.97087-16.06268,11.66689-12.46532,4.09671-18.94586,4.09671-12.95835-1.40074-18.94571-4.09671-11.47957-6.68512-16.06283-11.66689-8.25379-10.95217-10.73533-17.46155-3.71391-13.55288-3.7742-20.59909c-.0603-7.04285.95323-14.60597 3.82747-21.11564 4.39807,8.12472 11.02533,14.87777 18.89395,19.13317 3.93431,2.1277 8.16319,3.75725 12.54736,4.87419s9.37433,22.1141 14.10842,24.1556c3.98818-2.03401 8.49785-22.72981 12.9462-23.72127s8.77349-2.5245 12.83615-4.61359c8.12533-4.17818 15.20077-10.58058 20.11225-19.32302 2.47955,6.5137 3.76661,13.56099 3.76434,20.61056z" fill="#fff" stroke="#000" stroke-linecap="round" stroke-width="1.559"/>
<path d="m199.64786,764.37387c.73473-.0403 1.36691.1186 1.88855-.52632 3.78671,4.41682 4.58491,8.48658 4.42567,12.44516-.46932,2.02173-.39677,3.54213-.35111,5.08739-2.28971-1.41216-3.46407-3.0706-3.61678-5.62512 .0774-.82601-1.20404-2.5194-2.01956-3.30018 .85233-1.52993.25032-3.39208-.003-4.18692-.46828-2.13205-.41583-2.51964-.90221-3.93935zm-2.95439-.75286 .18628.14147c.0406,1.69538-.62428,2.89004-2.0969,4.11825-.66688.41362-2.88768,3.77323-1.34312,6.92818 1.34436,1.78501 1.46883,2.95731 1.75407,4.21036 .85513-1.61414 2.61227-4.19871 3.48691-4.85048 1.04183-1.70656 2.66921-3.16139 1.22784-5.93547-.34448-2.30788-.6228-2.87254-.9205-3.94784-.768-.21317-1.57711-.31729-2.29458-.66447zm1.35781-6.81255c-1.54523.39993-2.74915.40971-2.01152,2.41482 .17395.6675.31147,1.35148-.12757,2.29627-.7627,1.89413 1.04904,2.41383 3.19374,2.6938 1.52681.37296 3.36966.0279 3.39504-3.47332-.55974-2.31174-.89152-4.8706-4.44967-3.93157z" fill="#232361" stroke="#000" stroke-linecap="round" stroke-linejoin="round" stroke-width=".60703"/>
<path d="m198.39286,757.18361c5.13271,3.75135 18.8708-17.10675 28.81128-25.97579 10.61887-5.05029 14.19506-12.56745 19.42598-17.66829-1.05099-3.04832-.8214-1.86602-1.49619-4.21307-4.9391,6.95968-12.94031,19.99581-34.97703,24.15945-3.36692,4.26444-6.62622,16.93242-11.76404,23.6977z" fill="#232361" stroke="#000"/>
<path d="m199.41143,757.18361c-5.13271,3.75135-18.8708-17.10675-28.81128-25.97579-10.61887-5.05029-14.61402-12.34161-19.84494-17.44245 .86753-3.40098 1.30361-3.09355 1.98484-5.18807 4.9391,6.95968 12.87062,20.74497 34.90734,24.90861 3.36692,4.26444 6.62622,16.93242 11.76404,23.6977z" fill="#232361" stroke="#000"/>
<path d="m199.68146,756.84792c5.18774-.27246 23.35284-24.33446 27.02382-26.535 9.61971-4.7675 13.83688-11.03681 19.31243-17.63079" fill="none" stroke="#fff" stroke-linecap="round" stroke-linejoin="round" stroke-width=".4"/>
<path d="m199.59217,756.10515c5.23931-.78467 22.88438-24.08313 26.51202-26.23445 9.32322-4.44209 14.33337-11.49789 19.80892-18.09187" fill="none" stroke="#fff" stroke-linecap="round" stroke-linejoin="round" stroke-width=".4"/>
<path d="m199.98992,755.33484c6.09613-2.898 21.95433-23.75169 25.54725-25.97742 9.39612-4.31984 14.5396-11.55303 20.01365-18.14801" fill="none" stroke="#fff" stroke-linecap="round" stroke-linejoin="round" stroke-width=".4"/>
<g transform="matrix(-1,0,0,1,397.81387,0)">
<path d="m199.20795,756.81635c5.7097-.0488 23.83769-24.29803 27.49733-26.50343 9.61971-4.7675 14.15255-11.44718 19.6281-18.04116" fill="none" stroke="#fff" stroke-linecap="round" stroke-linejoin="round" stroke-width=".4"/>
<path d="m199.59217,756.10515c5.23931-.78467 22.88438-24.08313 26.51202-26.23445 9.32271-4.44209 14.42814-11.63995 19.98254-18.23393" fill="none" stroke="#fff" stroke-linecap="round" stroke-linejoin="round" stroke-width=".4"/>
<path d="m199.98992,755.33484c6.09613-2.898 21.95433-23.75169 25.54725-25.97742 9.39612-4.31984 14.74479-11.74243 20.21884-18.33741" fill="none" stroke="#fff" stroke-linecap="round" stroke-linejoin="round" stroke-width=".4"/>
</g>
<path d="m197.59375,754.125-.46875.0937c-.34542.21691.84331,1.7581 1.625,2.90625l.28125-.0313v.0937h1c-.1176-.23261-.33322-.46603-.53125-.71875 .16902-.14733 1.17514-1.79981 1.3125-2.03125l-.5625.15625-.34375-.0313-.6875,1.46875-.53125-.25-1.09375-1.65625z"/>
<path d="m152.43058,708.64059 1.06284.0676c-.28971.81253-1.84679,5.73372-1.81702,5.91415l-1.11836-1.72445z"/>
<path d="m244.15953,710.66723c.44252.90372 1.25184,2.89897 1.43392,4.18589l1.29415-1.64966c-.4337-1.02536-.78995-2.07009-1.10486-3.12515z"/>
<path d="m246.72339,714.6848c.10145,1.40269.16037,2.81547.16037,4.24612 0,29.77912-22.39921,53.94714-49.98724,53.94714-22.76684,0-41.98143-16.4592-48.00623-38.94825 2.01022,27.79451 23.5548,49.70103 49.81743,49.70103 27.58803,0 49.98724-24.16802 49.98724-53.94715 0-5.2041-.69574-10.23653-1.97157-14.99889z" fill-opacity=".3137"/>
<g transform="matrix(.92642,0,0,1,113.46324,389.45884)">
<path d="m81.25168,304.32672c-7.47309,0-13.54279,6.9841-13.54279,15.58948s6.0697,15.58948 13.54279,15.58948c4.39173,0 8.28894-2.41465 10.76295-6.15026 2.47384,3.73832 6.37954,6.15026 10.77313,6.15026 7.47309,0 13.54279-6.98411 13.5428-15.58948s-6.06971-15.58948-13.5428-15.58948c-4.39308,0-8.29924,2.41268-10.77313,6.15026-2.47406-3.7348-6.37178-6.15026-10.76295-6.15026z" fill="#fff" stroke="#000" stroke-linecap="round" stroke-width="1.62921"/>
<path d="m92.66203,331.21506c-4.71786,0-9.84597,4.2966-9.64084,7.01024s8.4101,14.02048 10.25621,14.02048 9.02547-11.0807 8.82034-14.24662-6.35885-7.01024-9.43571-6.7841z" fill-opacity=".3137" fill-rule="evenodd"/>
<path d="m91.91737,328.497c-4.71786,0-9.84597,3.89736-9.64085,6.35885s8.4101,12.71771 10.25622,12.71771 9.02547-10.05109 8.82035-12.92283-6.35886-6.35885-9.43572-6.15373z" fill="url(#linearGradient19237)" fill-rule="evenodd" stroke="#000" stroke-width="1.62921"/>
<path d="m89.6477,322.66274a3.38455,3.38455 0 0,1 -6.7691,0 3.38455,3.38455 0 1,1 6.7691,0z" stroke="#000" stroke-linecap="round" stroke-width="1.62921"/>
<path d="m101.76333,322.66274a3.38455,3.38455 0 1,1 -6.7691,0 3.38455,3.38455 0 1,1 6.7691,0z" stroke="#000" stroke-linecap="round" stroke-width="1.62921"/>
</g>
<g transform="matrix(.92642,0,0,1,111.93845,389.45884)">
<path d="m135.69223,328.16301c-15.67663,5.63707 4.61504,30.67561-12.32305,52.52299-3.13081,4.03823 18.85579.68126 26.62868-21.69618 7.55898-21.76158.36897-35.04071-14.30563-30.82681z" fill="#fff" fill-rule="evenodd" stroke="#000" stroke-width="1.62921"/>
<path d="m135.69223,328.16301c-15.67663,5.63707 13.87706,33.27614-12.32305,52.52299-7.37264,5.41601 18.85579.68126 26.62868-21.69618 7.55898-21.76158.36897-35.04071-14.30563-30.82681z" fill="url(#radialGradient19239)" fill-rule="evenodd" stroke="#000" stroke-width="1.62921"/>
</g>
<g transform="matrix(.98914,0,0,1,142.78162,8.81909)">
<path d="m96.01051,708.8455c-8.62579,3.39914-5.67958,13.63888-4.93127,26.06153 2.26959-1.28537 20.27749,4.61224 21.01526-6.26916 1.60309-15.07546-4.95195-23.29555-16.08399-19.79237z" fill="#fff" fill-rule="evenodd" stroke="#000" stroke-width="1.60496"/>
<path d="m100.82228,708.20106-.3867.009c5.01528,4.3901 5.1509,20.97779 3.32557,27.42821 2.86709.87529.44849.41978 6.0633-1.45078 6.2261-19.37685-.33004-26.48988-9.00217-25.98794z" fill-opacity=".3137" fill-rule="evenodd"/>
<path d="m90.55515,729.60681c.17599,1.85803.35216,3.79114.47197,5.78021 2.26959-1.28537 20.27748,4.61224 21.01526-6.26916 .0872-.82004.15026-1.6198.18976-2.39849-2.15516,4.98555-22.25084-.77864-21.677,2.88744z" fill="#232361" fill-rule="evenodd" stroke="#000" stroke-width="1.60496"/>
</g>
<g transform="matrix(.92642,0,0,1,111.93845,389.45884)">
<path d="m51.63901,328.16301c15.67663,5.63707-4.61503,30.67561 12.32305,52.52299 3.13081,4.03823-18.85579.68126-26.62868-21.69618-7.55897-21.76158-.36897-35.04071 14.30563-30.82681z" fill="#fff" fill-rule="evenodd" stroke="#000" stroke-width="1.62921"/>
<path d="m51.63901,328.16301c15.67663,5.63707-13.87706,33.27614 12.32305,52.52299 7.37264,5.41601-18.85579.68126-26.62868-21.69618-7.55897-21.76158-.36897-35.04071 14.30563-30.82681z" fill="url(#radialGradient19241)" fill-rule="evenodd" stroke="#000" stroke-width="1.62921"/>
</g>
<g fill="#cf0" transform="matrix(.30239,0,0,.33603,142.89966,673.59966)">
<path d="m55.7364,131.04476c28.13122,10.11554 18.52277,40.58805 16.08228,77.55673-7.40176-3.82513-66.1308,13.72559-68.53689-18.65646-5.22813-44.86319 16.14975-69.32541 52.45461-58.90027z" fill="#fff" fill-rule="evenodd" stroke="#000" stroke-width="5"/>
</g>
<g fill="#232361" transform="matrix(.30239,0,0,.33603,142.89966,673.59963)">
<path d="m73.35793,191.40012c-.57395,5.52931-1.14848,11.28207-1.53925,17.20137-7.40177-3.82513-66.1308,13.72559-68.53689-18.65646-.28439-2.44036-.49005-4.82036-.61887-7.13767 7.02861,14.83653 72.56649-2.31716 70.69501,8.59276z" fill="#232361" fill-rule="evenodd" stroke="#000" stroke-width="5"/>
</g>
<path d="m238.90937,690.24332c-5.46421-1.43717 16.70224,6.37745 16.82641,14.50942-4.04334-2.77186-4.19516-3.31046-4.85575-3.64503 .49867.57561 1.07198,2.68454.5693,5.95102-5.54519-12.16483-11.36973-11.83754-15.16081-15.2119 1.6333.24276 1.38003-.54224 2.62085-1.60351z" fill="#232361" stroke="#000" stroke-linecap="round" stroke-linejoin="round" stroke-width="1.05635"/>
<path d="m238.0341,690.46435c7.34743,2.21413 11.54558,11.38742 20.00522,9.39896-3.6683-.81837-4.46547-1.92054-5.90872-3.05779 1.59371-.18842 2.68647.30522 5.61297-1.60411-10.65882-.0694-9.64639-3.16711-17.10792-7.89848-2.96889,1.40822-1.27354,2.0017-2.60155,3.16142z" fill="#232361" stroke="#000" stroke-linecap="round" stroke-linejoin="round" stroke-width="1.0523"/>
<path d="m198.58644,658.781c-8.32069.75226-14.4045,2.10048-19.55699,5.44176-8.65749.41496-16.15148,1.87331-22.56485,4.51923 0,0 7.45863,20.46386 14.19667,22.05016 7.59135,2.67466 56.47672,8.26308 65.56716,3.71894 7.9739-3.62099 10.48213-12.92435 14.33292-19.74597-6.83382-2.61124-13.50399-4.02217-23.93563-6.08627-1.9664-2.52679-4.98059-4.67054-9.74898-6.5171-6.5865-2.55063-13.05874-3.85372-18.2903-3.38075z" fill-rule="evenodd"/>
<g transform="matrix(2.45938,-.32073,.32073,2.45938,2.5616,547.29036)">
<path d="m55.76398,56.94154c0,0 1.72244,7.96628 4.5214,9.04281s21.09989,5.81323 24.76007,4.73671 5.81323-5.59793 6.67445-6.67445c-5.81323-3.01427-25.40598-9.90403-35.95593-7.10506z" fill="url(#linearGradient19243)" fill-rule="evenodd"/>
<path d="m59.20886,60.81703c0,0 7.47379-10.28681 20.17678-3.39705 6.29129,3.41223 3.72206,8.34906 3.50676,9.42559s-22.17641-2.15305-23.68354-6.02854z" fill="url(#linearGradient19245)" fill-rule="evenodd"/>
<path d="m55.76398,56.94154c0,0 1.72244,7.96628 4.5214,9.04281s21.09989,5.81323 24.76007,4.73671 5.81323-5.59793 6.67445-6.67445c-6.45915,1.93775-30.5733-4.5214-35.95593-7.10506z" fill="url(#linearGradient19247)" fill-rule="evenodd"/>
</g>
<g transform="matrix(.04707,.01492,-.01368,.04317,235.88631,646.45905)">
<path d="m155.58929,769.59938c-13.69813,0-24.81249,11.11436-24.8125,24.8125 0,11.29767 7.5715,20.81583 17.90625,23.8125v10.15625h-3.0625c-2.30097,0-4.21495,1.59496-4.6875,3.75h-32.03125c-1.58928-5.82343-5.52165-9.96877-10.125-9.96875-6.0069,0-10.90625,7.03201-10.90625,15.6875s4.89934,15.68753 10.90625,15.6875c4.66881,0 8.64373-4.26404 10.1875-10.21875h31.96875c.48255,2.14141 2.39616,3.75001 4.6875,3.75h1.125c-3.39215,38.93602.0289,93.70302-11.875,95.21875-13.37632,1.09095-40.05363-27.20245-38.25-29.3125 1.78821-.89412 7.26597-.61037 8.5625-.53125l8.125-6.5625-40.40625-20.6875 2.28125,51.5 .84375-.6875c4.02399-5.56962 9.21899-14.46916 9.96875-15.71875 3.51926,10.27384 11.58788,21.25622 18.34375,30.5625 11.36421,14.89975 42.51617,32.04639 72.71875,20.46875 28.71218-8.27881 35.26726-35.1146 48.59375-50.78125 .67078,1.11793 4.89008,8.37056 8.65625,13.875l3.03125,2.34375 1.1875-51.5625-39.96875,21.5625 7.34375,5.6875c1.17679-.0734 6.8096-.37645 8.625.53125 2.91516,4.93424-20.14985,22.6827-24.59375,25.5-17.67767,8.58629-19.20097,2.04745-20.96875-5.78125-1.5572-6.89617-4.32842-69.97913-5-85.625h1.59375c2.29134,0 4.20495-1.60858 4.6875-3.75h31.96875c1.54377,5.95471 5.51867,10.21877 10.1875,10.21875 6.0069,0 10.90628-7.03195 10.90625-15.6875s-4.89937-15.68753-10.90625-15.6875c-4.60336,0-8.53572,4.14533-10.125,9.96875h-32.03125c-.47255-2.15505-2.38654-3.75-4.6875-3.75h-3.0625v-10.15625c10.33475-2.99668 17.90626-12.51483 17.90625-23.8125 0-13.69813-11.11438-24.8125-24.8125-24.8125zm0,11c7.62386-1e-005 13.8125,6.18864 13.8125,13.8125s-6.18864,13.8125-13.8125,13.8125-13.8125-6.18864-13.8125-13.8125 6.18864-13.8125 13.8125-13.8125z" fill="#232361" fill-rule="evenodd" stroke="#000" stroke-width="1.6242"/>
</g>
<path d="m157.14286,668.96932c54.0289,12.68355 70.75175,8.55311 92.32143,6.60715" fill="none" stroke="#000" stroke-width="1.1"/>
<path d="m171.97847,672.03975c14.47715-21.01874 57.43504-13.7098 57.07362,5.42957" fill="none" stroke="#000" stroke-width="1.2"/>
</g>
</svg>
