<?xml version="1.0" encoding="UTF-8" standalone="no"?>
<svg viewBox="0 0 142.04453 119.28495" xmlns="http://www.w3.org/2000/svg" xmlns:xlink="http://www.w3.org/1999/xlink">
<defs>
<linearGradient id="linearGradient3173-31-2-84">
<stop offset="0" stop-color="#a5a5a5"/>
<stop offset="1"/>
</linearGradient>
<linearGradient gradientTransform="matrix(.29919,-.06818,.07325,.31749,386.91921,-341.91523)" gradientUnits="userSpaceOnUse" id="linearGradient8485" x1="346.23685" x2="359.4718">
<stop offset="0" stop-color="#ffb142"/>
<stop offset="1" stop-color="#c87600"/>
</linearGradient>
<linearGradient id="linearGradient11719-7-9-6">
<stop offset="0" stop-opacity="0"/>
<stop offset=".6" stop-opacity="0"/>
<stop offset="1"/>
</linearGradient>
<linearGradient id="linearGradient3436-5-3-7">
<stop offset="0" stop-color="#fff"/>
<stop offset="1" stop-color="#fff" stop-opacity="0"/>
</linearGradient>
<linearGradient gradientUnits="userSpaceOnUse" id="linearGradient8521" x1="95.30961" x2="102.08133" y1="184.3858" y2="105.54237">
<stop offset="0" stop-opacity=".6784"/>
<stop offset=".57" stop-opacity=".3294"/>
<stop offset="1" stop-opacity="0"/>
</linearGradient>
<linearGradient gradientUnits="userSpaceOnUse" id="linearGradient8525" spreadMethod="reflect" x1="150.68303" x2="89.96874">
<stop offset="0" stop-color="#fff"/>
<stop offset="0" stop-color="#bf9e15"/>
<stop offset="1" stop-color="#fae79f"/>
</linearGradient>
<linearGradient gradientUnits="userSpaceOnUse" id="linearGradient8527" x1="145.77586" x2="92.91872" y1="30.68562" y2="64.38197">
<stop offset="0" stop-color="#bf9e15" stop-opacity=".6637"/>
<stop offset="1" stop-color="#fae79f" stop-opacity=".8761"/>
</linearGradient>
<linearGradient gradientUnits="userSpaceOnUse" id="linearGradient8515" x1="-274.36396" x2="175.75019" xlink:href="#linearGradient3436-5-3-7"/>
<linearGradient gradientUnits="userSpaceOnUse" id="linearGradient8517" x2="0" xlink:href="#linearGradient3436-5-3-7" y1="-759.91001" y2="683.46143"/>
<linearGradient gradientUnits="userSpaceOnUse" id="linearGradient8529" x1="304.50592" x2="82.82829" xlink:href="#linearGradient3436-5-3-7" y1="663.35463" y2="436.00751"/>
<radialGradient cx="414.68207" cy="-8.88047" gradientTransform="matrix(-1.8232002e-6,.27968,-.60927,0,645.5606,-529.04885)" gradientUnits="userSpaceOnUse" id="radialGradient8499" r="123.54523">
<stop offset="0" stop-color="#ffb142"/>
<stop offset=".8868" stop-color="#ffb141"/>
<stop offset="1" stop-color="#c87600"/>
</radialGradient>
<radialGradient cx="610.45734" cy="483.44724" gradientTransform="matrix(0,-.48219,.4319,-1.2541889e-6,-151.96816,551.34635)" gradientUnits="userSpaceOnUse" id="radialGradient8407" r="167.56416" xlink:href="#linearGradient3173-31-2-84"/>
<radialGradient cx="380.25662" cy="622.48694" gradientTransform="matrix(0,-.74351,.66041,0,-364.70066,582.13395)" gradientUnits="userSpaceOnUse" id="radialGradient8503" r="59.2546" xlink:href="#linearGradient3173-31-2-84"/>
<radialGradient cx="371.45444" cy="647.68732" gradientTransform="matrix(0,-.74351,-.66041,0,552.03191,582.13395)" gradientUnits="userSpaceOnUse" id="radialGradient8413" r="59.2546" xlink:href="#linearGradient3173-31-2-84"/>
<radialGradient cx="505.31256" cy="340.95706" gradientTransform="matrix(4.67797,-1.25346,1.06604,3.97852,-2624.14,-578.831)" gradientUnits="userSpaceOnUse" id="radialGradient8505" r="17.92188" xlink:href="#linearGradient11719-7-9-6"/>
<radialGradient cx="499.6232" cy="357.74594" gradientTransform="matrix(7.01293,-.55582,1.71104,21.5886,-4040.79,-7234.93)" gradientUnits="userSpaceOnUse" id="radialGradient8507" r="13.04688" xlink:href="#linearGradient11719-7-9-6"/>
<radialGradient cx="507.58319" cy="332.63242" gradientTransform="matrix(5.75144,-1.54109,1.06604,3.97852,-3169.02,-432.832)" gradientUnits="userSpaceOnUse" id="radialGradient8509" r="17.92188" xlink:href="#linearGradient11719-7-9-6"/>
<radialGradient cx="504.93213" cy="332.63242" gradientTransform="matrix(-3.59866e-6,-5.95433,3.78874,0,-1155.35,3130.63)" gradientUnits="userSpaceOnUse" id="radialGradient8511" r="17.92188" xlink:href="#linearGradient11719-7-9-6"/>
<radialGradient cx="508.92856" cy="327.40497" gradientTransform="matrix(2.15301,-4.4202,4.87987,2.37692,-2608.69,1573.97)" gradientUnits="userSpaceOnUse" id="radialGradient8513" r="17.92188" xlink:href="#linearGradient11719-7-9-6"/>
<radialGradient cx="506.72284" cy="326.56235" gradientTransform="matrix(0,-2.62678,3.55925,2.0394e-6,-1051.55,1462.06)" gradientUnits="userSpaceOnUse" id="radialGradient8519" r="17.92188" xlink:href="#linearGradient11719-7-9-6"/>
<radialGradient cx="521.02045" cy="324.50958" gradientTransform="matrix(0,-2.55165,3.45746,1.98108e-6,-1017.03,1425.98)" gradientUnits="userSpaceOnUse" id="radialGradient8523" r="17.92188" xlink:href="#linearGradient11719-7-9-6"/>
</defs>
<g transform="translate(-458.21125,250.10927)">
<path d="m625.625-104.25c-15.66752,1.61282-33.64255,14.29764-26.5,17.0625s27.86437,3.91317 31.78125.6875c2.01274-1.65755 5.60685-5.79227 6.03125-9.6875 .007.06343.0227.12395.0313.1875v-1.8125c-.008.05349-.025.10251-.0313.15625-.36355-3.10989-3.24473-5.81614-11.3125-6.59375z" fill="url(#radialGradient8499)" fill-rule="evenodd" stroke="#000" stroke-width="1.56388" transform="matrix(.94378,-.03988,.06781,.99494,-55.10012,-22.86282)"/>
<path d="m625.625-104.25c-7.69001.79161-15.94228,4.26378-21.5,7.90625 8.4173,3.89278 18.71863,6.28654 29.875,6.5625 1.42956-1.88088 2.69477-4.17838 2.9375-6.40625 .006.05313.0243.10304.0313.15625v-1.78125c-.008.05349-.025.10251-.0313.15625-.36355-3.10989-3.24474-5.81614-11.3125-6.59375z" fill-opacity=".3137" fill-rule="evenodd" transform="matrix(.94378,-.03988,.06781,.99494,-55.10012,-22.86282)"/>
<path d="m625.625-104.25c-15.66752,1.61282-33.64255,14.29764-26.5,17.0625s27.86437,3.91317 31.78125.6875c2.01274-1.65755 5.60685-5.79227 6.03125-9.6875 .007.06343.0227.12395.0313.1875v-1.8125c-.008.05349-.025.10251-.0313.15625-.36355-3.10989-3.24473-5.81614-11.3125-6.59375z" fill="url(#radialGradient8499)" fill-rule="evenodd" stroke="#000" stroke-width="1.56388" transform="matrix(-.83783,.42994,.45618,.88989,1125.76976,-335.27689)"/>
<path d="m625.625-104.25c-7.69001.79161-17.57714,5.92154-23.13486,9.56401 8.4173,3.89278 20.35349,4.62878 31.50986,4.90474 1.42956-1.88088 2.69477-4.17838 2.9375-6.40625 .006.05313.0243.10304.0313.15625v-1.78125c-.008.05349-.025.10251-.0313.15625-.36355-3.10989-3.24474-5.81614-11.3125-6.59375z" fill-opacity=".3137" fill-rule="evenodd" transform="matrix(-.83783,.42994,.45618,.88989,1125.76976,-335.27689)"/>
<g transform="matrix(.9182,-.20923,.22481,.97437,370.03768,-507.79275)">
<path d="m146.27531,340.22539a53.94769,53.94769 0 0,1 -107.89538,0 53.94769,53.94769 0 1,1 107.89538,0z" fill="url(#radialGradient8407)" stroke="#000" stroke-linecap="round" stroke-width="1.56388"/>
<path d="m118.99377,367.19922a26.15335,26.15335 0 1,1 -52.30669,0 26.15335,26.15335 0 1,1 52.30669,0z" fill="#fff" stroke="#000" stroke-linecap="round" stroke-width="1.62921"/>
<path d="m144.15185,325.22596c.10951,1.40269.1731,2.81547.1731,4.24612 0,29.77912-24.1782,53.94714-53.95732,53.94714-24.57503,0-45.31569-16.4592-51.81899-38.94825 2.16988,27.79451 25.42557,49.70103 53.77404,49.70103 29.77913,0 53.95732-24.16802 53.95732-53.94715 0-5.2041-.75099-10.23653-2.12815-14.99889z" fill-opacity=".3137"/>
</g>
<path d="m513.05808-228.26533c-6.8618,1.56362-10.86492,9.63873-8.93037,18.02358s9.07785,13.92 15.93964,12.35638c4.0325-.91889 7.06808-4.08709 8.49994-8.24461 3.11188,3.12491 7.24033,4.65783 11.27452,3.73855 6.8618-1.56362 10.86492-9.63873 8.93038-18.02358s-9.07786-13.92-15.93966-12.35638c-4.03372.91918-7.07797,4.08733-8.50927,8.24675-3.1113-3.12144-7.2332-4.65947-11.26518-3.74069z" fill="#fff" stroke="#000" stroke-linecap="round" stroke-width="1.58101"/>
<path d="m528.53329-204.23809c-4.18822,1.48906-7.34467,7.16913-6.28093,9.66955s12.02113,10.59893 13.66,10.01626 4.41217-13.32307 3.20148-16.25103-7.92258-4.61968-10.58055-3.43478z" fill-opacity=".3137" fill-rule="evenodd"/>
<path d="m528.28499-206.94605c-4.33194.98713-8.16442,5.85758-7.42271,8.21308s10.5812,10.63212 12.27631,10.24586 6.02763-11.68194 5.19369-14.43717-7.26822-4.86542-10.04729-4.02177z" fill="url(#linearGradient8485)" fill-rule="evenodd" stroke="#000" stroke-width="1.58101"/>
<path d="m524.88939-212.15592a3.38455,3.18726 75.7932 1,1 -6.21539,1.41632 3.38455,3.18726 75.7932 0,1 6.21539-1.41632z" stroke="#000" stroke-linecap="round" stroke-width="1.58101"/>
<path d="m533.97176-218.65321a3.38455,3.18726 75.7932 1,1 -6.21538,1.41632 3.38455,3.18726 75.7932 1,1 6.21538-1.41632z" stroke="#000" stroke-linecap="round" stroke-width="1.58101"/>
<g transform="matrix(.68494,.69381,-.64692,.71957,672.61566,-476.44504)">
<path d="m51.63901,328.16301c15.67663,5.63707-4.61503,30.67561 12.32305,52.52299 3.13081,4.03823-18.85579.68126-26.62868-21.69618-7.55897-21.76158-.36897-35.04071 14.30563-30.82681z" fill="#fff" fill-rule="evenodd" stroke="#000" stroke-width="1.62921"/>
<path d="m51.63901,328.16301c15.67663,5.63707-13.87706,33.27614 12.32305,52.52299 7.37264,5.41601-18.85579.68126-26.62868-21.69618-7.55897-21.76158-.36897-35.04071 14.30563-30.82681z" fill="url(#radialGradient8503)" fill-rule="evenodd" stroke="#000" stroke-width="1.62921"/>
</g>
<g transform="matrix(.75333,-.5791,.57108,.81106,279.61364,-393.64908)">
<path d="m135.69223,328.16301c-15.67663,5.63707 4.61504,30.67561-12.32305,52.52299-3.13081,4.03823 18.85579.68126 26.62868-21.69618 7.55898-21.76158.36897-35.04071-14.30563-30.82681z" fill="#fff" fill-rule="evenodd" stroke="#000" stroke-width="1.62921"/>
<path d="m135.69223,328.16301c-15.67663,5.63707 13.87706,33.27614-12.32305,52.52299-7.37264,5.41601 18.85579.68126 26.62868-21.69618 7.55898-21.76158.36897-35.04071-14.30563-30.82681z" fill="url(#radialGradient8413)" fill-rule="evenodd" stroke="#000" stroke-width="1.62921"/>
</g>
<g transform="matrix(.11622,-.0295,.03132,.12341,451.39705,-225.77511)">
<path d="m104.9517,226.38526c-42.32054,0-77.93144,32.18104-76.69326,71.83069l7.50724,240.40225c.59536,19.0654 31.03645,34.5503 69.18602,34.5503s68.50535-15.4849 69.10071-34.5503l7.50724-240.40225c1.23819-39.64965-34.28744-71.83064-76.60795-71.83069z" fill="#008080"/>
<g transform="matrix(1.09571,0,0,1.05576,-61.0962,75.4683)">
<path d="m114.5513,45.6283c22.23082,24.95474 61.68039,21.22721 72.12489-1.41421l15.55634-77.78174-101.57891-1.37661 13.89768,80.57256z" fill-rule="evenodd"/>
<path d="m151.54387-62.32352c28.14586-4.5e-005 50.97822,11.66303 50.97822,26.12635s-22.83232,26.26607-50.97822,26.26607-50.97819-11.80274-50.97819-26.26607 22.83232-26.12635 50.97819-26.12635z"/>
</g>
<path d="m573.90625,361.6875c-3.60055-1e-005-6.88133.70629-9.46875,2s-4.8125,3.40103-4.8125,6.34375v5c1e-005,2.51125 1.61685,4.40232 3.71875,5.71875-.30298,4.65348-.5,9.62874-.5,14.96875 1e-005,.84626.0131,1.61627.0313,2.40625-6.30879,3.53926-10.76516,9.91592-10.53125,17.40625l1.875,60.09375c.11364,3.64003 2.89116,6.40785 6.4375,8.1875s8.15787,2.78125 13.25,2.78125 9.70366-1.0016 13.25-2.78125 6.32384-4.54748 6.4375-8.1875l1.875-60.09375c.234-7.49259-4.225-13.86794-10.53125-17.40625 .0181-.78987.0313-1.55985.0313-2.40625 3e-005-5.40754-.22249-10.45636-.53125-15.15625 2.0413-1.30695 3.75-3.06224 3.75-5.53125v-5c-1e-005-2.94272-2.22508-5.05004-4.8125-6.34375s-5.8682-2-9.46875-2z" transform="matrix(4.06259,0,0,4.01185,-2227.08,-1366.24)"/>
<path d="m104.95271,92.62508c-26.20116,0-47.5667,10.68289-47.5667,23.78351v20.05416c-4.2e-005,6.85027 5.84479,12.99483 15.16501,17.31965-1.44471,19.9051-2.23745,42.00731-2.23745,65.38347 0,5.00576.09319,9.94882.16574,14.83359-25.44357,11.79013-43.05849,36.10052-42.18025,64.22332l7.4582,240.40259c.59531,19.06562 31.04586,34.55635 69.19546,34.55635s68.51728-15.49073 69.11264-34.55635l7.45825-240.40259c.8785-28.13047-16.75063-52.43689-42.1803-64.22332 .0721-4.88477.16578-9.82783.16578-14.83359 0-23.3751-.80161-45.47882-2.23746-65.38347 .40715-.18941.84945-.38381 1.24297-.58012 8.59588-4.28751 13.922-10.18924 13.922-16.73953v-20.05416c-5e-005-13.10057-21.28266-23.78351-47.48388-23.78351z" fill="#32a3a3"/>
<path d="m104.9517,226.38526c-42.32054,0-77.93144,32.18104-76.69326,71.83069l7.50724,240.40225c.59536,19.0654 31.03645,34.5503 69.18602,34.5503s68.50535-15.4849 69.10071-34.5503l7.50724-240.40225c1.23819-39.64965-34.28744-71.83064-76.60795-71.83069z" fill="#008080"/>
<path d="m29.16973,348.65269 5.61394,186.70154c.40576,13.44628 10.32649,23.66561 22.98907,30.23966s29.1435,10.2535 47.32548,10.2535 34.63482-3.67946 47.29741-10.2535 22.58322-16.79344 22.98906-30.23966l5.55781-183.60354c-7.19048,14.11752-38.20951,24.75642-75.31096,24.75642-39.77114,0-72.5236-12.22114-76.4618-27.85442z" fill="#88232d"/>
<path d="m585.48441,390.99435c0,30.07037-37.35674,54.44722-83.4386,54.44722s-83.4386-24.37685-83.4386-54.44722 37.35673-54.44722 83.4386-54.44722 83.4386,24.37686 83.4386,54.44722z" fill="#8a4e49" transform="matrix(.91474,0,0,.67222,-354.60347,86.06515)"/>
<path d="m104.95048,92.62379c-26.20115-6e-005-47.56667,10.68278-47.56667,23.78329v20.05427c-6e-005,13.10063 21.36561,23.70047 47.56667,23.70047s47.48381-10.59984 47.48381-23.70047v-20.05427c-5e-005-13.10045-21.28264-23.78329-47.48381-23.78329zm0,3.89483c17.15742-5.9e-005 31.07579,6.91779 31.07579,15.49644s-13.91835,15.57932-31.07579,15.57932-31.07579-7.00062-31.07579-15.57932 13.91835-15.49644 31.07579-15.49644z" fill="url(#radialGradient8505)"/>
<path d="m72.54879,153.69801c-1.44839,19.92606-2.23746,42.05875-2.23746,65.4664 0,5.0057.09322,9.94882.16575,14.83348 10.42857-4.83238 22.17017-7.6239 34.4734-7.6239s23.97735,2.79746 34.39054,7.6239c.072-4.88466.16574-9.82778.16574-14.83348-2e-005-23.3751-.80158-45.47882-2.23745-65.38347-8.47227,3.93513-19.82347,6.38088-32.31883,6.38088-12.53199,0-23.89672-2.50813-32.40169-6.46381z" fill="url(#radialGradient8507)"/>
<path d="m104.95048,92.62379c-26.20115-6e-005-47.56667,10.68278-47.56667,23.78329v20.05427c-6e-005,13.10063 21.36561,23.70047 47.56667,23.70047s47.48381-10.59984 47.48381-23.70047v-20.05427c-5e-005-13.10045-21.28264-23.78329-47.48381-23.78329zm0,3.89483c17.15742-5.9e-005 31.07579,6.91779 31.07579,15.49644s-13.91835,15.57932-31.07579,15.57932-31.07579-7.00062-31.07579-15.57932 13.91835-15.49644 31.07579-15.49644z" fill="url(#radialGradient8509)"/>
<path d="m104.95048,92.62379c-26.20115-6e-005-47.56667,10.68278-47.56667,23.78329v20.05427c-6e-005,13.10063 21.36561,23.70047 47.56667,23.70047s47.48381-10.59984 47.48381-23.70047v-20.05427c-5e-005-13.10045-21.28264-23.78329-47.48381-23.78329zm0,3.89483c17.15742-5.9e-005 31.07579,6.91779 31.07579,15.49644s-13.91835,15.57932-31.07579,15.57932-31.07579-7.00062-31.07579-15.57932 13.91835-15.49644 31.07579-15.49644z" fill="url(#radialGradient8511)"/>
<path d="m104.95048,92.62379c-26.20115-6e-005-47.56667,10.68278-47.56667,23.78329v20.05427c-6e-005,13.10063 21.36561,23.70047 47.56667,23.70047s47.48381-10.59984 47.48381-23.70047v-20.05427c-5e-005-13.10045-21.28264-23.78329-47.48381-23.78329zm0,3.89483c17.15742-5.9e-005 31.07579,6.91779 31.07579,15.49644s-13.91835,15.57932-31.07579,15.57932-31.07579-7.00062-31.07579-15.57932 13.91835-15.49644 31.07579-15.49644z" fill="url(#radialGradient8513)"/>
<path d="m57.88102,113.25809c-.13822.57922-.24721,1.15542-.33148,1.74216-.08786.61168-.16573,1.26808-.16573,1.89376v17.57339c-6e-005,11.97478 21.36561,21.66375 47.56667,21.66375s47.48381-9.68897 47.48381-21.66375v-17.57339c0-.62563-.0778-1.28208-.16573-1.89376-.0844-.58674-.19374-1.16294-.33148-1.74216-3.2234,13.11535-23.02949,23.17878-46.9866,23.17878s-43.83517-10.06287-47.06946-23.17878z" fill="#008080"/>
<path d="m72.54879,153.69801c-1.44839,19.92606-2.23746,42.05875-2.23746,65.4664 0,5.0057.09322,9.94882.16575,14.83348 10.42857-4.83238 22.17017-7.6239 34.4734-7.6239s23.97735,2.79746 34.39054,7.6239c.072-4.88466.16574-9.82778.16574-14.83348-2e-005-23.3751-.80158-45.47882-2.23745-65.38347-8.47227,3.93513-19.82347,6.38088-32.31883,6.38088-12.53199,0-23.89672-2.50813-32.40169-6.46381z" fill="#008080"/>
<path d="m89.08695,157.42718c-1.38862,18.96341-2.13245,39.75265-2.13245,61.73723 2.6e-005,5.0057.00022,9.94882.07897,14.83348-27.63228,11.79007-46.76142,36.10047-45.80762,64.22332l7.0291,193.16716c12.26137,5.86715 29.44756,10.31779 49.44064,12.43027l-6.08135-205.59743c-.62429-22.71729 9.44038-43.01921 25.1152-56.18501l-2.29038-81.95727c-1.36969.0655-2.78384.0829-4.18587.0829-7.64883,0-14.83497-.97835-21.16625-2.73464z" fill="url(#linearGradient8515)"/>
<path d="m85.92778,156.43276c-.98918,19.22326-1.50061,40.36852-1.50061,62.73165 3.4e-005,5.0057.02491,9.94882.07898,14.83348-18.97731,11.79007-32.08857,36.10047-31.4335,64.22332l4.81769,246.20318c8.42084,5.86715 20.22997,10.31779 33.96084,12.43027l-4.18587-258.63345c-.42868-22.71729 6.45216-43.01921 17.21735-56.18501l-1.57958-82.2058c-6.30458-.51036-12.20354-1.67296-17.37531-3.39764z" fill="url(#linearGradient8517)"/>
<path d="m104.95048,96.51862c17.15742-5.9e-005 31.07579,6.91779 31.07579,15.49644s-13.91835,15.57932-31.07579,15.57932-31.07579-7.00062-31.07579-15.57932 13.91835-15.49644 31.07579-15.49644z" fill="url(#radialGradient8519)"/>
<path d="m104.95048,96.51862c17.15742-5.9e-005 31.07579,6.91779 31.07579,15.49644s-13.91835,15.57932-31.07579,15.57932-31.07579-7.00062-31.07579-15.57932 13.91835-15.49644 31.07579-15.49644z" fill="url(#linearGradient8521)"/>
<path d="m104.95048,96.51862c17.15742-5.9e-005 31.07579,6.91779 31.07579,15.49644s-13.91835,15.57932-31.07579,15.57932-31.07579-7.00062-31.07579-15.57932 13.91835-15.49644 31.07579-15.49644z" fill="url(#radialGradient8523)"/>
<path d="m73.75981,113.0614c13.29973,21.89293 59.07533,19.86345 63.27556-1.24069l13.64766-68.23836-89.24091-.72359 12.31769,70.20263z" fill="url(#linearGradient8525)" fill-rule="evenodd"/>
<path d="m106.21359,18.35469c24.69252-4e-005 44.72348,10.23204 44.72348,22.92079s-20.03092,23.04336-44.72348,23.04336-44.72344-10.35461-44.72344-23.04336 20.03092-22.92079 44.72344-22.92079z" fill="#654100"/>
<path d="m106.21359,18.41782c24.69252-4e-005 44.72348,10.23204 44.72348,22.92079s-20.03092,23.04336-44.72348,23.04336-44.72344-10.35461-44.72344-23.04336 20.03092-22.92079 44.72344-22.92079z" fill="url(#linearGradient8527)"/>
</g>
</g>
</svg>
