<?xml version="1.0" encoding="UTF-8" standalone="no"?>
<svg viewBox="0 0 491.92993 580.27753" xmlns="http://www.w3.org/2000/svg" xmlns:xlink="http://www.w3.org/1999/xlink">
<defs>
<filter id="filter5151">
<feGaussianBlur stdDeviation="3.8085"/>
</filter>
<filter id="filter5167">
<feGaussianBlur stdDeviation="9.5213"/>
</filter>
<filter height="1.02688" id="filter5247" width="3.92938" x="-1.46469" y="-.01344">
<feGaussianBlur stdDeviation=".5793"/>
</filter>
<filter height="1.34891" id="filter5682" width="1.13244" x="-.06622" y="-.17445">
<feGaussianBlur stdDeviation="30.0889"/>
</filter>
<filter height="1.71097" id="filter8169" width="1.18057" x="-.09029" y="-.35549">
<feGaussianBlur stdDeviation="1.2709"/>
</filter>
<linearGradient id="linearGradient3173-31-2">
<stop offset="0" stop-color="#a5a5a5"/>
<stop offset="1"/>
</linearGradient>
<linearGradient gradientUnits="userSpaceOnUse" id="linearGradient45471-4" x1="90.68662" x2="94.99912">
<stop offset="0" stop-color="#ffb142"/>
<stop offset="1" stop-color="#c87600"/>
</linearGradient>
<linearGradient gradientTransform="matrix(-.13244,.00365,.00365,.13244,539.9367,653.02288)" gradientUnits="userSpaceOnUse" id="linearGradient8645" x1="2815.8911" x2="2810.6924" y1="-1179.4006" y2="-932.97162">
<stop offset="0" stop-color="#1a1a1a"/>
<stop offset="1" stop-color="#1a1a1a" stop-opacity="0"/>
</linearGradient>
<linearGradient gradientTransform="matrix(-.13244,.00365,.00365,.13244,396.5327,582.45239)" gradientUnits="userSpaceOnUse" id="linearGradient8647" x1="1696.6569" x2="1762.3301" y1="845.33344" y2="846.75726">
<stop offset="0"/>
<stop offset="1" stop-opacity="0"/>
</linearGradient>
<linearGradient gradientUnits="userSpaceOnUse" id="linearGradient8649" x1="-94.73359" x2="-48.85651" y1="534.07439" y2="535.01817">
<stop offset="0" stop-color="#fff"/>
<stop offset="1" stop-color="#fff" stop-opacity="0"/>
</linearGradient>
<linearGradient gradientTransform="matrix(-.13244,.00365,.00365,.13244,397.92279,584.7999)" gradientUnits="userSpaceOnUse" id="linearGradient8651" x1="1773.2422" x2="1789.8384" y1="1392.6489" y2="-587.03583">
<stop offset="0" stop-color="#221c24"/>
<stop offset="1" stop-color="#221c24" stop-opacity="0"/>
</linearGradient>
<radialGradient cx="414.68207" cy="-8.88047" gradientTransform="matrix(-1.8232002e-6,.27968,-.60927,0,101.72623,-39.26045)" gradientUnits="userSpaceOnUse" id="radialGradient4802-5" r="123.54523">
<stop offset="0" stop-color="#ffb142"/>
<stop offset=".8868" stop-color="#ffb141"/>
<stop offset="1" stop-color="#c87600"/>
</radialGradient>
<radialGradient cx="610.45734" cy="483.44724" gradientTransform="matrix(0,-.48219,.4319,-1.2541889e-6,-151.96816,551.34635)" gradientUnits="userSpaceOnUse" id="radialGradient45478-7" r="167.56416" xlink:href="#linearGradient3173-31-2"/>
<radialGradient cx="371.45444" cy="647.68732" gradientTransform="matrix(0,-.74351,-.66041,0,552.03191,582.13395)" gradientUnits="userSpaceOnUse" id="radialGradient45461-5" r="59.2546" xlink:href="#linearGradient3173-31-2"/>
<radialGradient cx="380.25662" cy="622.48694" gradientTransform="matrix(0,-.74351,.66041,0,-364.70066,582.13395)" gradientUnits="userSpaceOnUse" id="radialGradient7793" r="59.2546" xlink:href="#linearGradient3173-31-2"/>
</defs>
<g transform="translate(-113.34824,-180.92387)">
<path d="m399.7237,315.57331c40.75406-.2116 68.66417.2696 102.1343-7.8021 22.09058-5.3274 45.54993-2.4556 45.54993-2.4556-.10257.1171 5.95311-1.1981 2.86163,2.5039-7.74354,9.2727-23.48296,23.4109-51.26999,28.8828-67.42268,7.0249-134.04925,7.1214-200.18589,2.9534-16.1495-.7856-27.7589-9.893-38.9291-19.3792-9.86386-8.3768-13.89318-20.9574 5.9006-15.1476 19.43577,5.7048 93.18447,10.656 133.93852,10.4444z" stroke="#000" stroke-width="6.1179"/>
<g transform="matrix(3.2774,0,0,3.68208,97.24585,-802.38907)">
<path d="m81.78118,385.54273c-15.66752,1.61282-33.63754,14.29091-26.49499,17.05577s27.87304,3.91808 31.78992.69241c2.01274-1.65755 5.61385-5.80874 6.03825-9.70397 .42497,3.89491 4.01553,8.04658 6.02807,9.70397 3.91689,3.22567 24.65756,2.07245 31.8001-.69241s-10.82746-15.44295-26.49499-17.05577c-8.06777.77761-10.96962,3.4884-11.33318,6.59829-.36356-3.10989-3.26541-5.82068-11.33318-6.59829z" fill="url(#radialGradient4802-5)" fill-rule="evenodd" stroke="#000" stroke-width="1.56388"/>
<path d="m81.78374,385.54738c-7.69001.79161-15.92746,4.249-21.48518,7.89147 8.4173,3.89278 18.70904,6.29179 29.86542,6.56775 1.42955-1.88088 2.71021-4.18714 2.95294-6.41501 .24081,2.20701 1.49144,4.49272 2.90203,6.3641 10.97308-.4646 21.05151-2.98006 29.25446-6.9445-5.53778-3.48361-13.43193-6.70294-20.82331-7.46381-8.06777.77762-10.96962,3.4884-11.33318,6.59829-.36356-3.10989-3.26541-5.82068-11.33318-6.59829z" fill-opacity=".3137" fill-rule="evenodd"/>
</g>
<g transform="matrix(3.2774,0,0,3.68208,97.24585,-802.38907)">
<path d="m146.27531,340.22539a53.94769,53.94769 0 0,1 -107.89538,0 53.94769,53.94769 0 1,1 107.89538,0z" fill="url(#radialGradient45478-7)" stroke="#000" stroke-linecap="round" stroke-width="1.56388"/>
<path d="m118.99377,367.19922a26.15335,26.15335 0 1,1 -52.30669,0 26.15335,26.15335 0 1,1 52.30669,0z" fill="#fff" stroke="#000" stroke-linecap="round" stroke-width="1.62921"/>
<path d="m144.15185,325.22596c.10951,1.40269.1731,2.81547.1731,4.24612 0,29.77912-24.1782,53.94714-53.95732,53.94714-24.57503,0-45.31569-16.4592-51.81899-38.94825 2.16988,27.79451 25.42557,49.70103 53.77404,49.70103 29.77913,0 53.95732-24.16802 53.95732-53.94715 0-5.2041-.75099-10.23653-2.12815-14.99889z" fill-opacity=".3137"/>
</g>
<g transform="matrix(3.2774,0,0,3.68208,97.24585,-802.38907)">
<path d="m81.25168,304.32672c-7.47309,0-13.54279,6.9841-13.54279,15.58948s6.0697,15.58948 13.54279,15.58948c4.39173,0 8.28894-2.41465 10.76295-6.15026 2.47384,3.73832 6.37954,6.15026 10.77313,6.15026 7.47309,0 13.54279-6.98411 13.5428-15.58948s-6.06971-15.58948-13.5428-15.58948c-4.39308,0-8.29924,2.41268-10.77313,6.15026-2.47406-3.7348-6.37178-6.15026-10.76295-6.15026z" fill="#fff" stroke="#000" stroke-linecap="round" stroke-width="1.62921"/>
<path d="m92.66203,331.21506c-4.71786,0-9.84597,4.2966-9.64084,7.01024s8.4101,14.02048 10.25621,14.02048 9.02547-11.0807 8.82034-14.24662-6.35885-7.01024-9.43571-6.7841z" fill-opacity=".3137" fill-rule="evenodd"/>
<path d="m91.91737,328.497c-4.71786,0-9.84597,3.89736-9.64085,6.35885s8.4101,12.71771 10.25622,12.71771 9.02547-10.05109 8.82035-12.92283-6.35886-6.35885-9.43572-6.15373z" fill="url(#linearGradient45471-4)" fill-rule="evenodd" stroke="#000" stroke-width="1.62921"/>
<path d="m89.6477,322.66274a3.38455,3.38455 0 0,1 -6.7691,0 3.38455,3.38455 0 1,1 6.7691,0z" stroke="#000" stroke-linecap="round" stroke-width="1.62921"/>
<path d="m101.76333,322.66274a3.38455,3.38455 0 1,1 -6.7691,0 3.38455,3.38455 0 1,1 6.7691,0z" stroke="#000" stroke-linecap="round" stroke-width="1.62921"/>
</g>
<g transform="matrix(1.93925,2.64209,-2.96833,2.1787,1145.1616,-425.31054)">
<path d="m51.63901,328.16301c15.67663,5.63707-4.61503,30.67561 12.32305,52.52299 3.13081,4.03823-18.85579.68126-26.62868-21.69618-7.55897-21.76158-.36897-35.04071 14.30563-30.82681z" fill="#fff" fill-rule="evenodd" stroke="#000" stroke-width="1.62921"/>
<path d="m51.63901,328.16301c15.67663,5.63707-13.87706,33.27614 12.32305,52.52299 7.37264,5.41601-18.85579.68126-26.62868-21.69618-7.55897-21.76158-.36897-35.04071 14.30563-30.82681z" fill="url(#radialGradient7793)" fill-rule="evenodd" stroke="#000" stroke-width="1.62921"/>
</g>
<g transform="matrix(3.26512,-.28343,.31843,3.66828,-6.92719,-758.07236)">
<path d="m135.69223,328.16301c-15.67663,5.63707 4.61504,30.67561-12.32305,52.52299-3.13081,4.03823 18.85579.68126 26.62868-21.69618 7.55898-21.76158.36897-35.04071-14.30563-30.82681z" fill="#fff" fill-rule="evenodd" stroke="#000" stroke-width="1.62921"/>
<path d="m135.69223,328.16301c-15.67663,5.63707 13.87706,33.27614-12.32305,52.52299-7.37264,5.41601 18.85579.68126 26.62868-21.69618 7.55898-21.76158.36897-35.04071-14.30563-30.82681z" fill="url(#radialGradient45461-5)" fill-rule="evenodd" stroke="#000" stroke-width="1.62921"/>
</g>
<g transform="matrix(1.10296,0,0,1.10296,823.90414,248.28001)">
<path d="m-294.64483,51.06181c-.71204-17.52778 1.79319-34.80445-.13139-53.34586-2.12089-20.43279-15.53527-57.46348-92.86472-56.09046s-88.09236,40.87665-88.20836,58.74424l-.34639,53.35287c62.8919-10.20886 122.27941-8.8554 181.55086-2.66079z" fill="#1a1a1a" stroke="#000" stroke-width="5.31262"/>
<path d="m-478.42811,55.37585-.24782-12.20227c60.0853-15.20866 120.04331-15.8552 186.13158-4.01006l-3.13211,11.59916c-63.28957,17.75025-124.35057,15.63816-182.75165,4.61308v8.8e-005z" fill="#4d4d4d" stroke="#000" stroke-width="5.5"/>
<path d="m-383.08921,54.38081c43.45902-.96334 79.90979-11.52885 108.01098-21.37141 9.30819-3.26022 16.14503.96579 20.64912,6.03808 7.01482,10.06394 8.0974,12.87105 4.7435,12.43102-1.12274-.14731-2.78791-1.02286-4.66131-2.13935-22.76221-.66193-59.70675,17.19481-128.8889,17.39469-35.31669.10198-101.67334-9.66821-124.53736-17.81784-4.5723-1.62975-8.39468,2.18603-9.73118,5.78133-1.07799.02518-3.00519-21.0428 16.29783-16.11564s74.65826,16.76237 118.11729,15.79901l4e-005,.00011h-1e-005z" fill="#333" stroke="#000" stroke-linecap="round" stroke-width="6.68483"/>
</g>
<g transform="matrix(.99495,-.10034,.10034,.99495,-51.20947,21.67835)">
<path d="m147.34375,474.84375c-16.92427-.83265-33.28163,15.6854-30.1875,32.71875 2.11998,5.51967 11.22003,7.06509 13.34375.65625 3.93814-6.59595 13.12606-12.35443 20.09375-6.53125 4.46325,2.45242 5.32252,7.5068 4.59375,12.0625 .17968,10.50278 2.28755,21.77231 1.28125,31.78125-2.02057,1.60964-2.50648.94024-4.25-.65625-4.54713-2.5836-8.62151,3.44565-6.09375,7.40625 .69361,3.01321-.23788,1.56161-1.34375-.125-1.7341-1.86755-4.9756-.27802-6.03125-.125 .42359-4.25815-3.81486-9.54417-8-6.15625-3.46174,2.46821-1.39625,6.37031-.21458,9.23869 12.61315,60.18304 25.24353,120.36249 37.87083,180.54256 4.68863,2.33847 1.26997,8.91621 2.75,13-1.37291,6.356 9.79529,8.07652 9.9375,1.40625 .65037-6.01072-1.09421-12.37484 2.5625-17.59375 9.32616-60.3375 18.42729-121.13715 27.875-181.625 4.94364-4.57585-4.20431-11.83372-7.53125-6.0625-.38373,3.4234-3.83591-1.05584-6.09375,1.125-3.53219,2.45329-2.48551,7.60172-5.5625,10.59375-1.71986-4.01786 1.32065-8.46816-.84375-12.0625-2.51873-3.18973-6.27559-.13567-9.34375-.84375-2.31864-16.58815.0203-34.10347-5.28125-50.125-4.88359-11.43552-17.00744-19.35049-29.53125-18.625z"/>
<g transform="translate(3.57143,-9.28571)">
<g transform="translate(4.04061,48.48732)">
<path d="m170.39591,689.90569-.91309,21.59248c-.51874.59618-1.01097.63283-1.47343.0406l-2.1-21.50951z" fill="#808080"/>
<path d="m163.11347,507.06435c7.1004,27.99246 7.92181,15.88001 11.29872,4.48944l.14568-1.02709c-.36387-.12919-.59483-.52178-.5354-.94206 .0674-.47598.48411-.80968.93209-.74637s.75703.50321.68968.97923c-.0594.4203-.39318.73134-.77861.75457l-.15305,1.06043c3.5183,33.09602 10.91307,11.82645 17.0862,1.97325l.37716-1.19499c-.33716-.18822-.50068-.61256-.3718-1.01698 .14601-.45801.6132-.72112 1.04427-.58377s.66033.62126.51433,1.07931c-.12889.40445-.50621.65838-.8901.61681l-.0877.2758-4.40596,30.8756-46.17716,1.2716-6.6802-25.23958-.52163-1.34421c-.38067.0647-.77352-.16259-.92661-.55851-.17335-.4484.0279-.94681.4499-1.11001s.90122.0688 1.07459.51715c.15308.39592.0141.83167-.31102,1.03991l.36124.93443c13.89349,29.88963 15.15023,11.69516 15.13046-5.57342l-.18634-1.05109c-.38598-.0102-.72933-.30953-.80287-.72758-.0832-.47347.21031-.92131.6559-.9997s.87252.2416.95578.71508c.0735.41807-.14445.8169-.50378.95825l.22583,1.28194c7.87073,24.72188 9.71117,13.09191 12.39037-6.70744z" fill="#4b4b83"/>
<path d="m163.11347,507.06435c7.1004,27.99246 7.92181,15.88001 11.29872,4.48944l.14568-1.02709c-.36387-.12919-.59483-.52178-.5354-.94206 .0674-.47598.48411-.80968.93209-.74637s.75703.50321.68968.97923c-.0594.4203-.39318.73134-.77861.75457l-.15305,1.06043c3.5183,33.09602 10.91307,11.82645 17.0862,1.97325l.37716-1.19499c-.33716-.18822-.50068-.61256-.3718-1.01698 .14601-.45801.6132-.72112 1.04427-.58377s.66033.62126.51433,1.07931c-.12889.40445-.50621.65838-.8901.61681l-.0877.2758-4.40596,30.8756-46.17716,1.2716-6.6802-25.23958-.52163-1.34421c-.38067.0647-.77352-.16259-.92661-.55851-.17335-.4484.0279-.94681.4499-1.11001s.90122.0688 1.07459.51715c.15308.39592.0141.83167-.31102,1.03991l.36124.93443c13.89349,29.88963 15.15023,11.69516 15.13046-5.57342l-.18634-1.05109c-.38598-.0102-.72933-.30953-.80287-.72758-.0832-.47347.21031-.92131.6559-.9997s.87252.2416.95578.71508c.0735.41807-.14445.8169-.50378.95825l.22583,1.28194c7.87073,24.72188 9.71117,13.09191 12.39037-6.70744z" fill="url(#linearGradient8645)" opacity=".5203"/>
<path d="m170.39591,689.90569-.91309,21.59248c-.51874.59618-1.01097.63283-1.47343.0406l-2.1-21.50951z" fill="url(#linearGradient8647)"/>
<g transform="matrix(-1.65495,.04056,.04557,1.47291,54.24775,-233.93334)">
<path d="m-38.74683,458.83537c-5.5262-.56157-14.97519,11.52827-16.53735,18.6569l-3.13225,67.87242h11.38154l1.50913-68.544-.22705.0968c.35204-3.13746 4.38137-7.46903 7.5117-7.46903 3.34223,0 10.50652,1.57054 10.50652,4.91277 1.77341,2.0672 2.14643,6.17813 5.30389,2.47834 0-9.74072-6.57546-18.00419-16.31614-18.00419z" fill="#6b5041"/>
<path d="m-38.74683,458.83537c-9.7407,0-16.52378,8.79355-16.52378,18.53427l-.01691.001-3.12892,67.99357h11.38154l1.48384-68.48269 .01221-.031c.35204-3.13746 4.48419-7.65372 7.61452-7.65372 3.34223,0 10.6566,2.1518 10.6566,5.49403 1.77341,2.0672 1.67956,5.84807 4.83702,2.14828 0-9.74072-6.57546-18.00419-16.31614-18.00419z" fill="url(#linearGradient8649)"/>
<path d="m143.3125,488.75c-16.12041.39508-26.60016,12.84036-26.15625,27.1875 5.39406,5.32141 4.97626,1.27745 7.81696-1.83929 2.43697-3.85136 9.81252-9.06979 15.34375-9.20535 5.49727-.13473 14.78409,6.37243 15.02679,11.28125 .53187,8.92725.96152,17.58648 1.50508,26.51334l16.9101-.85714-1.625-26.1875c-.99766-17.61329-14.8882-27.86499-28.82143-26.89286z" fill="#2b2b4c" transform="matrix(-.60379,.01663,.01868,.67842,38.6583,124.84028)"/>
</g>
<g fill="#a02c89" transform="matrix(-.13244,.00365,.00365,.13244,397.84577,584.85805)">
<path d="m1474.75-609.625 251.3125,1387.3125c17.5714,7.55378 35.7568,12.34455 57.75,0l251.3125-1387.3125c-128.8648,317.21157-122.2235,172.05508-126.1875,0-69.2247,255.19335-116.611,193.55648-147.0313,0-60.0972,278.36339-97.1631,111.0572-133.25,0-24.3857,342.85707-92.5874,89.29425-153.9062,0z" fill="#2c2c4e"/>
<path d="m1470.6663-620.09084c-3.1042,1.42345-4.3881,5.25191-2.8757,8.55022 1.3354,2.91215 4.4088,4.44659 7.247,3.78417l4.8674,10.61495c.2677.58386.9644.84248 1.5482.57475s.8425-.96438.5748-1.54824l-4.8675-10.61495c2.354-1.71837 3.1967-5.0486 1.8614-7.96075-1.5125-3.29831-5.2513-4.82361-8.3556-3.40015z" fill="#a8a8f5"/>
<path d="m1625.3482-624.05414c-3.3548.63811-5.5187,4.04735-4.8407,7.61198 .5987,3.1473 3.2148,5.37353 6.129,5.41053l2.1819,11.47206c.1197.63103.7345,1.04903 1.3654.929s1.0491-.7344.9291-1.36541l-2.182-11.47207c2.6971-1.10421 4.3133-4.13547 3.7147-7.28275-.678-3.56465-3.9424-5.94145-7.2974-5.30334z" fill="#a8a8f5"/>
<path d="m1762.011-626.37113c-3.4148-.0342-6.207,2.88281-6.2433,6.51116-.032,3.20358 2.0951,5.90089 4.945,6.51036l-.1171,11.67712c-.01.64225.5138,1.17301 1.156,1.17941s1.173-.5137 1.1795-1.15599l.1171-11.67715c2.8616-.55214 5.0424-3.2063 5.0746-6.40984 .036-3.62837-2.6968-6.60082-6.1118-6.63507z" fill="#a8a8f5"/>
<path d="m1911.335-619.72756c-3.3553-.6357-6.6181,1.74337-7.2934,5.3085-.5962,3.14778 1.0219,6.17781 3.7198,7.28017l-2.1736,11.47367c-.1252.63003.2991,1.24523.9301,1.36474s1.2451-.29887 1.3648-.92994l2.1736-11.47367c2.914-.039 5.5286-2.26712 6.1251-5.41479 .6754-3.56516-1.4908-6.97288-4.8463-7.60866z" fill="#a8a8f5"/>
<path d="m2037.1719-618.94218c-3.29-.91546-6.7412,1.18097-7.7137,4.67673-.8587,3.08653.499,6.24184 3.0947,7.56705l-3.1302,11.25038c-.1777.61728.1934,1.26597.8121,1.43809s1.2658-.19317 1.4381-.81194l3.1303-11.25039c2.9069.20605 5.6996-1.79444 6.5585-4.88084 .9727-3.49578-.8995-7.0735-4.1897-7.98905z" fill="#a8a8f5"/>
</g>
<path d="m200.37872,509.43782-28.22491,184.65672c-2.29967,1.06453-4.69073,1.76536-7.6486.21062l-38.34436-182.82358c18.22418,41.54254 16.81518,22.34176 16.71268-.46022 10.09908,33.54616 16.15026,25.20994 19.4733-.53624 8.97471,36.64816 13.27365,14.3544 17.64806-.48598 4.48017,45.32015 12.58824,11.48873 20.38383-.56132z" fill="url(#linearGradient8651)" opacity=".5"/>
<g filter="url(#filter5151)" transform="matrix(-.13244,.00365,.00365,.13244,397.86514,583.31453)">
<path d="m1760.0907-590.25744-5.1464,1363.73313" fill="none" stroke="#000"/>
<path d="m1906.2463-576.74305-150.5192,1348.38346" fill="none" stroke="#000"/>
<path d="m1630.8506-592.27239 124.0937,1366.71065" fill="none" stroke="#000"/>
<path d="m2023.6276-569.94094-266.4245,1340.88831" fill="none" stroke="#000"/>
<path d="m1486.0812-579.90025 267.3871,1350.84761" fill="none" stroke="#000"/>
</g>
<path d="m2817.493-1145.7019-5.1464,1363.73318" fill="none" filter="url(#filter5167)" opacity=".0935" stroke="#000" stroke-width="20" transform="matrix(-.13244,.00365,.00365,.13244,539.9367,653.02288)"/>
<path d="m2963.6486-1132.1875-150.5192,1348.3835" fill="none" filter="url(#filter5167)" opacity=".0935" stroke="#000" stroke-width="20" transform="matrix(-.13244,.00365,.00365,.13244,539.9367,653.02288)"/>
<path d="m2688.2529-1147.7168 124.0937,1366.71065" fill="none" filter="url(#filter5167)" opacity=".0935" stroke="#000" stroke-width="20" transform="matrix(-.13244,.00365,.00365,.13244,539.9367,653.02288)"/>
<path d="m3081.0299-1125.3854-266.4245,1340.88836" fill="none" filter="url(#filter5167)" opacity=".0935" stroke="#000" stroke-width="20" transform="matrix(-.13244,.00365,.00365,.13244,539.9367,653.02288)"/>
<path d="m2543.4835-1135.3447 267.3871,1350.84765" fill="none" filter="url(#filter5167)" opacity=".0935" stroke="#000" stroke-width="20" transform="matrix(-.13244,.00365,.00365,.13244,539.9367,653.02288)"/>
<path d="m1748.9021,865.36969c0,28.57048-.2125,51.73143-.4746,51.73143s-.4746-23.16095-.4746-51.73143 .2125-51.73143.4746-51.73143 .4746,23.16095.4746,51.73143z" fill="#fff" filter="url(#filter5247)" opacity=".1301" transform="matrix(-.72844,.02006,.00365,.13244,1438.8688,553.74918)"/>
<path d="m3581.9062-52.3125c-.9452.02852-1.8838.37293-2.625,1.03125-1.3088,1.16252-1.5299,2.91506-.5937,4.15625l-.125.09375-700.625,368.84375c-.1425,2.637-.1347,5.25668.125,7.84375l-66.125,26.625c-1.5617,2.72265-.9107,4.54989 2.25,5.34375l69.25-18.15625c1.6134,2.05643 3.6546,4.06547 6.25,6l799.75-127.875 2.0937-.15625c.4789,1.42996 2.1196,2.39229 3.9688,2.25 2.0945-.16122 3.6718-1.69654 3.5-3.4375s-2.0305-3.00506-4.125-2.84375c-1.8493.14241-3.2771,1.36208-3.4688,2.84375l-6.1562.46875c-67.9842-1.91158-101.1146-6.10163-111.125-12.21875l71.5-8.0625 6.3125-.0625c.3644,1.45612 1.9252,2.52767 3.7813,2.5 2.1019-.0315 3.7833-1.47171 3.75-3.21875s-1.7417-3.12513-3.8438-3.09375c-1.856.0277-3.4102,1.1588-3.7188,2.625l-4.375.0625c-29.9594-1.30438-50.5696-3.67798-63.8124-6.84375 16.6007-8.61174 47.2125-18.91673 79.8124-30.40625l3-.46875c.6133,1.38938 2.3584,2.24778 4.1876,1.96875 2.0717-.31614 3.4618-1.96546 3.125-3.6875s-2.2721-2.84743-4.3438-2.53125c-1.8292.27919-3.1688,1.57185-3.2188,3.0625l-3.1874.5c-35.6351,2.78446-61.3127,2.95453-78.2188.875 15.6092-8.18186 38.0534-16.74844 60.3438-24.71875l4.5624-.875c.6769,1.36619 2.4352,2.18824 4.25,1.84375 2.0553-.39042 3.3845-2.10419 2.9688-3.8125s-2.4133-2.76529-4.4688-2.375c-1.8148.34462-3.0499,1.69632-3.0312,3.1875l-5.5625,1.0625c-53.6676,3.68678-71.9544.32392-68.25-8.3125h.031l246.9374-81.65625v-.03125c11.9869-2.66458 27.2331,2.89525 31.5313,13.03125 4.5891,10.82211.9105,29.91596-11.3437,33.96875-5.1443,8.24896-6.7444,20.60629 11.1562,26.34375 35.7142-11.8116 56.9683-43.11597 43.5938-74.65625s-56.7546-46.8116-92.4688-35l.062.125-230.1563,76.125c-.1965-.04949-.4098-.10374-.5937-.15625-15.4549-4.41209 13.4955-19.43434 39.5-37.78125l3.9063-2c1.1222,1.11417 3.0824,1.35478 4.6874.53125 1.8176-.93285 2.4939-2.89537 1.5-4.40625s-3.2759-1.99536-5.0937-1.0625c-1.6051.8236-2.3214,2.49338-1.7813,3.90625l-4.0312,2.09375c-17.4853,4.4395-31.632,7.3972-42.9375,9.15625-.9416.14651-1.8475.27667-2.75.40625 12.4788-9.39195 27.6586-19.44009 41.2187-28.90625l3.3126-1.78125c1.1472,1.09429 3.1326,1.3204 4.7187.46875 1.7964-.96459 2.4342-2.9443 1.4063-4.4375s-3.3286-1.93334-5.125-.96875c-1.5862.8517-2.2596,2.50313-1.6876,3.90625l-4,2.15625c-34.8283,8.97768-58.8359,13.55036-74.5937,14.75 .1937-.40511.4062-.80307.625-1.21875 7.6384-14.51451 30.2019-35.31435 43.6875-51.8125l4.2188-3.09375c1.3175.93279 3.2923.89272 4.7187-.15625 1.6154-1.18819 1.9221-3.21969.6563-4.5625-.9498-1.00704-2.5079-1.34292-3.9063-.9375-.2331.06757-.4665.17336-.6875.28125s-.4231.22648-.625.375c-1.4265,1.04905-1.8316,2.78057-1.0312,4.09375l-.9688.6875-64.8438,33.375c13.8423-17.46918 43.4594-41.62976 60.75-61.25l4.375-3.90625c1.4108.81966 3.3787.63122 4.6876-.53125 1.4823-1.31669 1.5594-3.39287.1562-4.625-.7016-.61604-1.6485-.90352-2.5938-.875z" fill-opacity=".5255" filter="url(#filter5682)" opacity=".5935" transform="matrix(-.0851,-.09832,-.09472,6.2259297e-4,441.98244,991.14642)"/>
</g>
<path d="m128.2871,497.50771c4.56856-7.91169 26.54272-9.86442 33.78391,2.18757-10.05527-8.68429-27.70377-7.17395-33.78391-2.18757z" fill="#fff" filter="url(#filter8169)" opacity=".4334"/>
<path d="m3.81617,560.50025c4.56856-7.91169 26.54272-9.86442 33.78391,2.18757-10.05527-8.68429-27.70377-7.17395-33.78391-2.18757z" filter="url(#filter8169)" opacity=".4334" transform="matrix(.86883,0,0,1.24359,123.86018,-186.09855)"/>
</g>
</g>
</g>
</svg>
