<?xml version="1.0" encoding="UTF-8" standalone="no"?>
<svg viewBox="0 0 136.43373 126.61653" xmlns="http://www.w3.org/2000/svg" xmlns:xlink="http://www.w3.org/1999/xlink">
<defs>
<linearGradient id="linearGradient13426-5">
<stop offset="0" stop-color="#fdcc00"/>
<stop offset="1" stop-color="#008044"/>
</linearGradient>
<linearGradient id="linearGradient3173-31-2-54">
<stop offset="0" stop-color="#a5a5a5"/>
<stop offset="1"/>
</linearGradient>
<linearGradient gradientUnits="userSpaceOnUse" id="linearGradient14280-0" x1="90.68662" x2="94.99912">
<stop offset="0" stop-color="#ffb142"/>
<stop offset="1" stop-color="#c87600"/>
</linearGradient>
<linearGradient gradientTransform="matrix(.62915,0,0,.81201,149.81398,82.71961)" gradientUnits="userSpaceOnUse" id="linearGradient14284-7" x1="521.33691" x2="521.5202" y1="441.64789" y2="416.29077">
<stop offset="0" stop-color="#909090"/>
<stop offset="1" stop-color="#ededed"/>
</linearGradient>
<linearGradient gradientUnits="userSpaceOnUse" id="linearGradient14290-3" x1="341.11417" x2="332.66489" y1="247.80836" y2="243.79051">
<stop offset="0" stop-color="#c87600"/>
<stop offset="1" stop-color="#ffb142"/>
</linearGradient>
<radialGradient cx="414.68207" cy="-8.88047" gradientTransform="matrix(-1.8232002e-6,.27968,-.60927,0,101.72623,-39.26045)" gradientUnits="userSpaceOnUse" id="radialGradient14276-6" r="123.54523">
<stop offset="0" stop-color="#ffb142"/>
<stop offset=".8868" stop-color="#ffb141"/>
<stop offset="1" stop-color="#c87600"/>
</radialGradient>
<radialGradient cx="-406.03452" cy="32.40937" gradientUnits="userSpaceOnUse" id="radialGradient14286-2" r="39.15764">
<stop offset="0" stop-color="#fff" stop-opacity=".744"/>
<stop offset="1" stop-color="#fff" stop-opacity="0"/>
</radialGradient>
<radialGradient cx="340.93182" cy="269.25153" gradientTransform="matrix(.9412,-.16125,.40295,2.35196,-103.74625,-244.04387)" gradientUnits="userSpaceOnUse" id="radialGradient14292-8" r="3.29996">
<stop offset="0" stop-color="#00519c"/>
<stop offset="1" stop-color="#008044"/>
</radialGradient>
<radialGradient cx="352.00592" cy="290.74258" gradientTransform="matrix(.92757,-.00243,.02892,11.0418,5.85547,-2862.4835)" gradientUnits="userSpaceOnUse" id="radialGradient14272-7" r="1.91983" xlink:href="#linearGradient13426-5"/>
<radialGradient cx="349.07495" cy="290.80731" gradientTransform="matrix(.99356,.10927,-.89577,8.14514,250.91897,-2059.1737)" gradientUnits="userSpaceOnUse" id="radialGradient14274-9" r="1.91983" xlink:href="#linearGradient13426-5"/>
<radialGradient cx="610.45734" cy="483.44724" gradientTransform="matrix(0,-.48219,.4319,-1.2541889e-6,-151.96816,551.34635)" gradientUnits="userSpaceOnUse" id="radialGradient14278-7" r="167.56416" xlink:href="#linearGradient3173-31-2-54"/>
<radialGradient cx="371.45444" cy="647.68732" gradientTransform="matrix(0,-.74351,-.66041,0,552.03191,582.13395)" gradientUnits="userSpaceOnUse" id="radialGradient14282-3" r="59.2546" xlink:href="#linearGradient3173-31-2-54"/>
<radialGradient cx="313.13535" cy="589.23749" gradientTransform="matrix(-.48422,-.10897,.16592,-.73726,83.84357,797.50156)" gradientUnits="userSpaceOnUse" id="radialGradient14288-8" r="59.2546" xlink:href="#linearGradient3173-31-2-54"/>
</defs>
<g transform="translate(-218.00513,-291.72404)">
<g transform="translate(-1.07143,-.71429)">
<path d="m333.1568,347.3699c-2.63269,14.72207-2.8288,39.79403 5.09539,40.74286 11.13513-1.67271 7.08479-37.36079 4.60664-44.67229-1.46086.66359-6.24083,3.26584-9.70203,3.92943z" fill="#1a171b"/>
<path d="m334.31478,348.77658 .007-.66509c.59413.114 2.75301.52173 2.55908-.56405 0,0-1.78927-3.94344 1.20091-3.62443 .002-.006.005-.0131.006-.0204 .52915.1299 1.65415.29736 3.86128.25816 .22835,1.49059.55605,3.82255.77652,5.64265 1.48078,11.04351 3.5474,33.83074-3.83495,35.93883 .0934-3.50469-.23372-17.10997-.77863-18.63827-.56914,2.55503-.89628,14.81129-.98027,18.34502-2.20252-1.5844-7.76907-8.42386-2.85987-35.86849l.0428-.804z" fill="#00519c"/>
<path d="m341.82503,344.06822c4.31277,36.25566-3.96231,33.96731-3.31887-.069 1.43622-.18908 1.8028.0455 3.31887.069z" fill="url(#radialGradient14272-7)"/>
<path d="m336.72238,344.04011c-1.10692,2.29023-.19908,1.79574.0879,3.76629-.0464.24993-.23363.58159-1.66966.41592-3.41538,37.09484 3.79477,21.24308 3.81394-4.34167-1.14695-.14453-1.36971-.27496-2.23221.15946z" fill="url(#radialGradient14274-9)"/>
</g>
<g transform="translate(186.33438,12.31599)">
<path d="m81.78118,385.54273c-15.66752,1.61282-33.63754,14.29091-26.49499,17.05577s27.87304,3.91808 31.78992.69241c2.01274-1.65755 5.61385-5.80874 6.03825-9.70397 .42497,3.89491 4.01553,8.04658 6.02807,9.70397 3.91689,3.22567 24.65756,2.07245 31.8001-.69241s-10.82746-15.44295-26.49499-17.05577c-8.06777.77761-10.96962,3.4884-11.33318,6.59829-.36356-3.10989-3.26541-5.82068-11.33318-6.59829z" fill="url(#radialGradient14276-6)" fill-rule="evenodd" stroke="#000" stroke-width="1.56388"/>
<path d="m81.78374,385.54738c-7.69001.79161-15.92746,4.249-21.48518,7.89147 8.4173,3.89278 18.70904,6.29179 29.86542,6.56775 1.42955-1.88088 2.71021-4.18714 2.95294-6.41501 .24081,2.20701 1.49144,4.49272 2.90203,6.3641 10.97308-.4646 21.05151-2.98006 29.25446-6.9445-5.53778-3.48361-13.43193-6.70294-20.82331-7.46381-8.06777.77762-10.96962,3.4884-11.33318,6.59829-.36356-3.10989-3.26541-5.82068-11.33318-6.59829z" fill-opacity=".3137" fill-rule="evenodd"/>
</g>
<g transform="translate(186.33438,12.31599)">
<path d="m146.27531,340.22539a53.94769,53.94769 0 0,1 -107.89538,0 53.94769,53.94769 0 1,1 107.89538,0z" fill="url(#radialGradient14278-7)" stroke="#000" stroke-linecap="round" stroke-width="1.56388"/>
<path d="m118.99377,367.19922a26.15335,26.15335 0 1,1 -52.30669,0 26.15335,26.15335 0 1,1 52.30669,0z" fill="#fff" stroke="#000" stroke-linecap="round" stroke-width="1.62921"/>
<path d="m144.15185,325.22596c.10951,1.40269.1731,2.81547.1731,4.24612 0,29.77912-24.1782,53.94714-53.95732,53.94714-24.57503,0-45.31569-16.4592-51.81899-38.94825 2.16988,27.79451 25.42557,49.70103 53.77404,49.70103 29.77913,0 53.95732-24.16802 53.95732-53.94715 0-5.2041-.75099-10.23653-2.12815-14.99889z" fill-opacity=".3137"/>
</g>
<g transform="translate(186.33438,12.31599)">
<path d="m81.25168,304.32672c-7.47309,0-13.54279,6.9841-13.54279,15.58948s6.0697,15.58948 13.54279,15.58948c4.39173,0 8.28894-2.41465 10.76295-6.15026 2.47384,3.73832 6.37954,6.15026 10.77313,6.15026 7.47309,0 13.54279-6.98411 13.5428-15.58948s-6.06971-15.58948-13.5428-15.58948c-4.39308,0-8.29924,2.41268-10.77313,6.15026-2.47406-3.7348-6.37178-6.15026-10.76295-6.15026z" fill="#fff" stroke="#000" stroke-linecap="round" stroke-width="1.62921"/>
<path d="m92.66203,331.21506c-4.71786,0-9.84597,4.2966-9.64084,7.01024s8.4101,14.02048 10.25621,14.02048 9.02547-11.0807 8.82034-14.24662-6.35885-7.01024-9.43571-6.7841z" fill-opacity=".3137" fill-rule="evenodd"/>
<path d="m91.91737,328.497c-4.71786,0-9.84597,3.89736-9.64085,6.35885s8.4101,12.71771 10.25622,12.71771 9.02547-10.05109 8.82035-12.92283-6.35886-6.35885-9.43572-6.15373z" fill="url(#linearGradient14280-0)" fill-rule="evenodd" stroke="#000" stroke-width="1.62921"/>
<path d="m89.6477,322.66274a3.38455,3.38455 0 0,1 -6.7691,0 3.38455,3.38455 0 1,1 6.7691,0z" stroke="#000" stroke-linecap="round" stroke-width="1.62921"/>
<path d="m101.76333,322.66274a3.38455,3.38455 0 1,1 -6.7691,0 3.38455,3.38455 0 1,1 6.7691,0z" stroke="#000" stroke-linecap="round" stroke-width="1.62921"/>
</g>
<g transform="translate(186.33438,12.31599)">
<path d="m135.69223,328.16301c-15.67663,5.63707 4.61504,30.67561-12.32305,52.52299-3.13081,4.03823 18.85579.68126 26.62868-21.69618 7.55898-21.76158.36897-35.04071-14.30563-30.82681z" fill="#fff" fill-rule="evenodd" stroke="#000" stroke-width="1.62921"/>
<path d="m135.69223,328.16301c-15.67663,5.63707 13.87706,33.27614-12.32305,52.52299-7.37264,5.41601 18.85579.68126 26.62868-21.69618 7.55898-21.76158.36897-35.04071-14.30563-30.82681z" fill="url(#radialGradient14282-3)" fill-rule="evenodd" stroke="#000" stroke-width="1.62921"/>
</g>
<g transform="matrix(-.84384,.25608,.25608,.84384,557.14706,-109.89149)">
<path d="m511.7173,417.27696c-2.89527,1.71158-3.79587,6.13674-4.46303,8.52606-1.36364.10423-2.6151.20897-3.9322.30451-34.95991-1.393-70.72532.3152-103.94237.40856 28.07013,19.63231 74.57102,5.84777 107.73686,2.45878 1.25695,4.65459 3.97323,11.03949 10.13285,10.24855 5.71277-1.80065 6.92502-6.13368 5.6156-9.91866 .10596-.0355.57537.037 1.04201.15213 1.04821.25868 1.36841.18232 1.84814-.43138 .3021-.38639.38876-.67349.39322-1.44639 .004-.82442-.0919-1.05959-.66847-1.59864-.37035-.34622-.80574-.59698-.96339-.55823s-.65118-.009-1.10103-.10152c-3.90972-.88596-11.69698,1.00055-11.2657-1.04132 .71455-2.79597.2514-5.37222-.43249-7.00245zm-1.29762,3.70478c-.67184,2.12783-1.00968,4.2932-1.51374,6.11544 .18386-2.13785.59488-4.33248 1.51388-6.11546zm10.0664,8.24689c1.13327,1.46595-.34142,4.33813-1.63184,5.50641-1.12152,1.00255-2.81019,1.11519-4.12882.2791-1.88798-1.65642-2.8013-4.02857-2.08406-5.68404 2.84091-.036 5.44081-.20287 7.84472-.10147z" fill="url(#linearGradient14284-7)" stroke="#000" stroke-linecap="round" stroke-linejoin="round" stroke-width="1.144"/>
<path d="m-364.84977,67.82717c0,22.65599-17.53148,41.02229-39.15765,41.02229s-39.15764-18.3663-39.15764-41.02229 17.53148-41.02229 39.15764-41.02229 39.15765,18.36631 39.15765,41.02229z" fill="#d7b96e" stroke="#000" stroke-linecap="round" stroke-linejoin="round" stroke-width="13.02126" transform="matrix(1.4401735e-4,.09092,-.09092,1.4401735e-4,533.11475,463.644)"/>
<path d="m-364.84977,67.82717c0,21.89925-17.53148,39.65211-39.15765,39.65211s-39.15764-17.75286-39.15764-39.65211 17.53148-39.65211 39.15764-39.65211 39.15765,17.75285 39.15765,39.65211z" fill="#b18d31" transform="matrix(9.1653042e-5,.06515,-.08183,1.4584765e-4,532.53493,453.17197)"/>
<path d="m-364.84977,67.82717c0,21.90083-17.53148,39.65496-39.15765,39.65496s-39.15764-17.75413-39.15764-39.65496 17.53148-39.65496 39.15764-39.65496 39.15765,17.75413 39.15765,39.65496z" fill="#d7b96e" transform="matrix(5.7980182e-5,.04127,-.082,1.4609304e-4,532.533,443.60667)"/>
<path d="m-364.84977,67.82717c0,21.71555-17.53148,39.31949-39.15765,39.31949s-39.15764-17.60394-39.15764-39.31949 17.53148-39.31949 39.15764-39.31949 39.15765,17.60393 39.15765,39.31949z" fill="#b18d31" transform="matrix(1.9469714e-5,.01386,-.08228,1.4671211e-4,532.53648,432.53331)"/>
<path d="m-364.84977,67.82717c0,22.65599-17.53148,41.02229-39.15765,41.02229s-39.15764-18.3663-39.15764-41.02229 17.53148-41.02229 39.15764-41.02229 39.15765,18.36631 39.15765,41.02229z" fill="url(#radialGradient14286-2)" transform="matrix(.03371,.07924,-.07924,.03371,545.66315,456.84563)"/>
<path d="m410.03223,427.90363-4.20518.65216 1.49346,3.00379-2.12898-2.62021-1.72629,2.07436 1.07488-2.34313-3.96209-.52942 3.92619-.43935-1.22746-2.65505 2.02257,2.4807 2.20626-2.38528-1.37869,2.74039z" fill="#fff"/>
<path d="m408.99882,427.64536c6.08484,2.44658 59.33589.0359 94.10714-.71429-31.49814-.14919-63.06599-.50749-94.10714.71429z" fill="#fff"/>
</g>
<g transform="matrix(.98898,.14808,-.14808,.98898,236.32503,9.85222)">
<path d="m51.63901,328.16301c15.35651,4.81586-8.87454,24.28069 1.29393,42.29817 2.47276,4.38149-7.82667,10.90608-15.59956-11.47136-7.55897-21.76158-.36897-35.04071 14.30563-30.82681z" fill="#fff" fill-rule="evenodd" stroke="#000" stroke-width="1.62921"/>
<path d="m51.63901,328.16301c14.50386,3.57457-15.74683,23.62102.62277,43.36122 6.06219,4.47355-6.72716,10.00264-15.35792-13.93654-7.5561-21.76258.06055-33.63858 14.73515-29.42468z" fill="url(#radialGradient14288-8)" fill-rule="evenodd" stroke="#000" stroke-width="1.62921"/>
</g>
<path d="m277.53416,291.73972c-14.84144.2283-33.73132,2.56658-44.41561,26.03855-2.04778,1.67298-2.89931,4.12746-3.19035,5.13245-5.93385,4.48496-9.8551,17.05658-8.70654,25.36025-.0669,3.25704-4.04987,8.33633 1.21875,8.28125 2.33744.65433 4.09377-4.04897 5.09375-3.1875-.65002,4.7868-4.12144,10.14868-3,15.21875 2.15726,4.28117 4.98659-1.11414 6.03125-3.46875 3.19698-3.82992 7.33794-7.75509 6.65625-13.34375 1.18368-1.21462 2.53499-2.51758 3.1875-4.375 2.92623-2.94936 3.94957-7.23631 2.59375-11.15625 .50414-4.42252-2.73889-11.00993 2.3125-13.5 13.49279-6.64232 29.42522-5.32245 44.18361-5.00024 13.48823.97147 27.4273,2.73681 39.12889,10.12524-6.61933-24.78111-27.88104-36.63342-51.09375-36.125z"/>
<path d="m275.5,293.03125c-12.45227.24514-24.30496,4.18168-31.65625,11.53125-2.93036,4.41889-7.63854,9.83205-9.1875,14.71875-.25261.19237-1.21649.14288-1.25761.55869-.0397.40124-.28482,1.1812-.87247,1.75s-.55768,1.60446-.52617,1.81631-.18206.4255-.5.46875c-.79917.1087-2.93792,2.61606-4.75,5.59375-2.94832,4.84477-4.44246,11.19644-3.6875,15.78125 .20816,1.26417.3103,2.40716.21875,2.53125s-.26575.92397-.375,1.78125-.50126,2.35802-.875,3.34375c-.72702,1.91743-.71235.62231.53125,1.40625 .42338.26688 1.14264-.95754 1.71875-1.375 1.26077-.91354 2.02071-2.76511 2.34375-5.65625 .42353-3.79043 1.76454-8.58621 3.0625-11.4375-.63459,1.99464-1.27569,5.04686-1.15625,5.625 .0458.22153.004.75157-.0937,1.1875s-.0969,1.83699.0313,3.09375 .17991,2.49633.0937,2.75 .0455.83245.3125,1.3125 .39405,1.1678.28125,1.5-.0366.84231.15625,1.15625c.4548.74063.36296,2.03675-.15625,2.15625-.23318.0537-.34516.33129-.25.625 .0909.2806-.54382,2.80135-1.4375,5.59375-1.2472,3.89691-1.57787,5.30802-1.375,6.09375 .14538.56304.30899.97558.375.9375s.47143-.73161.875-1.5625c1.00309-2.06534 2.84952-4.59129 4.9375-6.75 1.96384-2.03035 2.71705-3.81507 2.6875-6.3125-.0275-2.31855.78746-4.33177 1.75-4.3125 .51777.0104.77469-.22309.8125-.75 .03-.41921.84162-1.82028 1.8125-3.09375 2.12713-2.79007 2.60114-4.41786 1.9375-6.625-.27428-.91219-.42546-2.21616-.34375-2.875 .13891-1.11995-.23235-4.76688-.71875-7.15625-.14211-.69818.12402-1.91905.75-3.65625 .34429-.95544.61531-1.98527.8125-2.96875 1.71149-.72927 3.5636-1.54377 5.46875-2.1875 7.21716-5.76083 57.85445-7.3908 78.03506,3.96367-6.21087-21.60414-29.03133-30.96599-49.78511-30.55742z" fill="#e40000"/>
<path d="m230.45326,349.27404c-1.071,2.06067 1.28901-7.48773 1.63364-8.16527 .23135-.45478.54619-1.55993.69969-2.45583s.9554-3.05 1.78202-4.78684c1.19904-2.51931 1.71397-3.27272 2.54647-3.72576l1.04351-.56788-.44854,1.70638c-.25959.98755-.69004,1.87398-1.02183,2.10421-.34492.23936-.59218.76383-.62071,1.31662-.0261.50533-.20802,1.03135-.40432,1.16893s-.57983,1.27098-.85226,2.5187c-.97039,4.44395-.96097,4.08439-.098,3.7402 .42396-.1691 1.12058-.93925 1.54804-1.71148 .80356-1.45162 1.11444-1.76276 1.29899-1.30001 .31714.79514-2.70529,6.13971-4.5439,8.03493l-2.0719,2.13253c-.43065.44144-.54003.43934-.49088-.009z" opacity=".4"/>
<path d="m227.104,333.11592c-.23949-.60044 1.06276-3.08209 2.8189-5.37186 2.33691-3.04704 3.24663-3.94042 3.64824-3.58273 .33258.29624-.74751,3.62016-1.12381,3.45844-.28528-.12264-2.05113,1.57158-2.61127,2.50533-.26435.4406-.84656,1.41468-1.29386,2.16461-.7802,1.30799-1.15922,1.52573-1.4382.82621z" opacity=".4"/>
<path d="m234.49646,325.26004c1.67044.1109 3.81437.86167 4.62434.50295 1.11774.91773.24549.85611.63043,1.51672-.11664.81308-1.79703.49123-5.25477-2.01967z" opacity=".4"/>
<path d="m241.16072,321.73718c-1.6467-.56917-2.48979-1.92562-4.86608-1.78572-1.87997.10119-.81825-.77073-.13393-.9375 2.32471-.24015 4.20383,2.13764 5.00001,2.72322z" opacity=".4"/>
<path d="m242.94169,320.00159c6.1467-6.08511 24.3204-6.01485 53.53809-5.80838 .57563.22137-24.46364-4.50753-51.8966,2.77792-.5753.7225-4.23656.72277-1.64149,3.03046z" fill="#890000"/>
<path d="m246.53952,307.06894c-1.45485,2.21477-4.40565,7.71915-5.64666,8.86467-.0648.55421-.29432,1.15552 1.25,1.25 2.64013-3.64477 3.26025-7.75879 4.39666-10.11467z" fill="#890000"/>
<path d="m253.87047,310.64794c-11.04331,1.05213-8.84139,1.85866-1.61845.76449-1.0582.3744-5.27396,3.05697-7.89866,4.8875 3.7596-1.42311 5.89387-3.35256 10.63411-4.66171 9.15683-.75096 8.55841.33363 2.96486-1.36642 5.38848-1.23702 8.81697-.47798 8.6526-.56606-3.6698-1.96656-9.19024-1.06512-12.73446.9422z" fill="#890000"/>
<g transform="translate(-1.07143,-.71429)">
<path d="m343.38304,343.69849c.81592-.0992 2.57799-.34779 3.69276-.74872 2.83368.64262 7.01113,1.39233 8.27992.58082 1.18231-.7334-4.65197-5.48721-9.53251-12.33378l.00042-.00032c.002-.63928-.0144-1.26058-.0412-1.87421 .43041-9.04841-3.60747-15.32916-5.96448-18.18962-.59262-.83816-1.11654-1.48061-1.50674-1.92917-.36853-.69576-.6465-1.2799-.78918-1.81208-.10525-.39477.23387-.92428.004-1.68632 .33557-.34689.5643-.80067.69286-1.32902s.15694-1.13124.0918-1.77635-.22373-1.33246-.4692-2.02966-.57775-1.40429-.99024-2.0889 1.81514.55738 1.24899-.05c-.31354-1.02863-4.04356-3.68923-5.2441-3.8729-.14365-.0741-.40074-.46049 1.45586-.31064-.61138-1.13896-4.88475-.8464-5.83193-.83386-15.32367,1.31051-12.23064,12.56946-12.34745,12.50301 0,0-.49367.98309-1.31759,3.23108-.42839,7.86769 6.54253,7.56339 7.63099,7.48757 0,0-.32466-1.3193-.0322-3.36621-.71126-.9547 1.9091,2.71825 3.99847,1.13495 0,0-2.68276,3.77978-3.09482,8.94901-1.05915,2.69639-4.76987,13.51974 2.13957,17.4837l-.0328.0143-.0263.0128-.0633.037c-1.07553.67344-1.43959,1.79059-.99805,3.06616 .38727,1.11501 1.42768,2.33078 2.59166,2.38592 .35759.0183.63829-.0282.85593-.10478 .35838.25535.75521.42226 1.16768.44175 .94474.0464 1.34765-.35048 1.50439-.59132l.11048-.37595c0,0 .0984.22636.34999.54168 .08.10828.1632.21388.2524.31498 .002-.006.006-.0116.008-.0174 .43197.44606 1.12726.97258 2.20047,1.32187z" fill="#1a171b"/>
<g transform="matrix(1.1995,0,0,1.02356,-81.58675,58.60328)">
<path d="m332.28626,243.09255c1.72258-.10159 4.46013.10159 4.46013.10159s-1.11543,2.73675 5.2708,3.85138c.4532,2.08727-2.72993,3.55258-4.38742,1.91499 1.05322-.2165 1.83121-.11419 1.92067-1.28713-1.63198,1.19015-1.90551.19383-2.69612.48043 0,0-1.62861-.0944-1.02017,3.14883-.15835.83522-7.22739-2.14543-3.54789-8.21009zm1.07313,4.30807c.67637-1.68974 1.18305-1.60465.0861-2.53389 0-.00016-.84591,1.01337-.0861,2.53389z" fill="url(#linearGradient14290-3)"/>
<path d="m338.81103,238.83451c1.7196-.91544 2.80865,3.09197.95959,3.8092 .23507-.004.48136-.017.75057-.0487 5.54833-1.01447 1.50557-7.31056-.21745-6.37005-2.48208-.16577-4.30791,3.3767-3.11877,5.35749 .0325.0566.0716.1096.10769.16504 .0707.0928.14678.1846.23907.266-.58823-.89158.20041-2.5884 1.2793-3.17898z" fill="#fff"/>
<path d="m153.54301,63.558a2.665,2.665 0 1,0 -5.33,0 2.665,2.665 0 1,0 5.33,0" fill="#fff" transform="matrix(-.16024,0,0,.16024,363.87993,230.03951)"/>
<path d="m362.62637,278.19693c-4.54218-.43505-8.1657-2.04627-10.75631-3.65717-1.58558-.71772-3.26394-1.83203-4.55885-3.67431l-.091-.1016 .01-.01c-1.31094-1.91855-2.20732-4.60995-2.17254-8.4365 .10111-11.1497.91256-11.96083 4.25726-15.00188l.74865-.32625c0,0 5.53327,6.89099 4.75001,17.90656-.83453-1.30516-1.62612-2.37396-2.45713-3.11828 .13444,1.55433 1.03147,3.0263 1.03147,3.0263 2.34496,4.67679 5.97105,9.03597 9.23851,13.39307zm-24.63555-15.58596c-.32079,3.46296-.30381,10.21886 4.29365,12.38627l.0226.017c-1.51411,1.05262-8.16442.13108-4.27891-13.76146-.00016.00017-.0365.51854-.0373,1.35821zm3.13191-31.67484-.00032-.001c9.10322.50073 7.95874,11.39669 6.6677,10.88722 .70672,2.25707.98266,2.6831 1.30147,4.08237 0,0-5.35182,2.52635-5.35182,14.58782 0,11.65702 4.25984,13.56357 10.76833,16.42242 .0777.0958.15239.18684.22417.27337-1.99723-.10448-4.57423.005-7.04562-.92106-8.08125-1.44553-9.25517-8.95184-8.61324-15.58116-.0328-3.10418.60025-6.60351 2.29656-10.42012l-.002-.0146 .0456-.0828 .0965-.21696 .0326-.0165c1.56764-2.83017 1.59809-3.90667 1.57389-4.14975-3.62609,1.21174-5.23314-1.03996-5.52574-1.52693-.30269-.507.10272-1.31766.10272-1.31766l-.02-.0184c-.4522-.39436-.68983-.57559-.78117-.64241-1.48728-.0875-4.37052-.22212-5.01599-.24981-.0007-.002.24146-.13493.24076-.13703-.77615-5.93149 3.57331-10.95415 9.00575-10.9566zm-.84608,12.29134c5.52542,0 4.3837-8.22482 0-7.55069-4.78846.73662-5.52573,7.55069 0,7.55069z" fill="#00519c"/>
<path d="m344.24645,246.65117c-.0498-1.84773-2.4403-.75826-3.14407-.39676 .58808.002 1.25661-.0989 2.01422-.35188 .024.24292-.006,1.31958-1.57388,4.14959-.0112.004-.025.0165-.0325.0165l-.0965.21696-.0456.0829c.00033.005.001.01.002.0146-.0666.14982-.12899.29836-.19213.44723 1.85991-.30286 3.12085-2.24049 3.06829-4.17907z" fill="#fdcc00"/>
<path d="m343.35199,277.43883c0,0-2.23936-.3381-.78117,2.60599 .13012.18172.52079.96353-.39067.91194-.62461-.0367-1.54552-1.31366-1.56635-2.4847 .0917-.0869.18684-.17161.29645-.24629 .29164-.19805.60282-.31888.90296-.37175l.0939-.01-.0168-.005 .0007-.00064-.004-.0007c-.35301-.14373-.76307-.13716-1.12104.064-.0375.0205-.0682.0476-.1008.0732 .0745-.31263.23187-.60283.50412-.83742-.55683.11569-1.2353.61388-.25911,2.58228 .13011.18283.52046.96321-.39082.9116-.65507-.037-1.63911-1.44328-1.567-2.65759 .0683-.058.14117-.11408.21809-.16616 .29132-.1979.6025-.31888.90263-.37128l.0939-.0101-.0167-.005 .001-.00032-.006-.001c-.34516-.14037-.74608-.13444-1.09973.0549 .10047-.28458.27818-.54321.56052-.75024 .55091-.31166 1.84838-.70826 2.05332.14246 .68984-.26328 1.69102-.39083 1.69102.57173zm4.47504,3.76678c.14182.19869.56725,1.05006-.42656.99365-.68759-.0388-1.70624-1.46267-1.70656-2.75069 .0917-.0873.18684-.17242.29757-.24821 .29163-.19758.60282-.31888.90263-.37096l.0936-.0104-.0164-.004 .00033-.00032-.003-.001c-.35269-.14373-.76307-.13684-1.12137.0639-.0364.0202-.0663.0465-.0976.0708 .0833-.34563.25783-.66611.56341-.92394-.61436.10624-1.42742.62093-.33394,2.82825 .14085.19869.56741,1.05005-.42656.99445-.68231-.0389-1.69695-1.44057-1.71858-2.72089 .10015-.0969.20879-.1902.33073-.27321 .29196-.19789.60251-.31919.90264-.37096l.0939-.0104-.016-.004 .0007-.001-.005-.001c-.35237-.14357-.76243-.13717-1.12072.0636-.0489.0274-.0886.0641-.13237.0963 .0877-.39628.29036-.76098.67013-1.03932 .60379-.34116 2.03121-.77685 2.24369.16905 .75265-.29612 1.8777-.45557 1.8777.61051-.00016-.00031-2.44303-.36871-.852,2.84123z" fill="#9b9c9e"/>
<path d="m349.27067,247.33747 .74865-.32625c0,0 5.53326,6.89098 4.75001,17.90656-.83454-1.30516-1.62613-2.37397-2.45713-3.11828 .13444,1.55434 1.03146,3.0263 1.03146,3.0263 2.34497,4.67694 5.97121,9.03597 9.23867,13.39323l-.003-.00032c-6.28944-4.11562-11.26859-12.42698-11.26859-16.65429 0-4.04559-2.55327-9.91232-3.83985-12.47681 .49803-.56292 1.09188-1.10646 1.79966-1.75014zm-7.84687-16.31176c.5951-.20272 2.36062-.36697 3.17529-.0193-.20296.25621-.31585.2982-.0992.59267 1.05829.42366 2.60821,1.4689 3.68322,2.6746 .32734.44797-.93305-.40811-.0297,1.9522 .25981.66337.45355,1.33503.57881,1.9801s.18202,1.26357.16788,1.82061-.0992,1.05263-.25755,1.45189-.39006.7022-.6975.87395c.36421.8267 1.07037,3.37816 1.06827,3.37956-.28087.45632-1.35386,1.18805-1.64199,1.52554-.71419-1.12649-2.00782-.88995-1.31077-4.28754 2.02673-4.91874-2.52382-10.53376-4.6368-11.9443z" fill="#006cb2"/>
</g>
<path d="m332.75921,319.09524c.13608,6.74784-1.07282,14.61541 7.88354,20.64301-10.24926-3.75082-9.24847-13.48312-7.88354-20.64301z" fill="#008044"/>
<path d="m323.89571,325.88599c.39539,6.55084-1.23888,10.48569 5.24034,14.345-8.30515,1.6644-7.62813-9.71516-5.24034-14.345z" fill="url(#radialGradient14292-8)"/>
</g>
</g>
</svg>
