<?xml version="1.0" encoding="UTF-8" standalone="no"?>
<svg viewBox="0 0 137.13303 128.0097" xmlns="http://www.w3.org/2000/svg" xmlns:xlink="http://www.w3.org/1999/xlink">
<defs>
<filter id="filter8404">
<feGaussianBlur stdDeviation="2.4615"/>
</filter>
<filter height="1.32072" id="filter8506" width="1.30374" x="-.15187" y="-.16036">
<feGaussianBlur stdDeviation="1.283"/>
</filter>
<linearGradient id="linearGradient3173">
<stop offset="0" stop-color="#a5a5a5"/>
<stop offset="1"/>
</linearGradient>
<linearGradient gradientUnits="userSpaceOnUse" id="linearGradient7366" x1="104.80565" x2="108.94523">
<stop offset="0" stop-color="#ffb142"/>
<stop offset="1" stop-color="#c87600"/>
</linearGradient>
<linearGradient gradientUnits="userSpaceOnUse" id="linearGradient50005" x1="803.12416" x2="856.30399" y1="104.11969" y2="20.42948">
<stop offset="0" stop-color="#0035ff"/>
<stop offset="1" stop-color="#0035ff" stop-opacity="0"/>
</linearGradient>
<linearGradient id="linearGradient3206">
<stop offset="0" stop-color="#666"/>
<stop offset="1" stop-color="#666" stop-opacity="0"/>
</linearGradient>
<linearGradient id="linearGradient3216">
<stop offset="0" stop-color="#fff"/>
<stop offset="1" stop-color="#fff" stop-opacity="0"/>
</linearGradient>
<linearGradient gradientUnits="userSpaceOnUse" id="linearGradient50011" x1="911.88458" x2="926.78433" y1="303.68558" y2="307.95126">
<stop offset="0" stop-color="#999"/>
<stop offset="1" stop-color="#999" stop-opacity="0"/>
</linearGradient>
<linearGradient gradientUnits="userSpaceOnUse" id="linearGradient50015" x1="1024.08278" x2="1019.90797" y1="-282.77204" y2="-384.19081">
<stop offset="0" stop-color="#333"/>
<stop offset="1" stop-color="#333" stop-opacity="0"/>
</linearGradient>
<linearGradient gradientUnits="userSpaceOnUse" id="linearGradient8652" x1="-218.43655" x2="-222.47719" y1="823.2363" y2="542.41391">
<stop offset="0" stop-color="#4d4d4d"/>
<stop offset="1" stop-color="#4d4d4d" stop-opacity="0"/>
</linearGradient>
<linearGradient gradientUnits="userSpaceOnUse" id="linearGradient8658" x1="-249.75131" x2="-253.79191" y1="524.23113" y2="382.73185">
<stop offset="0" stop-color="#000080"/>
<stop offset="1" stop-color="#000080" stop-opacity="0"/>
</linearGradient>
<linearGradient gradientUnits="userSpaceOnUse" id="linearGradient8660" x1="-92.16752" x2="-107.31978" y1="386.85041" y2="264.11725">
<stop offset="0" stop-color="#da0000"/>
<stop offset="1" stop-color="#da0000" stop-opacity="0"/>
</linearGradient>
<linearGradient gradientUnits="userSpaceOnUse" id="linearGradient8664" x1="-190.15231" x2="-229.54826" y1="620.19565" y2="536.35297">
<stop offset="0" stop-color="#006b00"/>
<stop offset="1" stop-color="#006b00" stop-opacity="0"/>
</linearGradient>
<linearGradient gradientUnits="userSpaceOnUse" id="linearGradient50007" x1="902.79321" x2="910.87445" xlink:href="#linearGradient3206" y1="337.02063" y2="310.50412"/>
<linearGradient gradientUnits="userSpaceOnUse" id="linearGradient50009" x1="922.49121" x2="916.68283" xlink:href="#linearGradient3216" y1="292.82645" y2="311.26172"/>
<linearGradient gradientUnits="userSpaceOnUse" id="linearGradient50013" x1="888.74364" x2="843.61823" xlink:href="#linearGradient3216" y1="-74.71633" y2="51.61472"/>
<linearGradient gradientUnits="userSpaceOnUse" id="linearGradient50017" x1="1086.96418" x2="1099.05842" xlink:href="#linearGradient3216" y1="-505.69244" y2="-348.95885"/>
<linearGradient gradientUnits="userSpaceOnUse" id="linearGradient8654" x1="-414.40617" x2="-256.82237" xlink:href="#linearGradient3216" y1="140.37317" y2="308.05849"/>
<linearGradient gradientUnits="userSpaceOnUse" id="linearGradient8656" x1="-72.97462" x2="-99.39784" xlink:href="#linearGradient3206" y1="733.33273" y2="413.11435"/>
<linearGradient gradientUnits="userSpaceOnUse" id="linearGradient8662" x1="-22.46699" x2="94.39733" xlink:href="#linearGradient3216" y1="173.7082" y2="310.07878"/>
<radialGradient cx="414.68207" cy="-8.88047" gradientTransform="matrix(-1.8232002e-6,.27968,-.60927,0,102.53948,-41.04873)" gradientUnits="userSpaceOnUse" id="radialGradient50003" r="123.54523">
<stop offset="0" stop-color="#ffb142"/>
<stop offset=".8868" stop-color="#ffb141"/>
<stop offset="1" stop-color="#c87600"/>
</radialGradient>
<radialGradient cx="488.9509" cy="582.84967" gradientTransform="matrix(0,-.46285,.41458,-1.2038994e-6,-147.93719,242.41402)" gradientUnits="userSpaceOnUse" id="radialGradient4798" r="167.56416" xlink:href="#linearGradient3173"/>
<radialGradient cx="441.41846" cy="734.65253" gradientTransform="matrix(-1.61659,1.61036,-3.92285,-3.93801,4772.7256,2356.6127)" gradientUnits="userSpaceOnUse" id="radialGradient4977" r="59.2546" xlink:href="#linearGradient3173"/>
<radialGradient cx="296.6416" cy="689.44543" gradientTransform="matrix(1.46191,-1.75198,-4.00431,-3.34134,3754.9266,3020.1016)" gradientUnits="userSpaceOnUse" id="radialGradient4937" r="59.2546" xlink:href="#linearGradient3173"/>
</defs>
<g transform="translate(-27.86991,-29.44795)">
<path d="m97.07054,137.76122c-15.0393,1.54816-32.28877,13.71789-25.43262,16.37189s26.75541,3.76097 30.51523.66464c1.93203-1.59108 5.38875-5.57582 5.79613-9.31486 .40794,3.73872 3.85452,7.72393 5.78637,9.31486 3.75982,3.09633 23.66885,1.98936 30.525-.66464s-10.39331-14.82373-25.43262-16.37189c-7.74427.74644-10.52977,3.34853-10.87875,6.33372-.34898-2.98519-3.13447-5.58728-10.87874-6.33372z" fill="url(#radialGradient50003)" fill-rule="evenodd" stroke="#000" stroke-width="1.56388"/>
<path d="m97.07299,137.76569c-7.38166.75987-15.28881,4.07863-20.62368,7.57505 8.07979,3.73668 17.95886,6.0395 28.6679,6.30439 1.37223-1.80546 2.60153-4.01925 2.83453-6.15778 .23115,2.11852 1.43164,4.31257 2.78567,6.10891 10.53308-.44597 20.2074-2.86057 28.08144-6.66604-5.31574-3.34393-12.89335-6.43417-19.98836-7.16453-7.74427.74644-10.52977,3.34852-10.87875,6.33372-.34898-2.9852-3.13447-5.58729-10.87875-6.33372z" fill-opacity=".3137" fill-rule="evenodd"/>
<g transform="translate(.81325,-1.78828)">
<path d="m158.16538,96.04927a51.78453,51.78453 0 0,1 -103.56906,0 51.78453,51.78453 0 1,1 103.56906,0z" fill="url(#radialGradient4798)" stroke="#000" stroke-linecap="round" stroke-width="1.56388"/>
<path d="m131.97776,121.94152a25.10467,25.10467 0 1,1 -50.20934,0 25.10467,25.10467 0 1,1 50.20934,0z" fill="#fff" stroke="#000" stroke-linecap="round" stroke-width="1.56388"/>
<path d="m95.74903,61.59003c-7.17344,0-12.99976,6.70406-12.99976,14.96439s5.82632,14.96439 12.99976,14.96439c4.21564,0 7.95658-2.31783 10.3314-5.90365 2.37465,3.58842 6.12373,5.90365 10.34116,5.90365 7.17344,0 12.99976-6.70407 12.99976-14.96439s-5.82632-14.96439-12.99976-14.96439c-4.21693,0-7.96647,2.31594-10.34116,5.90365-2.37486-3.58504-6.11629-5.90365-10.3314-5.90365z" fill="#fff" stroke="#000" stroke-linecap="round" stroke-width="1.56388"/>
<path d="m103.80838,79.19083a3.24884,3.24884 0 1,1 -6.49768,0 3.24884,3.24884 0 1,1 6.49768,0z" stroke="#000" stroke-linecap="round" stroke-width="1.56388"/>
<path d="m115.43822,79.19083a3.24884,3.24884 0 0,1 -6.49768,0 3.24884,3.24884 0 1,1 6.49768,0z" stroke="#000" stroke-linecap="round" stroke-width="1.56388"/>
</g>
<g transform="translate(.81325,-1.78828)">
<path d="m59.53251,75.97799c.80898-2.167 1.61604-4.23172 2.82352-6.73754l11.69335,23.3096c1.77339,3.15217 2.3241,2.89893 5.4863,4.02113 15.88585,4.60043 31.36015,9.08885 56.30248-1.51561 3.72784-12.79083 9.32294-18.56517 15.18151-24.44594 1.16742,2.05175 1.92409,4.49643 2.16632,5.60003-4.53055,5.43712-9.07423,9.31358-12.40333,23.11916 1.733,8.04157 2.95533,22.75607-4.33996,40.5574-18.18959,9.68741-39.82856,10.99881-61.11857-.40158-4.30455-11.81882-8.04336-31.18432-7.03924-43.45962z" fill="#548074" stroke="#000" stroke-linecap="round" stroke-linejoin="round" stroke-width="1.48179"/>
<path d="m76.02446,105.10878c18.20526,4.87515 39.13953,6.36068 57.70854-.16412 1.73793,10.0923-4.05987,28.87406-5.82652,32.73976-17.06227,5.71112-28.65962,5.90159-45.89135.49237-2.95404-10.24087-8.0597-22.79937-5.99068-33.06801z" fill="#ececec" stroke="#000" stroke-linecap="round" stroke-linejoin="round" stroke-width="1.61008"/>
<g fill="#006b00" transform="matrix(.00989,.03562,-.03562,.00989,104.50475,164.84184)">
<path d="m-831.77907-648.90146c-24.27348,12.36096-6.74235-37.91311-31.84306-30.1272s-15.83031,55.37948-42.10219,55.20692 15.43389-37.80187-10.01316-43.61318-36.5721,40.04718-59.96144,25.0942 39.20305-28.5085 22.05598-50.03388-54.27456,23.83688-61.82506-2.7719 38.21899-29.15413 38.96107-56.81115-42.67837,11.98561-36.82187-14.69336 42.68944,6.58982 55.76667-17.67962-53.10177-40.80848-32.47683-57.97613 32.12743,27.25699 55.41343,13.42248-5.4607-29.2988 20.21505-37.40595 1.18086,38.94565 27.09239,37.17578 17.66034-56.06817 42.79855-47.40042-13.89863,44.99644 7.08891,60.91251 27.98226-42.45809 45.71456-23.6497-45.23419,28.73447-34.21323,53.53221 57.75012-9.08212 59.60484,16.8425-49.73361,8.23992-53.32417,35.68266 51.40355,18.1647 40.47101,41.58008-38.98123-27.7282-56.87198-9.03175 28.544,39.38394 4.27053,51.7449z" fill="#006b00"/>
<path d="m420.71429,258.43362c0,8.48152-5.91624,15.35715-13.21429,15.35715s-13.21429-6.87563-13.21429-15.35715 5.91624-15.35714 13.21429-15.35714 13.21429,6.87563 13.21429,15.35714z" fill="#006b00" transform="matrix(-.16775,-1.03282,-1.22957,.14834,-671.47025,-383.62127)"/>
<path d="m420.71429,258.43362c0,8.48152-5.91624,15.35715-13.21429,15.35715s-13.21429-6.87563-13.21429-15.35715 5.91624-15.35714 13.21429-15.35714 13.21429,6.87563 13.21429,15.35714z" fill="#006b00" transform="matrix(-.85294,-.60609,-.75811,.97934,-225.84236,-866.53423)"/>
<path d="m441.42858,598.43359c0,9.2705-6.07614,16.78572-13.57143,16.78572s-13.57143-7.51522-13.57143-16.78572 6.07613-16.78571 13.57143-16.78571 13.57143,7.51522 13.57143,16.78571z" fill="#006b00" transform="matrix(.47276,-.77864,1.08661,.58772,-1590.8151,-690.46227)"/>
<path d="m441.42858,598.43359c0,9.2705-6.07614,16.78572-13.57143,16.78572s-13.57143-7.51522-13.57143-16.78572 6.07613-16.78571 13.57143-16.78571 13.57143,7.51522 13.57143,16.78571z" fill="#006b00" transform="matrix(.73223,-.5356,.52103,.97088,-1440.8932,-967.39045)"/>
</g>
<g fill="#f90000" transform="matrix(.04404,0,0,.04404,128.73914,156.26337)">
<path d="m-831.77907-648.90146c-24.27348,12.36096-6.74235-37.91311-31.84306-30.1272s-15.83031,55.37948-42.10219,55.20692 15.43389-37.80187-10.01316-43.61318-36.5721,40.04718-59.96144,25.0942 39.20305-28.5085 22.05598-50.03388-54.27456,23.83688-61.82506-2.7719 38.21899-29.15413 38.96107-56.81115-42.67837,11.98561-36.82187-14.69336 42.68944,6.58982 55.76667-17.67962-53.10177-40.80848-32.47683-57.97613 32.12743,27.25699 55.41343,13.42248-5.4607-29.2988 20.21505-37.40595 1.18086,38.94565 27.09239,37.17578 17.66034-56.06817 42.79855-47.40042-13.89863,44.99644 7.08891,60.91251 27.98226-42.45809 45.71456-23.6497-45.23419,28.73447-34.21323,53.53221 57.75012-9.08212 59.60484,16.8425-49.73361,8.23992-53.32417,35.68266 51.40355,18.1647 40.47101,41.58008-38.98123-27.7282-56.87198-9.03175 28.544,39.38394 4.27053,51.7449z" fill="#f90000"/>
<path d="m420.71429,258.43362c0,8.48152-5.91624,15.35715-13.21429,15.35715s-13.21429-6.87563-13.21429-15.35715 5.91624-15.35714 13.21429-15.35714 13.21429,6.87563 13.21429,15.35714z" fill="#f90000" transform="matrix(-.16775,-1.03282,-1.22957,.14834,-671.47025,-383.62127)"/>
<path d="m420.71429,258.43362c0,8.48152-5.91624,15.35715-13.21429,15.35715s-13.21429-6.87563-13.21429-15.35715 5.91624-15.35714 13.21429-15.35714 13.21429,6.87563 13.21429,15.35714z" fill="#f90000" transform="matrix(-.85294,-.60609,-.75811,.97934,-225.84236,-866.53423)"/>
<path d="m441.42858,598.43359c0,9.2705-6.07614,16.78572-13.57143,16.78572s-13.57143-7.51522-13.57143-16.78572 6.07613-16.78571 13.57143-16.78571 13.57143,7.51522 13.57143,16.78571z" fill="#f90000" transform="matrix(.47276,-.77864,1.08661,.58772,-1590.8151,-690.46227)"/>
<path d="m441.42858,598.43359c0,9.2705-6.07614,16.78572-13.57143,16.78572s-13.57143-7.51522-13.57143-16.78572 6.07613-16.78571 13.57143-16.78571 13.57143,7.51522 13.57143,16.78571z" fill="#f90000" transform="matrix(.73223,-.5356,.52103,.97088,-1440.8932,-967.39045)"/>
</g>
<g transform="matrix(-.00834,.06242,-.07328,-.00711,41.43158,168.23947)">
<path d="m-831.77907-648.90146c-24.27348,12.36096-6.74235-37.91311-31.84306-30.1272s-15.83031,55.37948-42.10219,55.20692 15.43389-37.80187-10.01316-43.61318-36.5721,40.04718-59.96144,25.0942 39.20305-28.5085 22.05598-50.03388-54.27456,23.83688-61.82506-2.7719 38.21899-29.15413 38.96107-56.81115-42.67837,11.98561-36.82187-14.69336 42.68944,6.58982 55.76667-17.67962-53.10177-40.80848-32.47683-57.97613 32.12743,27.25699 55.41343,13.42248-5.4607-29.2988 20.21505-37.40595 1.18086,38.94565 27.09239,37.17578 17.66034-56.06817 42.79855-47.40042-13.89863,44.99644 7.08891,60.91251 27.98226-42.45809 45.71456-23.6497-45.23419,28.73447-34.21323,53.53221 57.75012-9.08212 59.60484,16.8425-49.73361,8.23992-53.32417,35.68266 51.40355,18.1647 40.47101,41.58008-38.98123-27.7282-56.87198-9.03175 28.544,39.38394 4.27053,51.7449z" fill="#00f"/>
<path d="m420.71429,258.43362c0,8.48152-5.91624,15.35715-13.21429,15.35715s-13.21429-6.87563-13.21429-15.35715 5.91624-15.35714 13.21429-15.35714 13.21429,6.87563 13.21429,15.35714z" fill="#00f" transform="matrix(-.16775,-1.03282,-1.22957,.14834,-671.47025,-383.62127)"/>
<path d="m420.71429,258.43362c0,8.48152-5.91624,15.35715-13.21429,15.35715s-13.21429-6.87563-13.21429-15.35715 5.91624-15.35714 13.21429-15.35714 13.21429,6.87563 13.21429,15.35714z" fill="#00f" transform="matrix(-.85294,-.60609,-.75811,.97934,-225.84236,-866.53423)"/>
<path d="m441.42858,598.43359c0,9.2705-6.07614,16.78572-13.57143,16.78572s-13.57143-7.51522-13.57143-16.78572 6.07613-16.78571 13.57143-16.78571 13.57143,7.51522 13.57143,16.78571z" fill="#00f" transform="matrix(.47276,-.77864,1.08661,.58772,-1590.8151,-690.46227)"/>
<path d="m441.42858,598.43359c0,9.2705-6.07614,16.78572-13.57143,16.78572s-13.57143-7.51522-13.57143-16.78572 6.07613-16.78571 13.57143-16.78571 13.57143,7.51522 13.57143,16.78571z" fill="#00f" transform="matrix(.73223,-.5356,.52103,.97088,-1440.8932,-967.39045)"/>
</g>
</g>
<g transform="translate(.81325,-1.78828)">
<path d="m106.70185,87.40023c-4.52869,0-9.45118,4.12432-9.25428,6.72915s8.07288,13.4583 9.84497,13.4583 8.66357-10.6364 8.46668-13.67537-6.10389-6.72915-9.05737-6.51208z" fill-opacity=".3137" fill-rule="evenodd"/>
<path d="m105.98705,84.79115c-4.52869,0-9.45117,3.74109-9.25427,6.10388s8.07287,12.20776 9.84497,12.20776 8.66358-9.64807 8.46668-12.40466-6.10388-6.10388-9.05737-5.90698z" fill="url(#linearGradient7366)" fill-rule="evenodd" stroke="#000" stroke-width="1.56388"/>
</g>
<path d="m156.94032,79.86299c.10511,1.34645.0204,2.71034.16616,4.07587 3.59248,33.65494-22.89646,54.30173-56.25807,54.28401-2.32576,1.00517-20.13638,3.61205-18.02612-4.42105 6.91517-.0601 12.17255-15.50499 1.53927-23.0741-11.54093-5.98032-8.79311-10.00883-32.89721-14.35567 1.71661,27.32098 27.02307,50.7751 55.725,49.67243 34.47397-1.32442 52.64729-23.03892 51.79379-51.78401-.14826-4.99323-.72088-9.82608-2.04282-14.39748z" fill-opacity=".3137"/>
<path d="m65.06502,108.79418c-.26219.0504-.4365.10861-.47536.17621-.13224.22778 1.9869.41319 3.3607.65561 .70056.12361 1.43624.238 2.1879.34345 .09955-.42519.19992-.8438.30551-1.25641l-2.49116-.10598c-.57968-.024-2.10002.0407-2.8876.18712zm-1.6265,7.82878c-.05447.0104-.08005.029-.07311.0612 .06416.30558 2.34867,1.16849 3.09371,1.3765l2.24207.62537c.04226-.42411.08773-.83673.13659-1.25223-.70667-.12337-1.39671-.24544-2.06443-.33888-1.20887-.16908-2.9546-.55087-3.33483-.47195z" fill-opacity=".3137"/>
<g transform="translate(10.81325,-1.78828)">
<path d="m139.24404,125.80274c-12.70193,2.55595-25.38964,5.93275-37.87235,9.39167-1.5473,1.56217-6.72171-1.34218-11.00327.55572-2.74618,1.40404-8.22389,4.48111-5.50163,7.97459 4.50824,3.22856 12.65952,2.6483 16.23689-1.92217 9.79157.0447 18.09652-3.96343 27.69605-5.6345 12.77883-3.69352 21.61153-5.03606 22.37055-9.31896 .49004-3.15461-9.64736-2.02814-11.92624-1.04635z"/>
<g transform="matrix(.06084,-.08577,.08577,.06084,18.36753,198.73089)">
<path d="m962.0248-382.49533h342.85716a72.85714,22.85714 0 0,1 72.85714,22.85714 72.85714,22.85714 0 0,1 -72.85714,22.85714h-342.85716a72.85714,22.85714 0 0,1 -72.85714-22.85714 72.85714,22.85714 0 0,1 72.85714-22.85714" fill="#a05a2c" transform="rotate(40.6189)"/>
<path d="m845.21922-4.30457h52.75963a24.81266,51.19246 0 0,1 24.81266,51.19246v4.39974a24.81266,51.19246 0 0,1 -24.81266,51.19246h-52.75963a24.81266,51.19246 0 0,1 -24.81266-51.19246v-4.39974a24.81266,51.19246 0 0,1 24.81266-51.19246" fill="#008eff" transform="matrix(.96907,.24679,.38008,.92496,0,0)"/>
<path d="m845.21922-4.30457h52.75963a24.81266,51.19246 0 0,1 24.81266,51.19246v4.39974a24.81266,51.19246 0 0,1 -24.81266,51.19246h-52.75963a24.81266,51.19246 0 0,1 -24.81266-51.19246v-4.39974a24.81266,51.19246 0 0,1 24.81266-51.19246" fill="url(#linearGradient50005)" transform="matrix(.96907,.24679,.38008,.92496,0,0)"/>
<path d="m940.49236,309.56731c-.86027-.42317-1.71091-.82915-2.55108-1.2175-.87186-.403-1.73246-.78702-2.58084-1.1516-.88474-.38019-1.75619-.73923-2.61331-1.07658-.89887-.35378-1.78196-.68371-2.64806-.98916-.91404-.32236-1.80915-.61747-2.68389-.88459-.93137-.28441-1.83964-.5371-2.72309-.75718-.95032-.23675-3.1219-.97148-4.0126-1.13169-4.48663-.97928-6.33786,1.5479-8.82668,3.78163-2.2325,2.00369-5.36178,3.42238-4.98608,7.66259 .12614.91613.32262,1.87634.58676,2.87688 .23824.90241.53153,1.83762.87791,2.80289 .31764.88521.67994,1.7957 1.08539,2.72934 .37698.86811.79126,1.75624 1.24164,2.66268 .42294.85124.87771,1.71864 1.3633,2.60078 .4602.836.94809,1.68525 1.4628,2.54653 .49122.82198 1.00688,1.65492 1.54623,2.49778 .51767.80898 1.05718,1.62711 1.61785,2.45345 6.36006-10.01303 14.67653-17.89973 23.84375-25.40625" fill="#b3b3b3"/>
<path d="m940.49236,309.56731c-.86027-.42317-1.71091-.82915-2.55108-1.2175-.87186-.403-1.73246-.78702-2.58084-1.1516-.88474-.38019-1.75619-.73923-2.61331-1.07658-.89887-.35378-1.78196-.68371-2.64806-.98916-.91404-.32236-1.80915-.61747-2.68389-.88459-.93137-.28441-1.83964-.5371-2.72309-.75718-.95032-.23675-3.1219-.97148-4.0126-1.13169-4.48663-.97928-6.33786,1.5479-8.82668,3.78163-2.2325,2.00369-5.36178,3.42238-4.98608,7.66259 .12614.91613.32262,1.87634.58676,2.87688 .23824.90241.53153,1.83762.87791,2.80289 .31764.88521.67994,1.7957 1.08539,2.72934 .37698.86811.79126,1.75624 1.24164,2.66268 .42294.85124.87771,1.71864 1.3633,2.60078 .4602.836.94809,1.68525 1.4628,2.54653 .49122.82198 1.00688,1.65492 1.54623,2.49778 .51767.80898 1.05718,1.62711 1.61785,2.45345 6.36006-10.01303 14.67653-17.89973 23.84375-25.40625" fill="url(#linearGradient50007)"/>
<path d="m940.49236,309.56731c-.86027-.42317-1.71091-.82915-2.55108-1.2175-.87186-.403-1.73246-.78702-2.58084-1.1516-.88474-.38019-1.75619-.73923-2.61331-1.07658-.89887-.35378-1.78196-.68371-2.64806-.98916-.91404-.32236-1.80915-.61747-2.68389-.88459-.93137-.28441-1.83964-.5371-2.72309-.75718-.95032-.23675-3.1219-.97148-4.0126-1.13169-4.48663-.97928-6.33786,1.5479-8.82668,3.78163-2.2325,2.00369-5.36178,3.42238-4.98608,7.66259 .12614.91613.32262,1.87634.58676,2.87688 .23824.90241.53153,1.83762.87791,2.80289 .31764.88521.67994,1.7957 1.08539,2.72934 .37698.86811.79126,1.75624 1.24164,2.66268 .42294.85124.87771,1.71864 1.3633,2.60078 .4602.836.94809,1.68525 1.4628,2.54653 .49122.82198 1.00688,1.65492 1.54623,2.49778 .51767.80898 1.05718,1.62711 1.61785,2.45345 6.36006-10.01303 14.67653-17.89973 23.84375-25.40625" fill="url(#linearGradient50009)"/>
<path d="m940.49236,309.56731c-.86027-.42317-1.71091-.82915-2.55108-1.2175-.87186-.403-1.73246-.78702-2.58084-1.1516-.88474-.38019-1.75619-.73923-2.61331-1.07658-.89887-.35378-1.78196-.68371-2.64806-.98916-.91404-.32236-1.80915-.61747-2.68389-.88459-.93137-.28441-1.83964-.5371-2.72309-.75718-.95032-.23675-3.1219-.97148-4.0126-1.13169-4.48663-.97928-6.33786,1.5479-8.82668,3.78163-2.2325,2.00369-5.36178,3.42238-4.98608,7.66259 .12614.91613.32262,1.87634.58676,2.87688 .23824.90241.53153,1.83762.87791,2.80289 .31764.88521.67994,1.7957 1.08539,2.72934 .37698.86811.79126,1.75624 1.24164,2.66268 .42294.85124.87771,1.71864 1.3633,2.60078 .4602.836.94809,1.68525 1.4628,2.54653 .49122.82198 1.00688,1.65492 1.54623,2.49778 .51767.80898 1.05718,1.62711 1.61785,2.45345 6.36006-10.01303 14.67653-17.89973 23.84375-25.40625" fill="url(#linearGradient50011)"/>
<path d="m845.21922-4.30457h52.75963a24.81266,51.19246 0 0,1 24.81266,51.19246v4.39974a24.81266,51.19246 0 0,1 -24.81266,51.19246h-52.75963a24.81266,51.19246 0 0,1 -24.81266-51.19246v-4.39974a24.81266,51.19246 0 0,1 24.81266-51.19246" fill="url(#linearGradient50013)" transform="matrix(.96907,.24679,.38008,.92496,0,0)"/>
<path d="m962.0248-382.49533h342.85716a72.85714,22.85714 0 0,1 72.85714,22.85714 72.85714,22.85714 0 0,1 -72.85714,22.85714h-342.85716a72.85714,22.85714 0 0,1 -72.85714-22.85714 72.85714,22.85714 0 0,1 72.85714-22.85714" fill="url(#linearGradient50015)" transform="rotate(40.6189)"/>
<path d="m962.0248-382.49533h342.85716a72.85714,22.85714 0 0,1 72.85714,22.85714 72.85714,22.85714 0 0,1 -72.85714,22.85714h-342.85716a72.85714,22.85714 0 0,1 -72.85714-22.85714 72.85714,22.85714 0 0,1 72.85714-22.85714" fill="url(#linearGradient50017)" transform="rotate(40.6189)"/>
</g>
</g>
<g transform="matrix(.28434,-.04406,.0467,.30135,-335.43705,37.88328)">
<path d="m1344.6232,353.74413c48.1112,17.30003-14.1635,94.14271 37.8191,161.19179 9.6084,12.39327-57.868,2.09078-81.7228-66.58505-23.1983-66.78576-1.1323-107.53908 43.9037-94.60674z" fill="#fff" fill-rule="evenodd" stroke="#000" stroke-width="5"/>
<path d="m1344.6232,353.74413c48.1112,17.30003-42.5884,102.12367 37.8191,161.19179 22.6265,16.62162-57.868,2.09078-81.7228-66.58505-23.1983-66.78576-1.1323-107.53908 43.9037-94.60674z" fill="url(#radialGradient4977)" fill-rule="evenodd" stroke="#000" stroke-width="5"/>
</g>
<g transform="translate(.81325,-1.78828)">
<path d="m55.62155,101.86075c-14.43289-.23291-29.36764,11.37477-28.49087,26.66175 .44335,12.77774 14.85206,20.68351 26.47574,17.11313 5.30089-.84246 9.62611-4.8224 13.79591-7.22348 8.91075.53318 20.89272-4.00531 21.08139-14.41594-1.03606-14.99142-19.87455-22.57096-32.86216-22.13546zm14.13693,23.00351c3.39849-1.02113 7.72601,4.25023 3.25521,5.70438-2.70047,1.70988-9.22201-1.3355-6.38642-4.5573 .82716-.78789 1.99957-1.14471 3.13121-1.14708z" fill="#1a1a1a"/>
<g transform="matrix(.10063,0,0,.08698,66.77056,86.02311)">
<path d="m-26.76013,461.0966 7.82868-10.35406 6.06091-6.81853 5.80838-4.29316 8.08122-4.54568 9.84899-3.53554 10.85914-2.27284 9.34391-.25254 8.83883.75762 8.08122,1.51523 11.11168,3.53553 8.33376,4.04061 6.06092,3.283 6.56599,5.3033 4.79822,4.04061 4.54569,5.3033 5.3033,7.82868 2.77792,4.54569 2.52538,6.31345 2.02031,6.81853 1.26269,13.63706 3.78807-11.11168-6.31346-29.04188-22.22335-25.00128-41.41626-10.10153-35.60787,5.05077-28.78935,28.28427 .50508,7.07107z" fill="#cc8e4a" fill-rule="evenodd"/>
<path d="m22.72783,227.77675c-65.24724-26.06396-132.87567-30.63657-188.15951-16.17879-75.79036,13.26355-148.5107,68.72877-186.43098,151.08542-55.63462,120.82929-15.39746,254.01531 89.83334,297.29763 85.6348,35.22232 188.05492.0816 253.20811-79.33693 84.77631,6.07786 160.36455-23.56115 192.14521-83.10561 46.2696-86.69097-17.76305-204.13601-142.91322-262.13989-5.86642-2.71892-11.76613-5.25827-17.68295-7.62182zm38.87831,202.22532c33.82245,13.91147 50.38649,48.76738 37.00567,77.82835s-51.67214,41.39312-85.49459,27.48165-50.40596-48.81412-37.02514-77.87509 51.69161-41.34639 85.51406-27.43491z" fill="#cca24a"/>
<path d="m22.72783,227.77675c-65.24724-26.06396-132.87567-30.63657-188.15951-16.17879-75.79036,13.26355-148.5107,68.72877-186.43098,151.08542-55.63462,120.82929-15.39746,254.01531 89.83334,297.29763 85.6348,35.22232 188.05492.0816 253.20811-79.33693 84.77631,6.07786 160.36455-23.56115 192.14521-83.10561 46.2696-86.69097-17.76305-204.13601-142.91322-262.13989-5.86642-2.71892-11.76613-5.25827-17.68295-7.62182zm38.87831,202.22532c33.82245,13.91147 50.38649,48.76738 37.00567,77.82835s-51.67214,41.39312-85.49459,27.48165-50.40596-48.81412-37.02514-77.87509 51.69161-41.34639 85.51406-27.43491z" fill="url(#linearGradient8652)"/>
<path d="m22.72783,227.77675c-65.24724-26.06396-132.87567-30.63657-188.15951-16.17879-75.79036,13.26355-148.5107,68.72877-186.43098,151.08542-55.63462,120.82929-15.39746,254.01531 89.83334,297.29763 85.6348,35.22232 188.05492.0816 253.20811-79.33693 84.77631,6.07786 160.36455-23.56115 192.14521-83.10561 46.2696-86.69097-17.76305-204.13601-142.91322-262.13989-5.86642-2.71892-11.76613-5.25827-17.68295-7.62182zm38.87831,202.22532c33.82245,13.91147 50.38649,48.76738 37.00567,77.82835s-51.67214,41.39312-85.49459,27.48165-50.40596-48.81412-37.02514-77.87509 51.69161-41.34639 85.51406-27.43491z" fill="url(#linearGradient8654)"/>
<path d="m-110.1733,258.05633c-15.29519,0-28.89559,6.49406-37.64816,16.59466-21.5393,10.04324-33.85696,29.47145-27.87445,45.23793 5.03545,13.26987 21.55554,20.02133 40.31671,17.99344 .008.005.0241-.004.0321,0 7.12632,3.99859 15.49545,6.3345 24.46632,6.45348 .14397.10048.27327.21826.41808.31791 21.6627,14.90105 47.77327,14.90105 58.25654,0 8.67336-12.32838 3.9304-31.00077-10.22383-45.52405-1.21109-22.85322-22.13207-41.07337-47.74333-41.07337z" fill="#f00"/>
<path d="m-271.39034,333.84523c13.26347,0 25.05725,6.49406 32.64718,16.59466 18.67814,10.04325 29.35958,29.47145 24.17176,45.23793-4.36657,13.26988-18.69221,20.02134-34.96126,17.99345h-.0278c-6.17971,3.99859-13.43712,6.33449-21.21635,6.45348-.12485.10048-.23697.21825-.36255.3179-18.78513,14.90106-41.42731,14.90105-50.51805,0-7.52122-12.32837-3.40829-31.00078 8.86575-45.52404 1.05022-22.85322 19.19217-41.07337 41.40136-41.07338z" fill="#00f"/>
<path d="m-246.99368,568.82855c0,14.45614 6.07211,27.31045 15.51645,35.58288 9.39069,20.35772 27.55656,31.99968 42.29865,26.34535 12.40768-4.75923 18.72046-20.37307 16.82434-38.10506 .004-.008-.004-.0227 0-.0304 3.73879-6.73539 5.92292-14.64543 6.03418-23.12417 .0939-.13608.20406-.25829.29723-.39516 13.93289-20.47435 13.93288-45.15256 0-55.06076-11.52735-8.19756-28.98654-3.71479-42.56616,9.66298-21.36837,1.14466-38.40469,20.91798-38.40469,45.12428z" fill="#008000"/>
<path d="m-110.17331,468.36458c-15.2952,0-28.89559-5.30756-37.64816-13.56274-21.5393-8.20829-33.85696-24.08687-27.87445-36.97275 5.03545-10.84541 21.55553-16.36335 40.31671-14.70597h.0321c7.12633-3.26802 15.49546-5.17715 24.46633-5.27439 .14397-.0821.27327-.17838.41808-.25982 21.6627-12.17857 47.77327-12.17856 58.25654,0 8.67336,10.07593 3.9304,25.3368-10.22383,37.2066-1.21109,18.67782-22.13208,33.56907-47.74333,33.56907z" fill="#fff"/>
<path d="m69.2142,290.2092c12.65395,0 23.90576,5.41543 31.14689,13.83837 17.81978,8.37511 28.01036,24.57638 23.06095,37.72413-4.16591,11.06582-17.83323,16.6959-33.35463,15.00484h-.0266c-5.89572,3.33443-12.81962,5.28235-20.24135,5.38159-.11911.0838-.22608.18199-.34589.26509-17.92187,12.42606-39.52352,12.42606-48.19649,0-7.17561-10.28069-3.25169-25.8517 8.45831-37.96272 1.00196-19.05742 18.31021-34.25129 39.49877-34.25129z" fill="#1a1a1a"/>
<path d="m-110.17331,468.36458c-15.2952,0-28.89559-5.30756-37.64816-13.56274-21.5393-8.20829-33.85696-24.08687-27.87445-36.97275 5.03545-10.84541 21.55553-16.36335 40.31671-14.70597h.0321c7.12633-3.26802 15.49546-5.17715 24.46633-5.27439 .14397-.0821.27327-.17838.41808-.25982 21.6627-12.17857 47.77327-12.17856 58.25654,0 8.67336,10.07593 3.9304,25.3368-10.22383,37.2066-1.21109,18.67782-22.13208,33.56907-47.74333,33.56907z" fill="url(#linearGradient8656)"/>
<path d="m-271.39034,333.84523c13.26347,0 25.05725,6.49406 32.64718,16.59466 18.67814,10.04325 29.35958,29.47145 24.17176,45.23793-4.36657,13.26988-18.69221,20.02134-34.96126,17.99345h-.0278c-6.17971,3.99859-13.43712,6.33449-21.21635,6.45348-.12485.10048-.23697.21825-.36255.3179-18.78513,14.90106-41.42731,14.90105-50.51805,0-7.52122-12.32837-3.40829-31.00078 8.86575-45.52404 1.05022-22.85322 19.19217-41.07337 41.40136-41.07338z" fill="url(#linearGradient8658)"/>
<path d="m-110.1733,258.05633c-15.29519,0-28.89559,6.49406-37.64816,16.59466-21.5393,10.04324-33.85696,29.47145-27.87445,45.23793 5.03545,13.26987 21.55554,20.02133 40.31671,17.99344 .008.005.0241-.004.0321,0 7.12632,3.99859 15.49545,6.3345 24.46632,6.45348 .14397.10048.27327.21826.41808.31791 21.6627,14.90105 47.77327,14.90105 58.25654,0 8.67336-12.32838 3.9304-31.00077-10.22383-45.52405-1.21109-22.85322-22.13207-41.07337-47.74333-41.07337z" fill="url(#linearGradient8660)"/>
<path d="m69.2142,290.2092c12.65395,0 23.90576,5.41543 31.14689,13.83837 17.81978,8.37511 28.01036,24.57638 23.06095,37.72413-4.16591,11.06582-17.83323,16.6959-33.35463,15.00484h-.0266c-5.89572,3.33443-12.81962,5.28235-20.24135,5.38159-.11911.0838-.22608.18199-.34589.26509-17.92187,12.42606-39.52352,12.42606-48.19649,0-7.17561-10.28069-3.25169-25.8517 8.45831-37.96272 1.00196-19.05742 18.31021-34.25129 39.49877-34.25129z" fill="url(#linearGradient8662)"/>
<path d="m-246.99368,568.82855c0,14.45614 6.07211,27.31045 15.51645,35.58288 9.39069,20.35772 27.55656,31.99968 42.29865,26.34535 12.40768-4.75923 18.72046-20.37307 16.82434-38.10506 .004-.008-.004-.0227 0-.0304 3.73879-6.73539 5.92292-14.64543 6.03418-23.12417 .0939-.13608.20406-.25829.29723-.39516 13.93289-20.47435 13.93288-45.15256 0-55.06076-11.52735-8.19756-28.98654-3.71479-42.56616,9.66298-21.36837,1.14466-38.40469,20.91798-38.40469,45.12428z" fill="url(#linearGradient8664)"/>
</g>
<path d="m64.62981,128.12158c2.39719-1.53781 5.57078-4.86324 7.02018-4.51465 3.17504-.0393 6.07934,4.49135 10.26885,10.94055-2.26341-.1573-3.7126,3.2121-10.15642,1.17669-6.37226-1.35311-7.15515-5.64295-7.13261-7.60259z" stroke="#000" stroke-width=".31278"/>
</g>
<g transform="matrix(.41878,-.083,.09666,.3596,94.5473,-125.52973)">
<path d="m-483.30749,115.6393c-20.02674-.0411-87.17542-27.38997-83.08504-73.89266-1.66515-17.20092 74.52343-21.0816 101.70934-2.72367 36.75162,18.54093 53.97796,54.48891 50.31862,68.48461-19.50131,36.18686-41.98376,17.45819-68.94292,8.13172z" fill="#a40" stroke="#321605" stroke-width="3.9" transform="translate(429.74043,389.46617)"/>
<path d="m-32.94152,429.21302c-12.02979,5.82392-8.38251,13.2436-3.84919,17.46941 6.49423,3.74366 11.86332,1.48656 15.98894-7.40229-.63992-3.57811.42628-9.98812-12.13975-10.06712z" fill="#6f2d00" filter="url(#filter8506)" transform="matrix(.88847,0,0,.88847,-3.1569,49.64667)"/>
<path d="m-37.72636,425.65148c-12.02979,5.82392-8.38251,13.2436-3.84919,17.46941 6.49423,3.74366 11.86331,1.48656 15.98894-7.40229-.63992-3.57811.42627-9.98812-12.13975-10.06712z" fill="#a40" stroke="#4a2108" stroke-width="3.9"/>
<path d="m-557.20014,63.66696c26.24518,17.41574 50.87535,32.95768 76.36753,29.34494 30.95966,22.32958 44.14056,11.41274 61.16473,1.06066-1.67058,13.05219 1.14636,43.1366-57.98275,21.2132-69.13829-20.58895-66.4511-35.47746-79.54951-51.61879z" fill="#833400" filter="url(#filter8404)" transform="translate(429.74043,389.46617)"/>
</g>
<g transform="matrix(.30494,0,0,.30494,-337.65212,-22.6817)">
<path d="m1592.5805,353.74413c-48.1112,17.30003 14.1634,94.14271-37.8192,161.19179-9.6084,12.39327 57.868,2.09078 81.7228-66.58505 23.1983-66.78576 1.1324-107.53908-43.9036-94.60674z" fill="#fff" fill-rule="evenodd" stroke="#000" stroke-width="5"/>
<path d="m1592.5805,353.74413c-48.1112,17.30003 42.5883,102.12367-37.8192,161.19179-22.6264,16.62162 57.868,2.09078 81.7228-66.58505 23.1983-66.78576 1.1324-107.53908-43.9036-94.60674z" fill="url(#radialGradient4937)" fill-rule="evenodd" stroke="#000" stroke-width="5"/>
</g>
<path d="m81.28812,132.20047c-1.21099.32961-8.17858-9.67429-9.9563-9.78679 4.00672-.1447 6.47873,5.26288 9.9563,9.78679z" fill="#fff"/>
</g>
</svg>
