<?xml version="1.0" encoding="UTF-8" standalone="no"?>
<svg viewBox="0 0 185.19554 142.90643" xmlns="http://www.w3.org/2000/svg" xmlns:xlink="http://www.w3.org/1999/xlink">
<defs>
<linearGradient id="linearGradient10698">
<stop offset="0" stop-color="#fff"/>
<stop offset=".2895" stop-color="#97fa89"/>
<stop offset="1" stop-color="#2fdf00"/>
</linearGradient>
<linearGradient gradientUnits="userSpaceOnUse" id="linearGradient10749" x1="263.87549" x2="268.18799">
<stop offset="0" stop-color="#aeaeae"/>
<stop offset="1" stop-color="#7fadb5"/>
</linearGradient>
<linearGradient id="linearGradient4189">
<stop offset="0" stop-color="#1a1a1a"/>
<stop offset="1" stop-color="#1a1a1a" stop-opacity="0"/>
</linearGradient>
<linearGradient gradientTransform="matrix(.06821,-.00909,.00909,.06821,184.44595,536.97675)" gradientUnits="userSpaceOnUse" id="linearGradient11857" x1="-351.44992" x2="-357.12146" y1="550.93256" y2="39.50396">
<stop offset="0" stop-color="#1a1a1a"/>
<stop offset="1" stop-color="#606060"/>
</linearGradient>
<linearGradient gradientTransform="matrix(.18569,0,0,.12596,211.45538,446.20171)" gradientUnits="userSpaceOnUse" id="linearGradient11748" x1="205.55777" x2="205.08986" xlink:href="#linearGradient4189" y1="702.31812" y2="798.80164"/>
<linearGradient gradientUnits="userSpaceOnUse" id="linearGradient11752" x1="247.76383" x2="247.55113" xlink:href="#linearGradient4189" y1="559.93009" y2="548.29224"/>
<radialGradient cx="618.58087" cy="536.6554" gradientTransform="matrix(.01944,-.0029,.00309,.00952,233.7903,531.67182)" gradientUnits="userSpaceOnUse" id="radialGradient11750" r="110.89566">
<stop offset="0"/>
<stop offset="1" stop-opacity="0"/>
</radialGradient>
<radialGradient cx="261.08782" cy="476.42027" gradientUnits="userSpaceOnUse" id="radialGradient10757" r="5.74997" xlink:href="#linearGradient10698"/>
<radialGradient cx="277.69497" cy="476.42027" gradientUnits="userSpaceOnUse" id="radialGradient10757-9" r="5.74997" xlink:href="#linearGradient10698"/>
</defs>
<g opacity=".77" transform="translate(-143.59625,-435.975)">
<g transform="translate(172.09425,161.74456)">
<path d="m81.78118,385.54273c-15.66752,1.61282-33.63754,14.29091-26.49499,17.05577s27.87304,3.91808 31.78992.69241c2.01274-1.65755 5.61385-5.80874 6.03825-9.70397 .42497,3.89491 4.01553,8.04658 6.02807,9.70397 3.91689,3.22567 24.65756,2.07245 31.8001-.69241s-10.82746-15.44295-26.49499-17.05577c-8.06777.77761-10.96962,3.4884-11.33318,6.59829-.36356-3.10989-3.26541-5.82068-11.33318-6.59829z" fill="#7fadb5" fill-rule="evenodd" stroke="#000" stroke-width="1.56388"/>
<path d="m81.78374,385.54738c-7.69001.79161-15.92746,4.249-21.48518,7.89147 8.4173,3.89278 18.70904,6.29179 29.86542,6.56775 1.42955-1.88088 2.71021-4.18714 2.95294-6.41501 .24081,2.20701 1.49144,4.49272 2.90203,6.3641 10.97308-.4646 21.05151-2.98006 29.25446-6.9445-5.53778-3.48361-13.43193-6.70294-20.82331-7.46381-8.06777.77762-10.96962,3.4884-11.33318,6.59829-.36356-3.10989-3.26541-5.82068-11.33318-6.59829z" fill-opacity=".3137" fill-rule="evenodd"/>
</g>
<path d="m223.53421,548.66175c-.14664.0116-.34756.0464-.5.0625l-2.75.34375c-.18441.0251-.36272.0725-.53125.0937l-.78125.0937-.375.0313c-.77866.17999-1.59228.68268-2.1875,1.46875-.0272.035-.0431.0673-.0625.0937-.12555.17511-.2423.36084-.34375.5625-.0473.0931-.0856.1869-.125.28125-.0344.0831-.0954.16362-.125.25-.0165.048-.0379.12931-.0625.1875l-1.53125-.0625c-.40305-1.17956-1.31408-2.11754-2.4375-2.5625l.125-.0625-.125-.0313h-.0313v-.0313h-.0625c-.41556-.14645-.8875-.24772-1.34375-.25l-4.0937-.0311c-.17318-.00087-.36417.0102-.53125.0313-1.96628.24868-3.45197,2.00974-3.40625,4.125 .00017.008-.00036.0183 0,.0313s-.00027.0189 0,.0313c.002.0706.0289.11653.0313.15625 .005.068.0221.12695.0313.1875 .001.01-.001.0215 0,.0313l-1.15625.5c-.69067-.79433-1.65899-1.29055-2.6875-1.34375-.32202-.0907-.63233-.14193-.9375-.0937-.26357.0416-.52412.15167-.78125.25l-3.875,1.46875c-1.36914.52355-2.07325,1.52692-2.1875,2.34375l-1.40625-.25c-.002-.1659-.009-.32988-.0313-.5-.0496-.37224-.17984-.71688-.3125-1.03125h.0313c-.0629-.18232-.16445-.33683-.25-.5-.01-.0163-.0253-.0265-.0313-.0313-.7539-1.39835-2.29476-2.11169-4-1.90625-1.61042.19401-3.37793-.20008-4.875.59375h-.0313v.0313c-1.6997.61019-2.79148,2.48542-2.53125,4.4375 .30371,2.27827 2.30993,3.8857 4.5,3.59375l4.09375-.53125c1.31349-.17509 2.35609-1.00931 2.9375-2.125l1.625.28125c-.002.0898-.0139.17909 0,.28125 .0163.0774.0653.2265.0937.375s.0341.32094.0625.40625c.0906.2726.24092.51418.375.75 .0105.0188.025.0263.0313.0313 .12909.22151.27358.43603.4375.625 .28299.33047.61007.56781.96875.78125 .0686.0403.12554.1102.21875.15625h.0313c.004.001-.003.0309 0,.0313h.0313c.0548.02.11529.014.15625.0313 .62862.27002 1.32533.41782 2.03125.3125h.0313c.25907-.0408.5508-.11868.8125-.21875v.0313l.5625-.21875h.0313l3.25-1.0625h.0313v-.0313c1.8834-.72019 2.95339-2.72414 2.59375-4.71875-.0205-.15966-.0918-.29764-.125-.4375l.9375-.40625c.074.11268.16753.20885.25.3125 .48013.83727.96797,1.23919 1.59375,1.4375 2.11243.42969 3.96101.15615 6.375.15615 .16058-.0466.3087-.11581.4375-.1875 .0141-.004.0173-.0267.0313-.0313 1.37347-.44717 2.41338-1.65572 2.65625-3.15625l1.3125.0625c.43248,2.11656 2.34515,3.59143 4.4375,3.3125l4.0622-.5315c2.19038-.29199 3.74125-2.37767 3.4375-4.65625-.21279-1.59619-1.29595-2.79903-2.65625-3.3125-.3157-.17761-.82524-.37624-1.375-.34375zm0,.125c.52502-.031 1.01248.11246 1.3125.28125 1.32812.50133 2.38596,1.69131 2.59375,3.25 .29689,2.2271-1.1777,4.24666-3.3125,4.53125l-4.0625.53125c-2.06227.27491-3.94929-1.14382-4.34375-3.25l-.0313-.0625h-.0313l-1.375-.0625h-.0313l-.0313.0625c-.21817,1.51364-1.21388,2.69333-2.59375,3.125l-.0313.0313c-.13613.0784-.23889.1077-.40625.15625-2.22146.0771-4.30202.16813-6.34375-.125-.60469-.19162-1.09079-.58366-1.5625-1.40625-.0864-.10853-.17503-.22755-.25-.34375v-.0313l-.0625.0313-1.031.4687h-.0313v.0313c.0368.1554.10743.30098.125.4375 .34876,1.93423-.68894,3.90896-2.5,4.625l-3.28125,1.0625h-.0313l-.59375.21875v.0313c-.25042.0957-.49261.11566-.75.15625h-.0313c-.68552.10228-1.35471.0138-1.96875-.25-.0688-.029-.139-.039-.1875-.0625h-.0313l-.0313-.0313-.1875-.125c-.35328-.21022-.6954-.46204-.96875-.78125-.15826-.18245-.31075-.40749-.4375-.625-.0106-.0186-.0251-.0264-.0313-.0313-.13202-.2322-.22463-.4857-.3125-.75-.0239-.072-.0655-.19627-.0937-.34375s-.0454-.29355-.0625-.375c-.0141-.10354.007-.22161 0-.34375v-.0313l-.0625-.0313-1.6875-.28125h-.0313v.0313c-.56318,1.10934-1.61106,1.92109-2.90625,2.09375l-4.09375.53125c-2.13513.28463-4.07807-1.24136-4.375-3.46875-.25646-1.92379.82525-3.76725 2.5-4.34375l.0313-.0313v-.0313c1.44953-.75174 3.15615-.33547 4.78125-.53125 1.67106-.20132 3.20422.48364 3.9375,1.84375 .01.016.0254.0266.0313.0313 .0839.15995.12646.3231.1875.5h.0313c.1302.30855.20174.60677.25.96875 .0246.18445.0306.37928.0313.5625v.0313l.0625.0313 1.5.25h.0625v-.0625-.0313c.0919-.77406.79667-1.7926 2.15625-2.3125l3.875-1.46875c.25499-.0975.46582-.14754.71875-.1875 .28289-.0447.62314.005.9375.0937 1.01512.0525 1.98149.5183 2.65625,1.3125l.0313.0313 .0313-.0313 1.21875-.5625h.0313v-.0313c-.01-.0763-.0262-.14994-.0313-.21875-.004-.0691-.0304-.11699-.0313-.15625-.00019-.009.00017-.0191 0-.0313s.00025-.0185 0-.0313c-.0447-2.06794 1.36671-3.75786 3.28125-4 .16182-.0204.36291-.0321.53125-.0313l4.09375.0313c.41277.002.80772.0659 1.1875.1875l-.0937.0313 .15625.0625h.0313c1.17204.42052 2.10402,1.36923 2.5,2.59375l.0313.0625h.0313l1.59375.0625h.0313l.0313-.0625c.0183-.0647.0653-.10499.0937-.1875s.0291-.16924.0625-.25c.0395-.0946.0802-.19291.125-.28125 .0986-.196.22072-.39089.34375-.5625 .0257-.035.043-.0686.0625-.0937 .58088-.76713 1.37034-1.2318 2.125-1.40625l.375-.0313 .78125-.0937c.17791-.0224.35516-.0698.53125-.0937l2.75-.34375 .5-.0625zm-.59375,1.90625-3.40625.46875c-.68106.0908-1.23493.50016-1.5625,1.0625l-.0313.0313-.0625.0625 .0937.0313 2.53125.125c.12816.006.23315.0105.34375.0625h.0313v.0313 .0313h.0313c.29231.1699.50415.49036.5.84375-.006.51228-.42339.86746-.9375.84375l-2.625-.125h-.0625l.0313.0937c.006.0144.0254.017.0313.0313 .37609.92013 1.25109,1.53941 2.25,1.40625l3.4375-.46875c1.19706-.15957 2.04081-1.28745 1.875-2.53125s-1.27083-2.15969-2.46875-2zm0,.125c1.1414-.15215 2.18472.68205 2.34375,1.875s-.60774,2.25398-1.75,2.40625l-3.4375.46875c-.92077.12274-1.74486-.44709-2.125-1.28125l2.5.125c.56487.0261 1.05584-.40097 1.0625-.96875 .004-.37909-.23136-.68537-.53125-.875l-.0313-.0313c-.00057-.008.004-.0213 0-.0313-.005-.006-.0112-.0212-.0313-.0313h-.0313v-.0313h-.0313v.0313c-.11414-.0502-.24337-.11893-.375-.125l-2.375-.125c.31937-.48297.79693-.85628 1.40625-.9375zm-16.40625.3125c-.94886-.005-1.71714.66044-2,1.53125-.005.0142-.0269.0169-.0313.0313l-.0313.0937 .125-.0625 .0313-.0313 2.0625-.90625c.46544-.20895.97201.053 1.15625.53125s-.064,1.00897-.53125,1.21875l-2.46875,1.125h-.0313l.0313.0625c.40779.56995 1.05166.9338 1.78125.9375l3.46875.0313c.99233.005 1.75474-.72182 2-1.65625 .008-.0289.056-.0331.0625-.0625v-.0313l-.0625-.0313-1.78125-.0937c-.51393-.0237-.91226-.42467-.90625-.9375s.42531-.89862.9375-.875l1.28125.0625h.125l-.0937-.0937-.0313-.0313h-.0313c-.40574-.46328-.94512-.80921-1.59375-.8125h-3.46875zm0,.125h3.46875c.55545.003.99861.31537 1.375.6875l-1.03125-.0625c-.56679-.0261-1.05585.43226-1.0625,1s.4662,1.03644 1.03125,1.0625l1.6875.0937c-.23115.90102-.95558,1.53602-1.90625,1.53125l-3.46875-.0313c-.67237-.003-1.26454-.33334-1.65625-.84375l2.40625-1.09375c.51412-.2308.73395-.81758.53125-1.34375s-.76529-.76288-1.28125-.53125l-1.9375.875c.28906-.7944.96614-1.34814 1.84375-1.34375zm-21.875,3.1875-3.4375.46875c-1.19705.15957-2.04081,1.28745-1.875,2.53125s1.27084,2.15969 2.46875,2l3.4375-.46875c.5185-.0691.95179-.35444 1.28125-.71875 .006-.007.0252.007.0313,0l.0313-.0313 .0625-.0625-.0937-.0313-2.3125-.375c-.50411-.0808-.83454-.55343-.78125-1.0625s.49546-.83084 1-.75l2.5625.40625h.0625v-.0625c-.006-.0305-.0556-.0325-.0625-.0625-.25899-1.12318-1.25092-1.93109-2.375-1.78125zm0,.125c1.06162-.14152 1.98989.56655 2.25,1.625l-2.4375-.375c-.55758-.0893-1.06619.31326-1.125.875s.34824,1.09809.90625,1.1875l2.15625.34375c-.3089.31792-.68778.56255-1.15625.625l-3.4375.46875c-1.14139.15215-2.18472-.68205-2.34375-1.875s.60775-2.25398 1.75-2.40625zm13.375.375c-.28018-.0145-.56025.0478-.84375.15625l-3.25,1.25c-.43784.16743-.77895.44105-1.03125.8125l-.0313.0313-.0625.0625 .0937.0313 1.65625.28125c.50443.0808.86559.55534.8125,1.0625s-.49545.83084-1,.75l-1.75-.28125h-.0625v.0625c.01.0348.0211.0945.0313.125 .39434,1.1861 1.64803,1.74584 2.78125,1.3125l3.25-1.21875c1.00211-.38321 1.58829-1.43911 1.4375-2.5l-.0313-.0625-.0625.0313-.0313.0313-1.96875.875c-.46472.20863-1.00391-.0547-1.1875-.53125-.0639-.16593-.0308-.32708 0-.5-.009-.064.00065-.11869.0313-.1875 .0281-.0632.049-.11947.0937-.15625l.0625-.0625c.096-.12387.22976-.2473.375-.3125l1.59375-.71875 .0937-.0313-.0935-.0314c-.0168-.009-.0453.009-.0625,0-.25624-.12858-.55642-.26637-.84375-.28125zm0,.125c.25642.0133.5145.0758.75.1875l-1.5.6875c-.16506.0741-.27268.18051-.375.3125-.009.0118-.0366.0223-.0625.0625-.0677.0557-.0701.10302-.0937.15625-.025.0562-.10901.14292-.0937.25-.0324.18224-.0101.37413.0625.5625 .20313.52728.79582.7632 1.3125.53125l1.90615-.84375c.0976.98466-.44894,1.98962-1.375,2.34375l-3.25,1.21875c-1.07461.41093-2.20704-.16133-2.59375-1.28125l1.65625.25c.55759.0893 1.06619-.31327 1.125-.875s-.37979-1.09814-.9375-1.1875l-1.53125-.25c.23881-.3272.57074-.62905.96875-.78125l3.25-1.25c.27046-.10343.51239-.10768.78125-.0937z" fill="none" stroke="#000" stroke-linecap="round" stroke-linejoin="round" stroke-width="1.7"/>
<path d="m162.01551,541.62853c-5.79436.0684-11.45115,2.83718-15.0208,7.90942-5.92075,8.41298-3.90852,20.02425 4.50447,25.94502s20.04199,3.90852 25.96274-4.50447 3.8908-20.04199-4.5222-25.96275l-.78029-.51429c-3.14709-1.98622-6.6673-2.91401-10.14392-2.87293z" fill-rule="evenodd"/>
<g transform="matrix(.72073,-.09608,.10711,.80346,19.82078,49.11435)">
<path d="m163.05028,641.88975c-2.97772-.3697-5.65139,1.57157-5.99687,4.35413s1.7721,5.32035 4.74982,5.69005l5.61562.69722c2.97772.3697 5.65335-1.57299 5.99882-4.35555s-1.77406-5.31893-4.75178-5.68863l-5.61561-.69722zm.114,2.44027 4.72062.5861c1.61052.19995 2.75577,1.57146 2.56892,3.07642s-1.63292,2.55641-3.24344,2.35645l-4.72063-.58609c-1.61052-.19996-2.75557-1.5731-2.56872-3.07807s1.63273-2.55476 3.24325-2.35481z" fill="#383838" fill-rule="evenodd"/>
<path d="m180.45946,644.08843c-3.00058,0-5.4147,2.2559-5.4147,5.05982s2.41412,5.06148 5.4147,5.06148h5.65873c3.00058,0 5.41647-2.25755 5.41647-5.06148s-2.41589-5.05982-5.41647-5.05982h-5.65873zm.41379,2.40763h4.75687c1.62289,0 2.9284,1.21995 2.9284,2.73647s-1.30551,2.73812-2.9284,2.73812h-4.75687c-1.62288,0-2.92839-1.2216-2.92839-2.73812s1.30551-2.73647 2.92839-2.73647z" fill="#333" fill-rule="evenodd"/>
<path d="m127.58085,642.42653c-2.99699-.14686-5.4147,2.2559-5.4147,5.05983s2.41411,5.06147 5.4147,5.06147h5.65873c3.00058,0 5.41647-2.25755 5.41647-5.06147s-2.46533-4.6379-5.46231-4.78477zm.41379,2.40763h4.75687c1.62289,0 2.9284,1.21995 2.9284,2.73647s-1.30551,2.73812-2.9284,2.73812h-4.75687c-1.62288,0-2.92839-1.2216-2.92839-2.73812s1.30551-2.73647 2.92839-2.73647z" fill="#333" fill-rule="evenodd"/>
<path d="m144.19137,646.37398c-2.93498.62397-4.82721,3.33257-4.24413,6.0752s3.41388,4.4488 6.34887,3.82483l5.53503-1.17674c2.93498-.62398 4.8286-3.33455 4.24552-6.07719s-3.41527-4.44682-6.35026-3.82284l-5.53503,1.17674zm.90542,2.26894 4.65289-.98919c1.5874-.33748 3.11806.58431 3.43342,2.06768s-.70757,2.94974-2.29498,3.28723l-4.65288.98919c-1.58741.33748-3.11841-.58593-3.43377-2.0693s.70792-2.94813 2.29532-3.28561z" fill="#4d4d4d" fill-rule="evenodd"/>
<path d="m295.53329,589.93109h14.20762a1.20568,1.20568 0 0,1 1.20568,1.20568 1.20568,1.20568 0 0,1 -1.20568,1.20568h-14.20762a1.20568,1.20568 0 0,1 -1.20568-1.20568 1.20568,1.20568 0 0,1 1.20568-1.20568" fill="#333" fill-rule="evenodd" transform="rotate(15.0596)"/>
<path d="m18.66518,821.37053c-50.86934-.30656-94.2896,34.67689-100.3125,83.1875-.58334,4.6984-.794,9.37004-.65625,13.96875l23.21429-10.72321c-9.66456-35.26352 44.36026-78.37983 78.71875-69.43304l108.45536,16.55357 44.51785-9.24107c-10.53953-5.16346-22.19949-8.73467-34.65625-10.28125l-106.18749-13.1875c-4.3994-.54621-8.78279-.81777-13.09375-.84375z" fill="#979797" fill-rule="evenodd" transform="matrix(.05288,0,0,.05288,161.37115,598.33616)"/>
<path d="m269.17596,610.68048h14.20762a1.20568,1.20568 0 0,1 1.20568,1.20568 1.20568,1.20568 0 0,1 -1.20568,1.20568h-14.20762a1.20568,1.20568 0 0,1 -1.20568-1.20568 1.20568,1.20568 0 0,1 1.20568-1.20568" fill="#1a1a1a" fill-rule="evenodd" transform="rotate(9.1987)"/>
<path d="m351.35383,864.34732c-32.59895,2.77583-70.69364,24.37683-86.27452,63.59479-1.74635,4.39566 14.50466-.338 14.64241,4.26071l15.14954,1.79317c20.33544-25.26352 29.25845-39.05297 66.18677-51.33974l115.59822-.58929 44.51785,2.1875c1.57447-5.26528-18.23907-17.23326-40.41996-18.69811-37.07519-1.7748-93.77733.81881-129.40031-1.20903z" fill="#979797" fill-rule="evenodd" transform="matrix(.05288,0,0,.05288,161.37115,598.33616)"/>
<path d="m367.23661,859.94196c-49.44077,9.69344-77.14674,8.9626-96.02679,54.61607-1.80933,4.37511 12.06315-.62996 12.2009,3.96875l11.78571,2.13393c20.33544-25.26352 32.93169-38.37982 67.29017-29.43303l114.16965-16.30358 44.51785,9.33036c-4.03382-4.23407-17.65236-30.32998-48.94196-34.56696l-91.90178,11.09821c-4.3994-.54621-8.86326-1.67319-13.09375-.84375z" fill="#0b0b0b" fill-rule="evenodd" transform="matrix(.05288,0,0,-.05288,143.39243,697.68867)"/>
<path d="m51.71271,328.02112c-2.80044.0605-5.64186.39236-8.5,1l-43.125,9.15625c-15.34,3.26126-24.48071,11.88082-26.61834,19.36749l-.66156,2.36582c1.38054-.31908 11.68428,2.62219 12.68501,1.70098l14.03238-11.40304c2.01308-1.09663 9.5238-3.93099 11.90625-4.4375l28.6875-6.71875c7.54843-5.72264 31.32359,4.93534 32.50173,11.70556l12.75522-3.39287c-7.78677-8.16063-21.43509-19.60793-33.66319-19.34394z" fill="#979797" fill-rule="evenodd" transform="matrix(.12836,0,0,.12836,143.98586,602.7707)"/>
<path d="m-22.87779,665.33539h14.20762a1.20568,1.20568 0 0,1 1.20568,1.20568 1.20568,1.20568 0 0,1 -1.20568,1.20568h-14.20762a1.20568,1.20568 0 0,1 -1.20568-1.20568 1.20568,1.20568 0 0,1 1.20568-1.20568" fill="#333" fill-rule="evenodd" transform="matrix(.96612,-.25808,.25808,.96612,0,0)"/>
<path d="m-50.35768,358.21652 103.08768.0618c5.20366.003 8.19525,2.61082 9.60513,7.61984 .31086,1.10441-2.75573.25112-7.95733.10482l-96.3681-2.71046c-5.2016-.1463-15.82174,3.24219-15.98552.60871-.32301-5.19362 2.41447-5.6878 7.61813-5.68469z" fill="#979797" fill-rule="evenodd" transform="matrix(.12401,-.03313,.03313,.12401,143.98586,602.7707)"/>
<path d="m94.08882,363.41881-20.41212,5.35644c.19106.60859 4.65794,1.239 4.79315,1.875 2.45683,11.5562-5.25576,26.50013-17.62246,29.12929l-41.04823,10.24413c-12.3667,2.62915-28.58631-10.6297-31.04315-22.18592-.32967-1.55065 1.04643-4.36313 1.07773-5.88769l-22.21621-2.56599c.1302,1.55557.35485,5.90074.6875,7.46542 4.54249,21.36651 26.57246,34.64235 49.4375,29.78125l43.37754-6.88341c22.86504-4.86106 37.63624-25.97723 33.09375-47.34375-.03549-.16693-.33992,2.44385-.125,1.01523z" fill="#1a1a1a" fill-rule="evenodd" transform="matrix(.12836,0,0,.12836,143.98586,602.7707)"/>
<path d="m-50.35768,358.21652 103.08768.0618c5.20366.003 8.19525,2.61082 9.60513,7.61984 .31086,1.10441-2.75573.25112-7.95733.10482l-96.3681-2.71046c-5.2016-.1463-15.82174,3.24219-15.98552.60871-.32301-5.19362 2.41447-5.6878 7.61813-5.68469z" fill="#979797" fill-rule="evenodd" transform="matrix(.12666,.02081,.02081,-.12666,167.05607,693.42561)"/>
<path d="m367.23661,859.94196c-49.44077,9.69344-77.14674,8.9626-96.02679,54.61607-1.80933,4.37511 12.06315-.62996 12.2009,3.96875l11.78571,2.13393c20.33544-25.26352 32.93169-38.37982 67.29017-29.43303l114.16965-16.30358 44.51785,9.33036c-4.03382-4.23407-17.65236-30.32998-48.94196-34.56696l-91.90178,11.09821c-4.3994-.54621-8.86326-1.67319-13.09375-.84375z" fill="#0b0b0b" fill-rule="evenodd" transform="matrix(.05265,-.00486,-.00486,-.05265,166.57998,700.97473)"/>
<path d="m-90.01163,342.1053 100.03409,26.26287c5.02852,1.32018 7.41684,2.81171 7.59438,8.01234 .03915,1.14665-2.73633-.4118-7.75374-1.79156l-92.95545-25.56249c-5.0174-1.37977-16.13878-.61555-15.67125-3.21238 .92203-5.12131 3.72343-5.02896 8.75196-3.70878z" fill="#979797" fill-rule="evenodd" transform="matrix(.12836,0,0,.12836,143.98586,602.7707)"/>
<path d="m-136.97036,309.40469 2.80976,10.41058 49.49096,1.10883c12.63991.28319 26.20995,10.01885 28.16964,21.66965 .35714,2.12329-.37905,6.30509-1.93294,8.31024l15.10437,3.99625c.47514-2.37754 1.0875-6.167 1.0875-8.67703 0-21.84401-18.76715-35.95785-42.1875-36.22321-17.51393-.19844-35.75563-6.17786-52.54179-.59531z" fill="#979797" fill-rule="evenodd" transform="matrix(.12836,0,0,.12836,143.98586,602.7707)"/>
<path d="m-64.96719,372.83385c-4.08738,3.63658-16.42441,6.31598-22.53728,6.12754l-32.76935-1.01015c-.76861-.0237-1.02724-1.06626-1.77618-1.13516l-2.13515,6.45686c-.28033,2.69656 1.01838,1.7366-.78712,3.4045 1.15002.0872-2.22024-.66067-1.04568-.63261l42.29474,1.01015c11.13502.26594 22.92858-6.1177 31.85216-14.67227z" fill="#1a1a1a" fill-rule="evenodd" transform="matrix(.12836,0,0,.12836,143.98586,602.7707)"/>
</g>
<path d="m170.40559,544.7269c8.61738,4.49419 11.95988,15.1232 7.46569,23.74058s-15.12321,11.95987-23.74058,7.46568-11.95987-15.12321-7.46568-23.74058c4.33531-8.31273 14.42652-11.76702 22.94652-7.85475" fill="#666" fill-rule="evenodd"/>
<path d="m170.40559,544.7269c8.61738,4.49419 11.95988,15.1232 7.46569,23.74058s-15.12321,11.95987-23.74058,7.46568-11.95987-15.12321-7.46568-23.74058c4.33531-8.31273 14.42652-11.76702 22.94652-7.85475" fill="url(#linearGradient11857)" fill-rule="evenodd"/>
<path d="m160.09695,545.55186c2.82485.64322 4.37519,3.23323 3.46278,5.78496s-3.94206,4.0989-6.76691,3.45569-4.37518-3.23323-3.46277-5.78497c.88016-2.46152 3.74213-4.00439 6.50789-3.50835" fill="#fff" fill-rule="evenodd" opacity=".1468"/>
<g transform="translate(-2.85714)">
<path d="m227.96204,538.5514c13.66145-4.05839 27.32288-2.66538 40.98433,0v11.96065h-40.98433z" fill="#999" fill-rule="evenodd" stroke="#000" stroke-width=".16488"/>
<path d="m227.96204,538.5514c13.66145-4.05839 27.32288-2.66538 40.98433,0v11.96065h-40.98433z" fill="url(#linearGradient11748)" fill-rule="evenodd" stroke="url(#radialGradient11750)" stroke-width=".16488"/>
<path d="m228.33719,539.06036c15.48316,5.02699 28.36862,3.00541 40.89149,0v18.57719c-13.63051,2.87755-27.261,3.87709-40.89149,0z" fill="#333" fill-rule="evenodd" stroke="#000" stroke-width=".15294"/>
<path d="m228.33719,539.06036c15.48316,5.02699 28.36862,3.00541 40.89149,0v18.57719c-13.63051,2.87755-27.261,3.87709-40.89149,0z" fill="url(#linearGradient11752)" fill-rule="evenodd"/>
</g>
<path d="m225.17857,546.0229c-.13016,3.92857-.24662,7.85714.0893,11.78571 18.92914,3.75588 31.1226,2.44628 41.07143-.17859l.17857-4.01785" fill="none" stroke="#000"/>
<g transform="matrix(.87618,0,0,1,29.09445,0)">
<path d="m327.61001,494.55935c0,28.6671 13.68513,36.05725 13.68513,49.35278 0,7.37427-13.53493-9.09676-21.12864-5.36867-7.04309,3.45776-15.71899,6.72412-24.52601,1.57396-5.24476-3.06703 2.06867-8.05946-8.07149-8.05946-8.08835,0-20.41534,4.94869-28.12765,6.01479-7.01137.9692-14.49582-5.36109-26.86575-1.75308-7.69269,2.24377-34.91038,18.2416-34.91038,10.86733 0-9.39159 12.72233-19.62258 12.72233-52.62765 0-31.9742 26.25783-57.92427 58.61123-57.92427s58.61123,25.95007 58.61123,57.92427z" fill="#dbdbe3" fill-opacity=".6275"/>
<path d="m327.61001,494.55935c0,7.16678.85532,13.00374 2.1383,17.93562s2.99362,8.95868 4.70427,12.50511 3.42128,6.6125 4.70426,9.62294 2.1383,5.96523 2.1383,9.28911c0,7.37427-18.69114,1.99447-26.28486,5.72256-7.04309,3.45776-4.15788,8.66637-14.29839,12.00815-7.28556,2.40093-16.99959-8.54519-27.13975-8.54519-8.08835,0-23.01682,9.22613-30.02819,6.29371s-6.34634-12.7017-17.18683-13.64559c-8.09036-.70442-28.6919,8.8155-28.6919,1.44123 0-2.3479.79515-4.74826 1.98786-7.54381s2.78301-5.98629 4.37331-9.91496 3.18058-8.59525 4.3733-14.34249 1.98786-12.57512 1.98786-20.82639c0-31.9742 26.25783-57.92427 58.61123-57.92427s58.61123,25.95007 58.61123,57.92427z" fill="#ececf0" stroke="#000" stroke-linecap="round" stroke-linejoin="round" stroke-width="1.41035"/>
<path d="m307.24596,456.35392c2.25686-.67626 13.61121,12.09651 15.68138,25.51946 1.40801,9.12952.8111,23.22042 2.43332,31.26709s15.6444,28.93391 10.00363,28.73813c-13.24806-.45981-21.69958-18.58126-18.67465-44.49958 3.41138-29.22939-14.76865-39.42947-9.44368-41.0251z" fill-opacity=".1176" fill-rule="evenodd"/>
<path d="m312.65333,547.16642c-3.066,2.55409-8.6518,14.71392-11.62585,9.1962s-.49199-15.3434-2.70369-29.88766c-1.68223-11.06248-7.87169-24.26333-3.31798-22.25177 4.53783,2.00455 7.83566,8.04727 11.96978,18.57329 3.61435,9.20263 9.35099,21.30998 5.67774,24.36994z" fill-opacity=".1176" fill-rule="evenodd"/>
<path d="m268.58092,550.21774c-2.93307,2.66457-10.11088,5.83744-13.74241,5.23682-4.7838-.7912-5.5205-14.43223-3.59962-23.29931 1.89259-8.73639 5.53906-21.47252 8.5862-23.38297 3.70582-2.32342.26843,8.70486 3.7444,23.8659 2.65977,11.60102 7.87358,14.97941 5.01143,17.57956z" fill-opacity=".1176" fill-rule="evenodd"/>
<path d="m229.3798,542.79823c-4.24712-.52689-8.26468.37072-11.62585,1.14952-4.70201,1.08949-.29868-4.92723 5.94811-15.40364 4.72433-7.92312 5.83292-16.08893 8.57261-18.31071 3.26348-2.64657-.91287,7.70493-1.68782,17.76046-.71872,9.326 1.92547,15.19298-1.20705,14.80437z" fill-opacity=".1176" fill-rule="evenodd"/>
<path d="m220.45763,471.75756c10.45242-23.95269 30.57086-28.98202 35.68866-28.73813 7.77216.3704 5.62977,9.95684-9.4629,13.33449-15.38269,3.44256-31.72508,28.00586-26.22576,15.40364z" fill="#fff" fill-opacity=".6275" fill-rule="evenodd"/>
</g>
<path d="m254.44055,459.75883c-7.47309,0-13.54279,6.9841-13.54279,15.58948s6.0697,15.58948 13.54279,15.58948c4.39174,0 8.28894-2.41465 10.76296-6.15026 2.47384,3.73832 6.37954,6.15026 10.77313,6.15026 7.47309,0 13.54279-6.98411 13.5428-15.58948s-6.06971-15.58948-13.5428-15.58948c-4.39308,0-8.29924,2.41268-10.77313,6.15026-2.47407-3.7348-6.37178-6.15026-10.76296-6.15026z" fill="#fff" stroke="#000" stroke-linecap="round" stroke-width="1.62921"/>
<path d="m265.8509,486.64717c-4.71786,0-9.84597,4.2966-9.64085,7.01024s8.4101,14.02048 10.25622,14.02048 9.02547-11.0807 8.82034-14.24662-6.35885-7.01024-9.43571-6.7841z" fill-opacity=".3137" fill-rule="evenodd"/>
<path d="m265.10624,483.92911c-4.71786,0-9.84597,3.89736-9.64084,6.35885s8.41009,12.71771 10.25621,12.71771 9.02547-10.05109 8.82035-12.92283-6.35886-6.35885-9.43572-6.15373z" fill="url(#linearGradient10749)" fill-rule="evenodd" stroke="#000" stroke-width="1.62921"/>
<g stroke="#83abba" transform="translate(-4.08931)">
<path d="m265.63736,476.54251a4.63453,4.63453 0 0,1 -9.26905,0 4.63453,4.63453 0 1,1 9.26905,0z" fill="url(#radialGradient10757)" stroke="#83abba" stroke-linecap="round" stroke-width="2.2309"/>
<path d="m282.2275,476.54251a4.63452,4.63452 0 1,1 -9.26904,0 4.63452,4.63452 0 1,1 9.26904,0z" fill="url(#radialGradient10757-9)" stroke="#83abba" stroke-linecap="round" stroke-width="2.2309"/>
</g>
</g>
</svg>
