<?xml version="1.0" encoding="UTF-8" standalone="no"?>
<svg viewBox="0 0 107.44761 159.44159" xmlns="http://www.w3.org/2000/svg" xmlns:xlink="http://www.w3.org/1999/xlink">
<defs>
<linearGradient id="linearGradient3173-31-2">
<stop offset="0" stop-color="#a5a5a5"/>
<stop offset="1"/>
</linearGradient>
<linearGradient gradientUnits="userSpaceOnUse" id="linearGradient13074" x1="90.68662" x2="94.99912">
<stop offset="0" stop-color="#ffb142"/>
<stop offset="1" stop-color="#c87600"/>
</linearGradient>
<linearGradient gradientUnits="userSpaceOnUse" id="linearGradient13078" x1="397.28287" x2="397.53607" y1="467.5778" y2="450.02982">
<stop offset="0" stop-opacity=".3177"/>
<stop offset="1" stop-color="#fff" stop-opacity="0"/>
</linearGradient>
<linearGradient gradientUnits="userSpaceOnUse" id="linearGradient13080" x1="146.22336" x2="344.57629" y1="130.83948" y2="137.53343">
<stop offset="0" stop-color="#b8a675"/>
<stop offset="1" stop-color="#ded6c0"/>
</linearGradient>
<linearGradient gradientUnits="userSpaceOnUse" id="linearGradient13082" x1="242.35489" x2="359.58887" y1="309.22519" y2="279.77185">
<stop offset="0" stop-color="#fffcb5"/>
<stop offset="1" stop-color="#fff"/>
</linearGradient>
<linearGradient gradientUnits="userSpaceOnUse" id="linearGradient13092" x1="567.9057" x2="572.70587">
<stop offset="0" stop-color="#5e3824"/>
<stop offset=".5" stop-color="#9a5a31"/>
<stop offset="1" stop-color="#5f442b"/>
</linearGradient>
<linearGradient gradientTransform="matrix(.02605,-.00101,9.1364277e-6,.01236,831.1896,418.08326)" gradientUnits="userSpaceOnUse" id="linearGradient13094" x1="-10394.427" x2="-9663.6055" y1="-5911.1064" y2="-5927.7119">
<stop offset="0" stop-color="#717171"/>
<stop offset=".5604" stop-color="#afafaf"/>
<stop offset="1" stop-color="#757575"/>
</linearGradient>
<linearGradient gradientTransform="matrix(.01901,-.00101,6.6662638e-6,.01236,760.50749,418.08326)" gradientUnits="userSpaceOnUse" id="linearGradient13096" x1="-10083.196" x2="-9914.6836">
<stop offset="0" stop-color="#321f1f"/>
<stop offset=".5781" stop-color="#573a2d"/>
<stop offset="1" stop-color="#47352f"/>
</linearGradient>
<radialGradient cx="414.68207" cy="-8.88047" gradientTransform="matrix(-1.8232002e-6,.27968,-.60927,0,101.72623,-39.26045)" gradientUnits="userSpaceOnUse" id="radialGradient13076" r="123.54523">
<stop offset="0" stop-color="#ffb142"/>
<stop offset=".8868" stop-color="#ffb141"/>
<stop offset="1" stop-color="#c87600"/>
</radialGradient>
<radialGradient cx="610.45734" cy="483.44724" gradientTransform="matrix(0,-.48219,.4319,-1.2541889e-6,-151.96816,551.34635)" gradientUnits="userSpaceOnUse" id="radialGradient13072" r="167.56416" xlink:href="#linearGradient3173-31-2"/>
<radialGradient cx="380.25662" cy="622.48694" gradientTransform="matrix(0,-.74351,.66041,0,-364.70066,582.13395)" gradientUnits="userSpaceOnUse" id="radialGradient13098" r="59.2546" xlink:href="#linearGradient3173-31-2"/>
<radialGradient cx="371.45444" cy="647.68732" gradientTransform="matrix(0,-.74351,-.66041,0,552.03191,582.13395)" gradientUnits="userSpaceOnUse" id="radialGradient13100" r="59.2546" xlink:href="#linearGradient3173-31-2"/>
</defs>
<g transform="translate(-346.49835,-322.28349)">
<g transform="matrix(.88592,0,0,1,316.5655,73.97719)">
<path d="m146.27531,340.22539a53.94769,53.94769 0 0,1 -107.89538,0 53.94769,53.94769 0 1,1 107.89538,0z" fill="url(#radialGradient13072)" stroke="#000" stroke-linecap="round" stroke-width="1.56388"/>
<path d="m118.99377,367.19922a26.15335,26.15335 0 1,1 -52.30669,0 26.15335,26.15335 0 1,1 52.30669,0z" fill="#fff" stroke="#000" stroke-linecap="round" stroke-width="1.62921"/>
<path d="m144.15185,325.22596c.10951,1.40269.1731,2.81547.1731,4.24612 0,29.77912-24.1782,53.94714-53.95732,53.94714-24.57503,0-45.31569-16.4592-51.81899-38.94825 2.16988,27.79451 25.42557,49.70103 53.77404,49.70103 29.77913,0 53.95732-24.16802 53.95732-53.94715 0-5.2041-.75099-10.23653-2.12815-14.99889z" fill-opacity=".3137"/>
</g>
<g transform="matrix(.88592,0,0,1,316.83827,73.97719)">
<path d="m81.25168,304.32672c-7.47309,0-13.54279,6.9841-13.54279,15.58948s6.0697,15.58948 13.54279,15.58948c4.39173,0 8.28894-2.41465 10.76295-6.15026 2.47384,3.73832 6.37954,6.15026 10.77313,6.15026 7.47309,0 13.54279-6.98411 13.5428-15.58948s-6.06971-15.58948-13.5428-15.58948c-4.39308,0-8.29924,2.41268-10.77313,6.15026-2.47406-3.7348-6.37178-6.15026-10.76295-6.15026z" fill="#fff" stroke="#000" stroke-linecap="round" stroke-width="1.62921"/>
<path d="m92.66203,331.21506c-4.71786,0-9.84597,4.2966-9.64084,7.01024s8.4101,14.02048 10.25621,14.02048 9.02547-11.0807 8.82034-14.24662-6.35885-7.01024-9.43571-6.7841z" fill-opacity=".3137" fill-rule="evenodd"/>
<path d="m91.91737,328.497c-4.71786,0-9.84597,3.89736-9.64085,6.35885s8.4101,12.71771 10.25622,12.71771 9.02547-10.05109 8.82035-12.92283-6.35886-6.35885-9.43572-6.15373z" fill="url(#linearGradient13074)" fill-rule="evenodd" stroke="#000" stroke-width="1.62921"/>
<path d="m89.6477,322.66274a3.38455,3.38455 0 0,1 -6.7691,0 3.38455,3.38455 0 1,1 6.7691,0z" stroke="#000" stroke-linecap="round" stroke-width="1.62921"/>
<path d="m101.76333,322.66274a3.38455,3.38455 0 1,1 -6.7691,0 3.38455,3.38455 0 1,1 6.7691,0z" stroke="#000" stroke-linecap="round" stroke-width="1.62921"/>
</g>
<g transform="matrix(.88592,0,0,1,316.5655,73.97719)">
<path d="m81.78118,385.54273c-15.66752,1.61282-33.63754,14.29091-26.49499,17.05577s27.87304,3.91808 31.78992.69241c2.01274-1.65755 5.61385-5.80874 6.03825-9.70397 .42497,3.89491 4.01553,8.04658 6.02807,9.70397 3.91689,3.22567 24.65756,2.07245 31.8001-.69241s-10.82746-15.44295-26.49499-17.05577c-8.06777.77761-10.96962,3.4884-11.33318,6.59829-.36356-3.10989-3.26541-5.82068-11.33318-6.59829z" fill="url(#radialGradient13076)" fill-rule="evenodd" stroke="#000" stroke-width="1.56388"/>
<path d="m81.78374,385.54738c-7.69001.79161-15.92746,4.249-21.48518,7.89147 8.4173,3.89278 18.70904,6.29179 29.86542,6.56775 1.42955-1.88088 2.71021-4.18714 2.95294-6.41501 .24081,2.20701 1.49144,4.49272 2.90203,6.3641 10.97308-.4646 21.05151-2.98006 29.25446-6.9445-5.53778-3.48361-13.43193-6.70294-20.82331-7.46381-8.06777.77762-10.96962,3.4884-11.33318,6.59829-.36356-3.10989-3.26541-5.82068-11.33318-6.59829z" fill-opacity=".3137" fill-rule="evenodd"/>
</g>
<path d="m358.46551,440.50788c28.81587,9.31485 45.15848,9.52656 77.66506,0 1.89862,10.92356 2.71217,17.81328-.006,32.88792-5.3852-7.84953-11.22021-8.05999-13.85671-13.87153-2.44365,6.33145-3.67256,6.82305-7.81983,11.55201-4.23028-3.77753-9.74578-7.34086-11.37429-11.55201-.86575,5.29532-3.91191,8.41023-6.04259,12.44062-2.99428-3.78399-1.29716-8.73373-7.28665-14.75102-3.90826,5.72938-5.86441,6.12234-8.35299,14.21785-2.8965-6.39592-10.2184-4.49222-10.48568-11.01884-3.64293,5.71429-6.95556,4.63244-9.39882,8.17756-3.62835-13.68862 2.42857-21.45375-3.0418-28.08256z" fill="#cdaf65" stroke="#000" stroke-linecap="round" stroke-linejoin="round" stroke-width=".95837"/>
<path d="m435.76577,441.10805-.94022.26444c-.17139.59748-.45921,1.09281-.79332,1.52786 .48638.68496 1.31398.98394 2.26241,1.17528-.18206-.9993-.33845-1.87203-.52887-2.96758z" fill="#573727" fill-rule="evenodd"/>
<path d="m359.8092,441.39011c-.25634.11685.23652.37757.3555.78313 .53733.87298 1.0396,1.20945 1.34682,1.82101 .52913.37392 1.05917.81034 1.73355.99899 1.18256.33078 1.81823-.45558 2.70314.23506 .32417-.12621.54995-.35163.67579-.67579-.0183-.48538-.0813-.91334-.29518-1.20331-1.67343-.48649-4.75941-1.40105-6.51962-1.95909z" fill="#573727" fill-rule="evenodd"/>
<path d="m430.53369,442.56769c-1.25176.34347-2.46808.65875-3.67276.96961-.29208.33686-.37889.79288-.14691,1.41034 .7484-.53722 2.80935-1.22085 3.37894,0-.70425.0456-1.65353-.17111-2.02737.20568-.22885,2.40709 2.67146,1.84202 2.70316,3.37893 1.10787-.0173 1.47984-.77353 2.02735-1.35158-2.13304-.80043-2.21133-2.52956-2.26241-4.61298z" fill="#573727" fill-rule="evenodd"/>
<path d="m431.71001,443.44075c-.27007.93385-.0823.97608 0,2.26241 .94709.25351 1.62065.76298 2.70314.88146 .67335-.90441.34147-1.91979-.20567-2.70315-1.11046.13467-1.38664-.57539-2.49747-.44072z" fill="#573727" fill-rule="evenodd"/>
<path d="m424.07068,444.25193-.7844.19289c.16202.0256.36955.10462.54934.11248 .12143-.0694.37024-.049.41778-.12262z" fill="#573727" fill-rule="evenodd"/>
<path d="m368.21539,444.79232c-.12621.32415-.35126.54958-.67579.67578 .0412,1.40519 1.38224,3.06578 2.70314,1.79231-.26895-1.2315-.66043-2.3338-2.02735-2.46809z" fill="#573727" fill-rule="evenodd"/>
<path d="m372.00567,444.87915c-.91548.55507-1.5746,1.99245.94023,2.23303 .34574-.92889.40749-1.52753.3232-1.90983-.41761-.10103-.84154-.21709-1.26343-.3232z" fill="#573727" fill-rule="evenodd"/>
<path d="m421.36752,444.86899c-.78607.17923-1.61554.37783-2.38378.54164-.0735,1.02415.49561,2.18746 1.708,2.31993 .32159-.80359.78101-1.47201.88146-2.49747-.0685-.0937-.13037-.27712-.20568-.3641z" fill="#573727" fill-rule="evenodd"/>
<path d="m375.0614,445.58567c-.0178.17417-.0439.36302-.0881.55826 .81347,1.1286 2.20848.96341 2.9382.0294-.93926-.19017-1.8921-.36979-2.85006-.58764z" fill="#573727" fill-rule="evenodd"/>
<path d="m418.4587,445.532c-.51845.10858-1.01699.20511-1.52787.30659 .25454.0896.50407.30931.61702.5404-.43344.29804-.91659-.18472-1.58663.20567-.63875,1.58401 1.50101,2.78056 3.14389,2.02736 .15011-1.27566-.56498-1.65868-1.11652-2.23303 .24096-.24648.37781-.59695.47011-.84699z" fill="#573727" fill-rule="evenodd"/>
<path d="m436.59792,445.86798c-1.31843.5764-1.88385,1.89237-3.02636,2.64438 .89669.67924 1.64715,1.50747 2.90882,1.82169 .32185-.32497.55516-.70311.70518-1.08714-.16977-1.05753-.38613-2.26298-.58764-3.37893z" fill="#573727" fill-rule="evenodd"/>
<path d="m365.30656,446.14393c.0744,1.79779.80491,3.1239 2.70315,3.61399 .14569-2.24705-1.26743-2.94838-2.70315-3.61399z" fill="#573727" fill-rule="evenodd"/>
<path d="m425.18719,446.14393c-1.30142.004-2.4746.41581-2.9382,1.79231 .55595.72006 1.91182.66155 2.02735,1.82168 .69911.29546.65317-.0611 1.58663,0-.25572-1.17005-.30711-2.55651-.67578-3.61399z" fill="#573727" fill-rule="evenodd"/>
<path d="m413.46375,446.46837c-.94015.162-1.90608.33743-2.82451.47395-.11019.24448-.11917.6043-.0843.99391 1.17223.80036 3.07541-.0249 2.90882-1.46786z" fill="#573727" fill-rule="evenodd"/>
<path d="m379.02798,446.8197c-.90257,2.65915-1.5649,7.36241 2.02736,6.75787-.21893-2.00824-1.05391-4.48579-1.35157-6.75787z" fill="#573727" fill-rule="evenodd"/>
<path d="m426.30371,446.8197c.0828.89265-.19618,2.15934.23505,2.70316 .91472.4982 2.14124.41143 2.93821-.23506-.2377-1.63809-1.14184-2.62336-3.17326-2.4681z" fill="#573727" fill-rule="evenodd"/>
<path d="m381.91635,446.90404c-.16824.16948-.34636.34442-.23505.79331 .35948,1.06669 1.87725.98675 1.82168,2.46809 2.1747-.20559 2.63096-1.31407 2.32119-2.70315-1.29429-.15748-2.59353-.34366-3.90782-.55825z" fill="#573727" fill-rule="evenodd"/>
<path d="m363.16167,447.23107c-.18396-.0136-.37475-.009-.55826.0294 .14462.83488 1.26197,2.65041 2.26242,3.37894 .28736-.0122.31226-.26895.67579-.20568 .12299-1.79198-1.09228-3.10702-2.37995-3.20264z" fill="#573727" fill-rule="evenodd"/>
<path d="m406.23576,447.49676c-1.17549.1256-2.34519.21244-3.49646.29382 .0471.0865.0761.28972.14691.38072 1.08949-.0894 2.313-.57983 3.17326-.23506 .0901-.0844.14131-.29987.17629-.43948z" fill="#573727" fill-rule="evenodd"/>
<path d="m387.59986,447.60141c-.17382,1.52635 2.56236,1.40299 3.35723,2.15641 1.19437,1.13289.12573,1.43962.47012,2.90882 1.51252-1.58013 1.09908-3.4533-.0753-4.73819-1.23769-.073-2.50885-.20053-3.75197-.32704z" fill="#573727" fill-rule="evenodd"/>
<path d="m398.96179,447.99999c-.44178.0127-.86573.007-1.30559.0128-.3283.73669.13396,1.25853.52888,1.74506 .8253.0748 1.24224-.26997 1.79231-.47012-.006-.72877-.29777-.95499-.81627-1.17145z" fill="#573727" fill-rule="evenodd"/>
<path d="m395.48193,448.17111c-1.05121-.00036-1.587.53578-1.58663,1.58663 1.05049,0 1.58663-.53578 1.58663-1.58663z" fill="#573727" fill-rule="evenodd"/>
<path d="m370.18398,448.31802c-.40559.011-.8636.16517-1.29281.52887-.0206,1.59691 1.04642,2.10783 2.02736,2.70316 .14792-.30208.49139-.4099.91084-.44074 .48707-1.47664-.42864-2.82421-1.64539-2.79129z" fill="#573727" fill-rule="evenodd"/>
<path d="m407.85178,448.84689c-.98425.64281-.32694,2.64251 1.11652,2.26242 .0474-.25277.26959-.37039.47011-.47011 .0294-1.15535-.56741-1.68559-1.58663-1.79231z" fill="#573727" fill-rule="evenodd"/>
<path d="m404.73728,449.08195c-.44629.0582-.82892.32644-.94022.88147 .7414.59238 2.1703,1.93152 3.14388.91084 .12116-1.0288-1.22183-1.92039-2.20366-1.79231z" fill="#573727" fill-rule="evenodd"/>
<path d="m422.51342,449.17002c-.25049.0338-.49167.14902-.70517.35259-.52984,2.10944 2.70033,2.86985 2.70315.67579-.41118-.56632-1.24649-1.12986-1.99798-1.02838z" fill="#573727" fill-rule="evenodd"/>
<path d="m375.32584,449.22877c-2.01938.0279-2.28817,3.14294-1.23405,4.5836 .73149.16852 1.39487.40756 2.02737.67579 1.69734-1.02841.92415-2.25902.88145-4.73051-.65623-.38117-1.20875-.53532-1.67477-.52888z" fill="#573727" fill-rule="evenodd"/>
<path d="m402.59239,449.31685c-1.02947.0637-1.76486,1.56935-1.49849,2.23303 1.14726.54346 2.24032-.71674 2.26242-2.02736-.25988-.16813-.52637-.22038-.76393-.20567z" fill="#573727" fill-rule="evenodd"/>
<path d="m431.73939,449.40492c-.98753.0416-2.26256,1.44755-2.05675,2.82068 1.389-.39003 2.65225.40308 3.17326-.91085 .36317.61226.14485,1.81795.6758,2.26242 1.62301-.0416 1.83627-1.83847.88145-2.70314-.59828.002-1.26694-.0751-1.55725.23505-.0253-1.24706-.524-1.72911-1.11651-1.70416z" fill="#573727" fill-rule="evenodd"/>
<path d="m387.32265,449.72429c-1.20502.69027-1.65414,3.2841.25551,3.61782-.59534-1.3853.41966-3.09755-.25551-3.61782z" fill="#573727" fill-rule="evenodd"/>
<path d="m410.31987,449.75754c-.33116.32747-.33116,1.46522 0,1.79231 .32599.10597 2.2517.24333 2.26241-.67579v-.44073c-.45734-.51807-1.35801-.60443-2.26241-.67579z" fill="#573727" fill-rule="evenodd"/>
<path d="m418.89943,449.96322c-.46913,1.17559-1.88477.37778-2.93821.47011 .23033,1.79557 1.67782,2.378 2.02737,4.05472 1.11008-.54051 2.8705-.44446 3.14387-1.82168-.8091-.8415-.62438-2.66112-2.23303-2.70315z" fill="#573727" fill-rule="evenodd"/>
<path d="m396.36339,450.16889c-2.84677-.20874-3.22531,5.31428.67579,3.40832 .38119-.81904.59117-1.82224.67579-2.9382-.50289-.30199-.94489-.4403-1.35158-.47012z" fill="#573727" fill-rule="evenodd"/>
<path d="m426.12741,450.3158c-.83054.0747-1.3123.46354-.94022,1.67478 .99861.46944 2.30227.94329 3.614.47012 .0931-1.06852-.86008-1.10235-.91085-2.02737-.63734-.0806-1.26459-.16237-1.76293-.11753z" fill="#573727" fill-rule="evenodd"/>
<path d="m381.6813,450.40013c.32636,1.63773-.28158,4.20837 1.40141,5.6452 1.87468-.30393 2.07237-2.51965 1.35157-4.26041-1.26021-.0902-1.5855-1.20156-2.75298-1.38479z" fill="#573727" fill-rule="evenodd"/>
<path d="m389.60552,450.43339c-.58208.35911-.41849,1.85483.67579,1.79231-.1619-1.1274.1624-1.34121-.67579-1.79231z" fill="#573727" fill-rule="evenodd"/>
<path d="m414.16892,451.10917c-.64795.5453-1.65017,3.0592-.23505,3.58461 .97068-.36168 1.43368-2.25302.91084-3.37893-.28774-.0126-.31227-.26895-.67579-.20568z" fill="#573727" fill-rule="evenodd"/>
<path d="m404.35531,451.16792c-.93555.0611-1.91387.79576-1.4691,1.73354 1.26794.10192 2.32263.49127 2.9382-.44073-.038-.96715-.74145-1.34033-1.4691-1.29281z" fill="#573727" fill-rule="evenodd"/>
<path d="m436.83286,451.38581c-1.84336-.0624-2.1562,2.82553-.47011,2.9382 .41997.028.78731-.28508 1.05775-.70516-.07-.73165-.16887-1.45208-.26444-2.17428-.11369-.0232-.21919-.0552-.3232-.0587z" fill="#573727" fill-rule="evenodd"/>
<path d="m408.35128,451.72618c-.0959.008-.18704.024-.26445.0587-1.12591,1.82244 1.16423,2.25174 1.79231,2.4681-.55045,1.92729-.78699,3.37449-.23506,5.40629 1.43462-.8919 2.58469-4.35434.67579-5.40629-.37973-.75099.15298-.77937.23506-1.58663-.4884-.43786-1.5325-.99012-2.20365-.94023z" fill="#573727" fill-rule="evenodd"/>
<path d="m361.39159,451.58476c-.12352,1.03076-.31373,2.09006-.52887,3.20265 .42324.47853 1.02277.62979 1.73353-.0588-.10759-1.33451-.29605-2.61018-1.20466-3.14388z" fill="#573727" fill-rule="evenodd"/>
<path d="m369.8314,452.10807c-1.00697-.0228-1.80338.17303-2.73254.11754 .21894.75686.63121,1.30182 1.11653,1.7923 1.45227-.0486 2.21267-.78155 2.70314-1.7923-.39268-.0714-.75147-.10993-1.08713-.11754z" fill="#573727" fill-rule="evenodd"/>
<path d="m399.53666,452.22561c-.43566.31533-.4516,1.0602-1.1459,1.11651 .0718.52875.36568.85554.23506,1.58663 .41834.52654 1.40523.49513 1.58663.6758-.57326.0225-.54192.82951-.23506,1.11651 .85732-.41836 2.55603.0124 2.26241-1.55725-3.10582,1.14506-1.09743-1.94769-2.70314-2.9382z" fill="#573727" fill-rule="evenodd"/>
<path d="m422.48405,452.22561c-.092.86099-.0376,1.89765-.44074,2.9382 .3742.45147.60537,1.03745 1.35158,1.11652 .66745-.98353 1.67362-1.61159 2.90882-2.02736-.66452-1.28671-2.37218-1.52364-3.81966-2.02736z" fill="#573727" fill-rule="evenodd"/>
<path d="m401.0939,452.46067c-.0964.42865-.4757.55649-.44073,1.11651 .64647.46363 1.96879,1.79735 2.4681.44073-.70536-.49525-.89557-1.48842-2.02737-1.55724z" fill="#573727" fill-rule="evenodd"/>
<path d="m431.76877,452.57819c-.88132-.0237-1.89865.54248-2.08613,1.43972 .40069.79991 1.4714.94162 2.02737,1.58664 .33925-.41174.97222-.53996 1.35157-.91085 .33574-1.47785-.41148-2.09178-1.29281-2.11551z" fill="#573727" fill-rule="evenodd"/>
<path d="m365.51223,452.69572c-.90327.12779-1.77712,1.48074-.44073,2.90883 .69799.0225 1.08623-.26561 1.58664-.44074 .28765-1.91432-.44336-2.56748-1.14591-2.46809z" fill="#573727" fill-rule="evenodd"/>
<path d="m406.05947,453.13645c-.31791,1.03245-1.2621,1.44189-1.58663,2.4681 .65054.85031 1.65929,1.33531 2.70315,1.7923-.0571-1.22563-.3085-3.15434-1.11652-4.2604z" fill="#573727" fill-rule="evenodd"/>
<path d="m389.72033,453.29015c.38635,1.56488.50751,3.38794 1.35158,4.49545 1.14579-1.23372 1.71597-2.6973.67579-4.49545z" fill="#573727" fill-rule="evenodd"/>
<path d="m371.38865,454.25297c-.12437.92611-.91949,1.17425-2.02737,1.11652-.55596,1.1708.41724,2.13702 2.02737,1.82169 .37272-.75283.79684-1.45656.67578-2.70316-.28773-.0122-.31189-.29833-.67578-.23505z" fill="#573727" fill-rule="evenodd"/>
<path d="m387.81321,454.25297c-.54828.63065-.99228,1.87116-.44073,2.93821 .93569.0354 1.34587-2.60595.44073-2.93821z" fill="#573727" fill-rule="evenodd"/>
<path d="m437.34457,454.5529c-.31047.17003-.6353.32378-.70517.73455 .11885.2942.41516.4061.76393.47012-.0226-.40335-.0274-.80945-.0587-1.20467z" fill="#573727" fill-rule="evenodd"/>
<path d="m385.11007,454.87135c.34146,1.84193-1.36844,1.62654-1.79231,2.70315 .53573,1.64068 1.41761,2.92881 2.46809,4.05472 1.01995-.93127.44159-2.22695-.23506-3.14388 .40952-.8264.67476-2.37555.23506-3.37893-.28774-.0122-.31188-.29872-.67578-.23506z" fill="#573727" fill-rule="evenodd"/>
<path d="m428.03725,454.92875c-.53334.0636-1.12079.66223-1.49849,1.35158-.18029.32821.31488.56974.23506.91085-.19353.82971-1.51537,1.38751-.91085,2.02736 .45736.5188 1.09249.84055 1.58664,1.32219 .84002.23917.34714-.81529 1.11652-.64641-.33483,1.2352.82359.97915.91084,1.79231-.20937.54088-.90501.5774-.67578,1.55724 .25278.0475.341.2696.44072.47012 1.04533-.081 1.47588-.77751 1.7923-1.58663-.2627-.33777-.65076-.54142-.67578-1.11651 .56517-.48533.7901-1.30332 1.35158-1.79231 .13026,3.59703 6.70909,1.2994 3.84905-.91085-.1884.8621-.87245,1.24997-1.58663,1.58663-.60712-.44374-1.07783-1.04532-1.35158-1.82169-.77047-.0953-.66726.68456-1.11652.91085-.74545-.78998-2.62654-.56854-2.9382.23506 .11885-1.05196-.60287-.97541-.91085-2.02736 .82126.14643 1.21022-.17135 1.58663-.47012-.19041-1.39377-.67133-1.85601-1.20466-1.79231z" fill="#573727" fill-rule="evenodd"/>
<path d="m377.47073,455.36949c1.6679,2.35227.81228,5.97175 2.70315,7.87438 1.93577-2.72206-.0668-7.01892-2.70315-7.87438z" fill="#573727" fill-rule="evenodd"/>
<path d="m394.51121,456.59871c-.15229,1.14234-.46879-.0322-.32543,2.83256 .57731.47318.37612,1.86308 1.44492,1.43638 .72597-1.30069.9171-1.47435 1.11652-3.3012-.86195-1.02658-1.07732-1.63655-2.23601-.96774z" fill="#573727" fill-rule="evenodd"/>
<path d="m416.40195,456.04528c-.6049,1.10494-2.21262,2.62489-1.11651,4.05472 1.12776.002.79554-1.4281 1.79231-1.55725 .44448,1.35367-1.04079,2.25148-.88147,4.02534 1.31981-1.00708 2.10978-2.49786 2.23304-4.70113-1.42652-.29545-1.16527-1.30546-2.02737-1.82168z" fill="#573727" fill-rule="evenodd"/>
<path d="m430.4172,456.19219c-2.21294.006.95766,4.46317 1.29281.3232-.56029-.21811-.97668-.32406-1.29281-.3232z" fill="#573727" fill-rule="evenodd"/>
<path d="m434.58945,456.486c-1.0443-.0408-2.12261,1.09071-1.29281,2.26242 1.2168-.13392 2.1638-.5402 2.26242-1.7923-.26999-.32214-.62151-.45651-.96961-.47012z" fill="#573727" fill-rule="evenodd"/>
<path d="m420.69174,456.72106c-.27522.78262-1.33477,1.9705-.67579,2.9382 .23181-.67739.80113-2.18121 1.35157-1.7923-.12031.63067-.35053,1.16164-.47011,1.7923 1.40444.12914 1.10057-1.47279 1.58664-2.26241-.63398-.19134-.91513-.72731-1.79231-.67579z" fill="#573727" fill-rule="evenodd"/>
<path d="m401.37103,456.57739c-.86129,1.25248-.76226,3.22853 1.16376,3.68649 .11968-1.32871.61898-1.5719 1.15832-.5562 .20622-.80824-.64868-2.04258-.83511-2.79336-.4338-.3168-.81695-.25635-1.48697-.33693z" fill="#573727" fill-rule="evenodd"/>
<path d="m360.80009,456.4796c-.0546,1.10806-.10265,2.25512-.16107,3.44796 .0378.008.0778.007.1207.0104 .46056-.72798.69148-2.7716.0404-3.45837z" fill="#573727" fill-rule="evenodd"/>
<path d="m374.97326,457.19116c-.54456,1.22931.86387,1.55251.23505,3.14388 .69615.65456 1.1056,1.56862 2.4681,1.55724 .66378-1.85775-.83142-4.04545-2.70315-4.70112z" fill="#573727" fill-rule="evenodd"/>
<path d="m363.51425,457.39683c-.28368.87424-.86909,2.26309.20568,2.70315 .37272-.75319.79683-1.45655.67579-2.70315z" fill="#573727" fill-rule="evenodd"/>
<path d="m412.81734,457.39683c-.49892,1.25691-2.6015,3.24395-1.14589,4.96557 .84149-.0868 2.87744-3.69983 1.14589-4.96557z" fill="#573727" fill-rule="evenodd"/>
<path d="m437.38007,456.70365c-.66438.30537-1.13634,1.10345-1.02838,2.08612 .45305.0881.74083.37062 1.02838.6758 .0302-.96174.0192-1.87072 0-2.76192z" fill="#573727" fill-rule="evenodd"/>
<path d="m366.42308,457.63187c-.65936,1.36692-1.70208,2.32434-2.23304,3.81966 1.1903.20973 3.20882-2.6128 2.23304-3.81966z" fill="#573727" fill-rule="evenodd"/>
<path d="m372.06443,458.07259c-.19659.78571-.48122,1.84157-.38197,2.73254 .0122-.0188.0174-.0399.0294-.0588 .008.18406.0401.32871.0587.4995 .021.0692.0308.13998.0588.20567 .6476.22143 1.7804.75865 2.4681.23506-.41248-1.53838-.9743-2.92152-2.23304-3.614z" fill="#573727" fill-rule="evenodd"/>
<path d="m388.03993,457.55594c-.97461.1147-1.23676,1.45116-.88146,2.4681 .45291-.57568.92101-1.24793 1.43972-1.9686-.14197-.23172-.32816-.4276-.55826-.4995z" fill="#573727" fill-rule="evenodd"/>
<path d="m405.48335,457.82927c-.76792,1.77975-.87548,4.13547.67578,5.17124 .34218-1.34594 1.71733-5.05499-.67578-5.17124z" fill="#573727" fill-rule="evenodd"/>
<path d="m368.48933,458.28914c-.733.65751-1.6295,2.10222-.67579,3.14388 .80801.13246 1.09984-.25198 1.58664-.44074 .0508-1.25175-.0657-2.34733-.91085-2.70314z" fill="#573727" fill-rule="evenodd"/>
<path d="m398.39076,460.09996c-.46031.48679-.0575,1.41076.4701,1.58663-.16409-.51144.38574-1.76728-.4701-1.58663z" fill="#573727" fill-rule="evenodd"/>
<path d="m424.32653,459.92825c-.44667-.0842-.90292-.0643-1.30892.0197 .35342.79883.83314,1.45939 1.36535,2.06631 .63293-.0717 1.33326-.23564 1.88676-.32255-.014-.98406-.94734-1.57561-1.94319-1.76344z" fill="#573727" fill-rule="evenodd"/>
<path d="m382.78888,460.68764c-.12118.0117-.24295.0394-.38197.0881 1.34963.91325-.87839,3.04987.47012,4.05472 1.58917-.55295 1.72971-4.31762-.0881-4.14287z" fill="#573727" fill-rule="evenodd"/>
<path d="m420.18176,460.73584c-.43566.53978-1.23541.69806-1.32219,1.58663 .39885.20128.2776.91422 1.11651.67579 .38856-.51181.9123-.89042.88146-1.82168-.32122-.0541-.3796-.36119-.67578-.44074z" fill="#573727" fill-rule="evenodd"/>
<path d="m436.96872,460.49055c-1.20785-.0244-1.64027,2.54815-.1763,2.96759 .11522-.0349.22656-.0934.3232-.14692 .0899-.94976.16048-1.86139.20568-2.73253-.12205-.049-.2425-.086-.35258-.0881z" fill="#573727" fill-rule="evenodd"/>
<path d="m433.10855,461.21983c-.23502-.0325-.50811.0317-.8227.20567-.16006.83524.39475.95743.23506,1.79231 .87129-.19576.80186.55067 1.35157.67578 .37604-.37419.89247-.5903.88147-1.35157-.5384-.38828-.94034-1.22481-1.6454-1.32219z" fill="#573727" fill-rule="evenodd"/>
<path d="m414.49212,462.27419c-1.18889.0548-1.35924,1.82897-.3232,2.11552 .31863-.65678.82486-1.10824.88146-2.02737-.21055-.0719-.38841-.096-.55826-.0881z" fill="#573727" fill-rule="evenodd"/>
<path d="m375.52948,462.13264c-.12621.32454-.35125.55031-.67579.67578 .30283,1.42359 1.3769,2.06833 1.79231,3.37894 1.03318.0581 1.08873.23917 2.02735,0-.13282-2.26837-1.70006-3.09658-3.14387-4.05472z" fill="#573727" fill-rule="evenodd"/>
<path d="m426.38913,462.20957c-.0175.6069-.34722.84969-.66895,1.08502 .60947.50274 1.28142.97251 1.98298,1.43739 .26058-.32427.45719-.73395.59285-1.21069-.28633-.17712-.35913-.52955-.34839-.94999-.59468-.0622-1.3003-.0243-1.55849-.36173z" fill="#573727" fill-rule="evenodd"/>
<path d="m361.1971,462.19531c-.34659.34255-.41106,1.54438.44073,1.35157 .36831-.36463.28044-1.41485-.44073-1.35157z" fill="#573727" fill-rule="evenodd"/>
<path d="m365.61939,462.23435c-.0306.73262.13408,1.2794.41135,1.70417 .66559-.28156 1.30247-.64362 1.93921-1.05776-.75853-.35184-1.76709-.51586-2.35056-.64641z" fill="#573727" fill-rule="evenodd"/>
<path d="m364.07252,463.24372c-.30103-.0179-.6489.0803-.79332.23506-.0504.42572.26335.50684.23505.91085 .64465.0445 1.21955.0277 1.11653-.67579-.002-.30852-.25724-.45218-.55826-.47012z" fill="#573727" fill-rule="evenodd"/>
<path d="m371.98715,462.87465c.40886.69468.96812,1.24817 1.61601,1.70416-.0869-1.12202-.76939-1.7092-1.61601-1.70416z" fill="#573727" fill-rule="evenodd"/>
<path d="m418.60044,463.00038c-1.26868.60712-2.13688,1.62796-2.70315,2.93821 .81221.0793 1.0986.65404 1.58663,1.05775 .35327-.4045.69029-.80237.99899-1.20466 .0938-1.24033.15364-2.61974.11753-2.7913z" fill="#573727" fill-rule="evenodd"/>
<path d="m399.53887,462.87665c.33565.82396.44114,1.9982.47011,3.23203 .33608-.55528.66431-1.11812.96961-1.70417-.37874-.60623-.85524-1.12745-1.43972-1.52786z" fill="#573727" fill-rule="evenodd"/>
<path d="m430.82634,463.42753c-.7848.0594-1.30287.37984-1.38096,1.14589 .0841.15792.17228.32024.26443.47012 .55588.30038 1.10276.61148 1.67478.96961 .008.005.0222-.005.0294,0 .15792-.007.34083-.0515.52888-.0881 .74141-.95114.0427-1.42092-.23506-2.46808-.31285-.0315-.61986-.0492-.88146-.0294z" fill="#573727" fill-rule="evenodd"/>
<path d="m380.84967,464.38962c-.71749.95519-1.20633,3.79098 1.11651,3.81966-.33703-.83523.68568-3.58344-1.11651-3.81966z" fill="#573727" fill-rule="evenodd"/>
<path d="m409.04804,463.73184c-.76374.0295-.755.80219-.94024,1.41034 .2478.22019.50854.42746.76393.64639 .23026-.64326.35899-1.31716.17631-2.05673z" fill="#573727" fill-rule="evenodd"/>
<path d="m436.05452,463.78793c-.0456.68238.28976,1.2028.79332,1.49848 .0603-.50497.12824-1.01682.17629-1.49848-.31268-.005-.64309-.01-.96961,0z" fill="#573727" fill-rule="evenodd"/>
<path d="m410.97572,464.76861c-.49943.51595-.97682,1.034-1.20466,1.82169l.96961.79332c.57655-.61164.5855-1.89601.23505-2.61501z" fill="#573727" fill-rule="evenodd"/>
<path d="m433.82678,465.63604c-.90446-.0181-1.86689.31928-1.99798,1.08713 .26972,1.86586 3.6332,1.55876 3.37894-.67578-.32163-.27678-.83827-.40049-1.38096-.41135z" fill="#573727" fill-rule="evenodd"/>
<path d="m361.645,464.79787c-.069.004-.14527.0346-.23506.0588-.10892.30947-.0237.52302.11753.67578 .27518-.11483.55938-.21978.85207-.3232-.22943-.1492-.33692-.43053-.73454-.41135z" fill="#573727" fill-rule="evenodd"/>
<path d="m396.51459,464.72463c.16797,1.23031.55467,3.46182-.1763,5.25939 .22727.56926.41065.95239.67268,1.10279 .47855-.87646 1.18054-2.03741 1.70727-2.86571-.42944-1.48306-.91325-2.87436-2.20365-3.49647z" fill="#573727" fill-rule="evenodd"/>
<path d="m412.89708,465.96488c-.84986.0946-1.34224.99874-1.58663,1.88046 .58579.47953 1.1598.95818 1.73354,1.43972-.11764-.9435.22972-2.26709-.14691-3.32018z" fill="#573727" fill-rule="evenodd"/>
<path d="m415.72617,466.52108c-1.67535.2582-1.7391,2.07846-1.55725,3.67275l.26444.23506c1.08007-1.23156 1.95073-2.16634 2.70314-2.99697-.45986-.31409-1.18646-.36065-1.41033-.91084z" fill="#573727" fill-rule="evenodd"/>
<path d="m435.58153,468.22798c-.61593.075-1.18248.59229-1.08713,1.82169 .69651.0121.84089.56692 1.6454.4701 .1154-.72061.20021-1.41038.29381-2.08612-.25479-.15031-.55283-.24215-.85208-.20567z" fill="#573727" fill-rule="evenodd"/>
<path d="m378.83587,467.34481c-.0904.003-.15545.0151-.23505.0294 .4042.29903.80621.61701 1.17529.99899-.0208-.26066-.0147-.55592.0294-.88147-.37462-.11663-.69948-.15403-.96961-.14691z" fill="#573727" fill-rule="evenodd"/>
<path d="m381.71803,468.29794c-.22159.3043-.58771.85384-.76393,1.38095 .11279.20521.25048.39155.35258.61703 .22-.7157.4331-1.30751.64641-1.90984-.0655-.0511-.14112-.082-.23506-.0881z" fill="#573727" fill-rule="evenodd"/>
<path d="m358.46551,440.50788c28.81587,9.31485 45.15848,9.52656 77.66506,0 1.89862,10.92356 2.71217,17.81328-.006,32.88792-5.3852-7.84953-11.22021-8.05999-13.85671-13.87153-2.44365,6.33145-3.67256,6.82305-7.81983,11.55201-4.23028-3.77753-9.74578-7.34086-11.37429-11.55201-.86575,5.29532-3.91191,8.41023-6.04259,12.44062-2.99428-3.78399-1.29716-8.73373-7.28665-14.75102-3.90826,5.72938-5.86441,6.12234-8.35299,14.21785-2.8965-6.39592-10.2184-4.49222-10.48568-11.01884-3.64293,5.71429-6.95556,4.63244-9.39882,8.17756-3.62835-13.68862 2.42857-21.45375-3.0418-28.08256z" fill="url(#linearGradient13078)"/>
<g opacity=".8678" stroke="#782d2d">
<path d="m424.64366,409.94734c-.36007-1.14456-.28172-.92985-.64945-2.53712-.49651-.31945-.40884-.014-2.29564.61106-.64026-.80272-.81144-1.02716-1.47893-2.17121-.20489-.68001-1.27489-.10575-2.49204.70635" fill="none" opacity=".8814" stroke="#782d2d" stroke-linecap="round" stroke-linejoin="round" stroke-width="2.7"/>
<path d="m379.32127,406.56605c-.87467-.56309-.96324-.30172-2.40278-1.26999-.58101,1.60735-.54551,1.01923-1.06477,1.86945-2.02169-.97419-2.46968-.93931-3.21276-1.73476-.20649,1.44032-.29669,1.88935-.69067,3.3711" fill="none" opacity=".8814" stroke="#782d2d" stroke-linecap="round" stroke-linejoin="round" stroke-width="2.7"/>
<path d="m392.28125,374.61554c-.49682-2.01004-2.28427-4.24256-4.27264-6.40895" fill="none" opacity=".8814" stroke="#782d2d" stroke-linecap="round" stroke-linejoin="round" stroke-width="2.7"/>
<path d="m398.69534,374.47032c-1.61763-1.34126-6.86742-5.02416-.39332-5.11839 6.47572-.14185 1.61879,3.74631.39332,5.11839z" fill="none" opacity=".8814" stroke="#782d2d" stroke-linecap="round" stroke-linejoin="round" stroke-width="2.17495"/>
<path d="m404.72901,375.25306c.39506-2.0325 2.06791-4.35213 3.94476-6.61583" fill="none" opacity=".8814" stroke="#782d2d" stroke-linecap="round" stroke-linejoin="round" stroke-width="2.7"/>
<path d="m420.27644,414.27899c-1.47243-1.45569-4.16202-2.42792-6.98853-3.23892" fill="none" opacity=".8814" stroke="#782d2d" stroke-linecap="round" stroke-linejoin="round" stroke-width="2.7"/>
<path d="m384.75246,410.90753c-2.07008-.0429-4.69055,1.10267-7.29941,2.45942" fill="none" opacity=".8814" stroke="#782d2d" stroke-linecap="round" stroke-linejoin="round" stroke-width="2.7"/>
</g>
<path d="m444.59481,399.42795c-.0268.001-.0639.026-.1228.12716-3.68952,4.63245-8.611,6.65397-12.85192,8.60051-4.22438,1.93894-8.4183,4.24013-11.29582,10.01109l-.0302.063c-1.47947,2.32443-4.88624,3.71935-8.87852,4.89004-.0441-.17132-.12175-.37094-.16495-.4972-.075-.21945.11353-.55051-.0745-.6863-.30407-.21957-1.10456.63488-1.42965.82191-.67414.38782-.50487,1.31642-1.25489,1.52212-.51329.14078-1.48716-.65809-2.01005-.55877-.79507.15102-1.24067.2234-1.92685.62746-.31922.18798.67306.598.74161.60021l.0313-.00054c.005.009.0265.021.0318.0308-.3272.10953-.63925.22747-.96315.32935 .0373-.17275-.005-.30844-.13098-.34152-1.07911-.28434-1.62636.27426-2.75619.37258-.68187.0594-1.59535,1.27374-2.31832,1.47817-.18245.002-.37239-.014-.56296-.0215-.76323-.2524-.94613-1.29646-1.87072-1.5301-.50958-.12883-1.79959-.46835-2.12631-.0566-.20206.2546.19106.64133.17312.96588-.00073.0154.002.0454.001.0625-.57022-.12943-.99321-.58291-1.57691-.7382 .0424-.13051.0634-.25318.0877-.34533 .0554-.21009.37814-.39557.30209-.59911-.12298-.32914-1.00058-.39091-1.35118-.41399-.72702-.0478-1.19863,1.09046-1.89021.8612-.47329-.1569-.84798-1.28322-1.30723-1.47742-.69828-.2953-1.07718-.48934-1.82203-.5308-.30787-.0171-.0491.9048.0515,1.15553-.25683-.0738-.35806-.70715-.60579-.77543-2.01785-.55629-3.8727-1.26873-5.25557-2.06488s-2.26963-1.67002-2.57503-2.48671c-.0163-.0537-.0383-.10586-.0652-.15514-5.94329-9.28079-11.32114-12.30141-15.62275-13.97495-2.15081-.83676-4.03603-1.19964-5.65413-1.62035s-2.30577-.59526-3.40229-1.53463c-.18275-.16918-.63686-.46323-.8825-.42217 .10973.13296-.44162,1.11232-.2545,1.53592 1.38341,1.18516 2.44036,1.55168 4.12911,1.99077s3.49918.81445 5.49736,1.59184c3.99636,1.55478 8.80434,4.7614 14.61868,13.84083l.0308-.0318c.54573,1.31273 1.85424,1.81937 3.36147,2.68713 1.56166.89909 3.52286,1.63278 5.63324,2.21456 .68551.18898 1.25034.93845 1.98767,1.15764-.14913,1.83865-.98428,4.28048-.91807,4.70423 .44217.0747 3.25863-2.17982 4.36601-4.06113 .36797.10441.73212.22595 1.09958.32462 .71646.19239 1.28527.66965 1.98474.82484-.0533.3948-.0986.77589-.0719,1.25145 0,0 .95198-.11563 1.58642-.43399 .4943,3.24732 3.65746,7.69757 4.35549,7.8002 .33094-.65427.22838-5.59558 1.20125-8.17845 .15328.32498.62587.62776 1.14173.94898 0,0 .18415-1.30806.38391-1.9877 1.24358-.3401 2.52754-.74413 3.82354-1.19188 .93955,1.72257 1.74019,4.7999 2.04634,5.13327 .43472-.19441 1.60827-3.84275 1.49265-6.16757 .31738-.0991.64498-.20631.96369-.29811 4.27488-1.23115 8.14827-2.74254 10.01988-5.75383l.0302-.063c2.67834-5.41637 6.38015-7.39305 10.55793-9.31061s8.36409-3.55951 12.32184-8.52875c.3413-.32045.12126-.42147.0456-.96969-.048-.34783.005-.72255-.075-.71756z" fill-opacity=".4007"/>
<path d="m352.93677,399.28115c.1074.13486-.45071,1.11469-.271,1.54149 1.36252,1.20911 2.40339,1.58388 4.08423,2.05236s3.48444.87537 5.46875,1.6875c3.96863,1.62426 8.71994,4.91427 14.375,14.09375l.0313-.0313c.52275,1.32205 1.63314,2.38733 3.125,3.28125 1.54574.9262 3.49384,1.69399 5.59375,2.3125 4.19981,1.23703 9.59989,3.30539 13.39012,3.22909 3.7389-.0753 7.93918-1.97895 12.23488-3.13534s8.20114-2.95932 10.125-5.9375l.0313-.0625c2.77243-5.36882 6.50816-7.28062 10.71875-9.125s8.42596-3.39954 12.46979-8.29898c.34684-.31445.1426-.44446.0765-.99392-.0559-.46481.0322-.97499-.21065-.57472-3.76977,4.56738-8.7177,6.49536-12.99193,8.36762-4.25756,1.86495-8.49099,4.09262-11.46875,9.8125l-.0313.0625c-1.54044,2.32947-5.04261,4.05728-9.125,5.15625-4.11336,1.10731-8.2363,2.9999-11.85988,3.07284-3.57226.0719-8.87444-1.95255-12.89012-3.13534-2.00784-.5914-3.84998-1.33609-5.21875-2.15625s-2.24015-1.70936-2.53125-2.53125c-.0154-.054-.0364-.10646-.0625-.1562-5.78048-9.38306-10.91574-13.03293-15.1875-14.78125-2.13588-.87416-4.01448-1.26987-5.625-1.71875s-2.27527-.62546-3.35524-1.58382c-.17977-.17234-.64918-.4843-.8955-.44753z" fill="#604931" stroke="#000" stroke-width=".537"/>
<g transform="matrix(.03212,.00253,-.00253,.03212,390.31533,420.65278)">
<path d="m129.69479,161.70936c-1.73078,0-3.01094-23.85729-3.07334-34.42136-.0596-10.08944-12.53973-21.23296-6.76134-29.50403 9.34393-13.37472 49.73684-5.48349 65.76939-2.45867 33.24562,6.27236 38.77654,47.16595 72.53074,44.87071 23.10003-1.57077 52.08869-48.22085 74.9894-51.63205 34.82048-5.18672 54.53855-8.61079 88.51209-1.844 15.8049,3.14799-16.27061,56.0913-19.05469,57.16405-92.9648,55.79303-184.82957,84.08541-272.91225,17.82535z" fill="url(#linearGradient13080)" stroke="#000" stroke-width="16.5143"/>
<path d="m130.30945,161.0947c-2.49014,18.88127-3.85843,36.64068-1.22933,59.00804 0,0 29.50402-5.53199 48.55871-16.596 21.46412,99.6794 128.15666,231.71542 149.9788,233.57355 9.01512-20.89869-3.73969-173.83147 21.51336-255.70157 5.36433,9.77881 20.28852,18.0694 36.88003,27.04535 0,0 12.90801-44.87071 15.98135-64.54006-38.72404,0-109.79577,35.18706-139.92521,40.52599-49.65934-3.32271-96.13535-2.2331-131.75771-23.3153z" fill="url(#linearGradient13082)" stroke="#000" stroke-linecap="round" stroke-linejoin="round" stroke-width="19.61849"/>
</g>
<g stroke="#000" stroke-width="21.75072" transform="matrix(-.02183,.00719,.00719,.02183,412.42865,418.47775)">
<path d="m129.69479,161.70936c-1.73078,0-3.01094-23.85729-3.07334-34.42136-.0596-10.08944-12.53973-21.23296-6.76134-29.50403 9.34393-13.37472 49.73684-5.48349 65.76939-2.45867 33.24562,6.27236 38.77654,47.16595 72.53074,44.87071 23.10003-1.57077 52.08869-48.22085 74.9894-51.63205 34.82048-5.18672 54.53855-8.61079 88.51209-1.844 15.8049,3.14799-16.27061,56.0913-19.05469,57.16405-92.9648,55.79303-184.82957,84.08541-272.91225,17.82535z" fill="url(#linearGradient13080)" stroke="#000" stroke-width="21.75072"/>
<path d="m130.30945,161.0947c-2.49014,18.88127-3.85843,36.64068-1.22933,59.00804 0,0 29.50402-5.53199 48.55871-16.596 21.46412,99.6794 128.15666,231.71542 149.9788,233.57355 9.01512-20.89869-3.73969-173.83147 21.51336-255.70157 5.36433,9.77881 20.28852,18.0694 36.88003,27.04535 0,0 12.90801-44.87071 15.98135-64.54006-38.72404,0-115.06464,32.26522-145.19408,37.60415-34.48223,6.11025-52.96335-4.21249-92.97333-4.83865-25.25796-4.92882-23.68083-11.25214-33.51551-15.55481z" fill="url(#linearGradient13082)" stroke="#000" stroke-linecap="round" stroke-linejoin="round" stroke-width="21.75072"/>
</g>
<g stroke="#000" stroke-width="24.23895" transform="matrix(-.02076,-.00574,-.00574,.02076,395.81807,422.38514)">
<path d="m129.69479,161.70936c-1.73078,0-3.01094-23.85729-3.07334-34.42136-.0596-10.08944-12.53973-21.23296-6.76134-29.50403 9.34393-13.37472 49.73684-5.48349 65.76939-2.45867 33.24562,6.27236 38.77654,47.16595 72.53074,44.87071 23.10003-1.57077 52.08869-48.22085 74.9894-51.63205 34.82048-5.18672 54.53855-8.61079 88.51209-1.844 15.8049,3.14799-16.27061,56.0913-19.05469,57.16405-92.9648,55.79303-184.82957,84.08541-272.91225,17.82535z" fill="url(#linearGradient13080)" stroke="#000" stroke-width="24.23895"/>
<path d="m130.30945,161.0947c-2.49014,18.88127-3.85843,36.64068-1.22933,59.00804 0,0 29.50402-5.53199 48.55871-16.596 21.46412,99.6794 128.15666,231.71542 149.9788,233.57355 9.01512-20.89869-3.73969-173.83147 21.51336-255.70157 5.36433,9.77881 20.28852,18.0694 36.88003,27.04535 0,0 12.90801-44.87071 15.98135-64.54006-38.72404,0-109.04497,31.53049-139.17441,36.86942-34.48223,6.11025-58.98302-3.47776-98.993-4.10392-25.25796-4.92882-23.68083-11.25214-33.51551-15.55481z" fill="url(#linearGradient13082)" stroke="#000" stroke-linecap="round" stroke-linejoin="round" stroke-width="24.23895"/>
</g>
<g transform="translate(1.06816,-5.34079)">
<path d="m371.60006,358.41073c.6343,2.20139 2.72705.73346 1.83961,5.44851-4.82261,39.56164-9.59418,79.23343-11.05836,119.08274-.56904,1.6623.70726,5.95703 2.59375,3.25 5.71853-27.61341 6.94923-56.06127 10-84.09375 1.48274-13.60951 1.52617-28.01677 3.375-41.15625 5.66372-2.52595 5.38233-12.5929 5.65625-15.3125 .42112-5.12317-3.26222-19.73333-5.97752-17.83641-6.72681,6.82961-9.60299,23.34747-6.42873,30.61766z" fill-rule="evenodd"/>
<g transform="matrix(.86442,.08443,-.08443,.86442,-85.81545,-8.56661)">
<path d="m570.30578,388.95145c1.32965,0 2.40009,26.9735 2.40009,60.4787v24.13558c0,33.5052-1.07044,60.4787-2.40009,60.4787s-2.40008-26.9735-2.40008-60.4787v-24.13558c0-33.5052 1.07044-60.4787 2.40008-60.4787z" fill="url(#linearGradient13092)" fill-rule="evenodd" transform="matrix(.99952,-.03113,9.1944526e-4,1,0,0)"/>
<path d="m576.67051,352.76548c.6425,16.20169-2.6184,17.93191-6.00656,17.59101-3.98261,1.09473-5.94206-.64083-6.58452-16.84252 1.76872-10.5366 4.37857-17.58628 5.58255-18.26066 1.11305-.62345 4.71296,4.75106 7.00853,17.51217z" fill="url(#linearGradient13094)" fill-rule="evenodd"/>
<path d="m570.43046,351.62139c-.80945.043-1.4632,5.39364-1.45966,11.94348 .001,2.20034.0763,4.25686.2064,6.01707l-.36313,17.61694 3.20336.0186-.38167-16.92011c.16972-1.94893.26914-4.3267.26776-6.88815-.004-6.54985-.66361-11.83077-1.47306-11.7878z" fill="url(#linearGradient13096)" fill-rule="evenodd"/>
<path d="m567.88492,338.6002c.48715.58602.75836.23789.9289,1.46398 .50348,1.54959-.10023,1.229-.3913,1.7505-1.04194.39803-1.13828-.14751-1.54038-.38934 .29556-1.43182.45963-1.50779 1.00278-2.82514z" fill-opacity=".1047"/>
<path d="m572.70443,338.88314c-.48715.58602-.75836.23789-.9289,1.46398-.50348,1.54959.10023,1.229.3913,1.7505 1.04194.39803 1.18819-.12255 1.59029-.36438-.29556-1.43182-.50954-1.53275-1.05269-2.8501z" fill-opacity=".1047"/>
<path d="m566.8454,341.77653c.48715.58602.52875-.10154.69929,1.12455 .41363-.18753.1344.97442-.15669,1.49592-1.04194.39803-1.01848.62121-1.42058.3794 .29556-1.43182.33483-1.6825.87798-2.99985z" fill-opacity=".1047"/>
<path d="m565.77686,345.42853c.48715.58602.90811.33772 1.07865,1.56381 .50348,1.54959-.17511.8047-.46618,1.3262-1.04194.39803-.98852.4515-1.39062.20967 .29556-1.43182.235-1.78233.77815-3.09968z" fill-opacity=".1047"/>
<path d="m573.82232,341.98838c-.48715.58602-.75836.23789-.9289,1.46398-.50348,1.54959.49957.60504.79064,1.12654 1.04194.39803.71398.57628 1.11608.33445-.29556-1.43182-.43467-1.60762-.97782-2.92497z" fill-opacity=".1047"/>
<path d="m574.8659,345.32927c-.43723.012-.88315-.16144-1.05369,1.06465-.50348,1.54959.12519.90454.41626,1.42604 1.04194.39803.91365.20191 1.31575-.0399-.29556-1.43182-.13512-1.13342-.67832-2.45077z" fill-opacity=".1047"/>
<path d="m564.83698,349.67827c.63323.64443 1.42309-.13126 1.64478,1.21705-.7148,1.77339-.2103,1.54354-.58865,2.11703-1.35446.43771-1.44925.43571-1.68633.0746 .40967-1.57739.26744-1.99815.6302-3.40866z" fill-opacity=".1047"/>
<path d="m564.12715,354.40641c.62465.62496 2.96699.63747 2.30172,1.94504-.29037,1.09794-.57119.52886-.94441,1.08502-1.33602.42448-.64356.77615-1.15916.51825-.16066-1.73493-.0247-2.1419-.19815-3.54831z" fill-opacity=".1047"/>
<path d="m564.46576,359.31459c.48715.7423 2.52002-.006 2.18792,1.6342 .50348,1.96284-.19244,1.40061-.48351,2.06118-1.04194.50418-.91919.58924-1.32129.28292-.0684-1.31102-.37163-2.32697-.38312-3.9783z" fill-opacity=".1047"/>
<path d="m565.07204,364.47089c.48715.71583 2.30579.41253 2.47633,1.91021 .50348,1.89285.0495,1.75667-.24155,2.39369-1.04194.4862-.88869-.19724-1.29079-.49264-.50311-1.74899-.88813-2.37681-.94399-3.81126z" fill-opacity=".1047"/>
<path d="m575.779,348.6121c-.5559.63145-1.14026.46789-1.33486,1.78904-.57454,1.66973.19982.86709.53197,1.42902 1.18898.42889 1.12802.4865 1.58686.22592-.33727-1.54282-.33749-1.93784-.78397-3.44398z" fill-opacity=".1047"/>
<path d="m576.58528,353.01137c-.82226.42019-1.15901-.80129-1.76496.4108-1.14392,1.41884-.15946,1.70533.0603,2.36345 1.24418.82385 1.19203.80667 1.79539.71214 .058-1.60941.29871-1.88194-.004-3.46906z" fill-opacity=".1047"/>
<path d="m576.71484,358.00265c-.84745.40097-1.03294-.77034-1.76545.47792-1.27883,1.43875-.35347,1.65655-.21963,2.36287 1.10756.93448 1.16899.9917 1.76523.92322 .24888-1.69635.32301-2.07247.21945-3.76401z" fill-opacity=".1047"/>
<path d="m576.44065,362.32085c-.48715.70934-2.0562.0843-2.22674,1.56843-.50348,1.87568-.0246,1.44825.26651,2.07949 1.04194.4818.88869.67131 1.29079.37859 .34748-1.51878.46384-2.35707.66944-4.02651z" fill-opacity=".1047"/>
<path d="m575.52458,366.78799c-.86153.30351-2.63025-1.01759-2.80079.45293-.50348,1.85852.0254,1.33951.31643,1.96498 .24327.15292.51431.56647.91641.27643 .0396-.37645 1.43125-1.18813 1.56795-2.69434z" fill-opacity=".1047"/>
<path d="m569.59778,335.25094c.48715.58602.30148.23372.47202,1.45981-.27648.40566-.3311.54472-.62217,1.06622-1.04194.39803-.53788-.53645-.93998-.77828 .52088-1.32782 1.01495-1.53967 1.09013-1.74775z" fill-opacity=".1047"/>
<path d="m571.01332,336.08139c-.48715.58602-.19749.0431-.36803,1.26916 .50925.73646.10578.73538.39685,1.25688 1.04194.39803 1.05785.2955 1.45995.0537-.52088-1.39715-.92829-1.76499-1.48877-2.57971z" fill-opacity=".1047"/>
</g>
</g>
<g transform="matrix(.8783,-.11592,.13085,.9914,272.52058,81.75567)">
<path d="m51.63901,328.16301c15.67663,5.63707-4.61503,30.67561 12.32305,52.52299 3.13081,4.03823-18.85579.68126-26.62868-21.69618-7.55897-21.76158-.36897-35.04071 14.30563-30.82681z" fill="#fff" fill-rule="evenodd" stroke="#000" stroke-width="1.62921"/>
<path d="m51.63901,328.16301c15.67663,5.63707-13.87706,33.27614 12.32305,52.52299 7.37264,5.41601-18.85579.68126-26.62868-21.69618-7.55897-21.76158-.36897-35.04071 14.30563-30.82681z" fill="url(#radialGradient13098)" fill-rule="evenodd" stroke="#000" stroke-width="1.62921"/>
</g>
<g transform="matrix(.87654,-.1286,.14516,.98941,268.79289,96.15249)">
<path d="m135.69223,328.16301c-15.67663,5.63707 4.61504,30.67561-12.32305,52.52299-3.13081,4.03823 18.85579.68126 26.62868-21.69618 7.55898-21.76158.36897-35.04071-14.30563-30.82681z" fill="#fff" fill-rule="evenodd" stroke="#000" stroke-width="1.62921"/>
<path d="m135.69223,328.16301c-15.67663,5.63707 13.87706,33.27614-12.32305,52.52299-7.37264,5.41601 18.85579.68126 26.62868-21.69618 7.55898-21.76158.36897-35.04071-14.30563-30.82681z" fill="url(#radialGradient13100)" fill-rule="evenodd" stroke="#000" stroke-width="1.62921"/>
</g>
</g>
</svg>
